<?xml version="1.0" encoding="iso-8859-1"?>
<!-- Generator: Adobe Illustrator 17.1.0, SVG Export Plug-In . SVG Version: 6.00 Build 0)  -->
<!DOCTYPE svg PUBLIC "-//W3C//DTD SVG 1.1//EN" "http://www.w3.org/Graphics/SVG/1.1/DTD/svg11.dtd">
<svg version="1.1" xmlns="http://www.w3.org/2000/svg" xmlns:xlink="http://www.w3.org/1999/xlink" x="0px" y="0px"
	 viewBox="0 0 800 600" style="enable-background:new 0 0 800 600;" xml:space="preserve">
<metadata><?xpacket begin="﻿" id="W5M0MpCehiHzreSzNTczkc9d"?>
<x:xmpmeta xmlns:x="adobe:ns:meta/" x:xmptk="Adobe XMP Core 5.5-c014 79.151739, 2013/04/03-12:12:15        ">
   <rdf:RDF xmlns:rdf="http://www.w3.org/1999/02/22-rdf-syntax-ns#">
      <rdf:Description rdf:about=""
            xmlns:ExtensisFontSense="http://www.extensis.com/meta/FontSense/"
            xmlns:xmpTPg="http://ns.adobe.com/xap/1.0/t/pg/"
            xmlns:stDim="http://ns.adobe.com/xap/1.0/sType/Dimensions#"
            xmlns:xmpG="http://ns.adobe.com/xap/1.0/g/"
            xmlns:dc="http://purl.org/dc/elements/1.1/"
            xmlns:xmp="http://ns.adobe.com/xap/1.0/"
            xmlns:xmpGImg="http://ns.adobe.com/xap/1.0/g/img/">
         <ExtensisFontSense:slug>
            <rdf:Bag>
               <rdf:li rdf:parseType="Resource">
                  <ExtensisFontSense:Family>Helvetica Neue</ExtensisFontSense:Family>
                  <ExtensisFontSense:Version>10.0</ExtensisFontSense:Version>
                  <ExtensisFontSense:OutlineFileSize>0</ExtensisFontSense:OutlineFileSize>
                  <ExtensisFontSense:KerningChecksum>54840</ExtensisFontSense:KerningChecksum>
                  <ExtensisFontSense:Foundry>Linotype AG</ExtensisFontSense:Foundry>
                  <ExtensisFontSense:FontKind>TrueType</ExtensisFontSense:FontKind>
                  <ExtensisFontSense:Checksum>2285979886</ExtensisFontSense:Checksum>
                  <ExtensisFontSense:PostScriptName>HelveticaNeue-Bold</ExtensisFontSense:PostScriptName>
                  <ExtensisFontSense:FontSense_1.2_Checksum>2285979886</ExtensisFontSense:FontSense_1.2_Checksum>
               </rdf:li>
            </rdf:Bag>
         </ExtensisFontSense:slug>
         <xmpTPg:MaxPageSize rdf:parseType="Resource">
            <stDim:w>800.000000</stDim:w>
            <stDim:h>600.000000</stDim:h>
            <stDim:unit>Pixels</stDim:unit>
         </xmpTPg:MaxPageSize>
         <xmpTPg:NPages>1</xmpTPg:NPages>
         <xmpTPg:HasVisibleTransparency>False</xmpTPg:HasVisibleTransparency>
         <xmpTPg:HasVisibleOverprint>False</xmpTPg:HasVisibleOverprint>
         <xmpTPg:SwatchGroups>
            <rdf:Seq>
               <rdf:li rdf:parseType="Resource">
                  <xmpG:groupName>Groupe de nuances par défaut</xmpG:groupName>
                  <xmpG:groupType>0</xmpG:groupType>
               </rdf:li>
            </rdf:Seq>
         </xmpTPg:SwatchGroups>
         <dc:format>image/svg+xml</dc:format>
         <xmp:Thumbnails>
            <rdf:Alt>
               <rdf:li rdf:parseType="Resource">
                  <xmpGImg:width>240</xmpGImg:width>
                  <xmpGImg:height>256</xmpGImg:height>
                  <xmpGImg:format>JPEG</xmpGImg:format>
                  <xmpGImg:image>/9j/4AAQSkZJRgABAgEASABIAAD/7QAsUGhvdG9zaG9wIDMuMAA4QklNA+0AAAAAABAASAAAAAEA&#xA;AQBIAAAAAQAB/+4ADkFkb2JlAGTAAAAAAf/bAIQABgQEBAUEBgUFBgkGBQYJCwgGBggLDAoKCwoK&#xA;DBAMDAwMDAwQDA4PEA8ODBMTFBQTExwbGxscHx8fHx8fHx8fHwEHBwcNDA0YEBAYGhURFRofHx8f&#xA;Hx8fHx8fHx8fHx8fHx8fHx8fHx8fHx8fHx8fHx8fHx8fHx8fHx8fHx8fHx8f/8AAEQgBAADwAwER&#xA;AAIRAQMRAf/EAaIAAAAHAQEBAQEAAAAAAAAAAAQFAwIGAQAHCAkKCwEAAgIDAQEBAQEAAAAAAAAA&#xA;AQACAwQFBgcICQoLEAACAQMDAgQCBgcDBAIGAnMBAgMRBAAFIRIxQVEGE2EicYEUMpGhBxWxQiPB&#xA;UtHhMxZi8CRygvElQzRTkqKyY3PCNUQnk6OzNhdUZHTD0uIIJoMJChgZhJRFRqS0VtNVKBry4/PE&#xA;1OT0ZXWFlaW1xdXl9WZ2hpamtsbW5vY3R1dnd4eXp7fH1+f3OEhYaHiImKi4yNjo+Ck5SVlpeYmZ&#xA;qbnJ2en5KjpKWmp6ipqqusra6voRAAICAQIDBQUEBQYECAMDbQEAAhEDBCESMUEFURNhIgZxgZEy&#xA;obHwFMHR4SNCFVJicvEzJDRDghaSUyWiY7LCB3PSNeJEgxdUkwgJChgZJjZFGidkdFU38qOzwygp&#xA;0+PzhJSktMTU5PRldYWVpbXF1eX1RlZmdoaWprbG1ub2R1dnd4eXp7fH1+f3OEhYaHiImKi4yNjo&#xA;+DlJWWl5iZmpucnZ6fkqOkpaanqKmqq6ytrq+v/aAAwDAQACEQMRAD8A9U4q7FXYq7FXYq7FXYq7&#xA;FXYq7FXYq7FXYq7FXYq7FXYq7FXYq7FXYq7FXYq7FXYq7FXYq7FXYq7FXYq7FXYq7FXYq7FXYq7F&#xA;XYq7FXYq7FXYq7FXYq7FXYq7FXYq7FXYq7FXYq7FXYq7FXYq7FXYq7FXYq7FXYq7FXYq7FXYq7FX&#xA;Yq7FXYq7FXYq7FXYq7FXYq7FXYq7FXYq7FXYq7FXYq7FXYq7FXYq7FXYq7FXYq7FXYq7FXYq7FXY&#xA;q7FXYq7FXYq7FXYq7FXYq7FXYq7FXYq7FXYq7FXYq7FXYq7FXYq7FXYq7FXYq7FXYq7FXYq7FXYq&#xA;7FXYq7FXYq7FXYq7FXYq7FXYq7FXYq7FXYq7FXYq7FXYq7FXYq7FXYq7FXYq7FXYq7FXYq7FXYq7&#xA;FXYq7FXYq7FXYq7FXYq7FXYq7FXYq7FXYq7FXYq7FXYq7FXYq7FXYq7FXYq7FXYq7FXYq7FXYq7F&#xA;XYq7FXYq7FXYq7FXYq7FXYq7FXYq7FXYq7FXYq7FXYq7FXYq7FXYq7FXYq7FXYq7FXYq7FXYq7FX&#xA;Yq7FXYq7FXYq7FXYq7FXYq7FXYq7FXYq7FXYq7FXYq7FXYq7FXYq7FXYq7FXYq7FXYq7FXYq7FXY&#xA;q7FXYq7FXYq7FXYq7FXYq7FXYq7FXYq7FXYq7FXYq7FXYq7FXYq7FXYq7FXYq7FXYq7FXYq7FXYq&#xA;7FXYq7FXYq7FXYq7FXYq7FXYq7FXYq7FXYq7FXYq7FXYq7FXYq7FXYq7FXYq7FXYq7FXYq7FXYq7&#xA;FXYq7FXYq7FXYq7FXYq7FXYq7FXYq7FXYq7FXYq7FXYq7FXYq7FXYq7FXYq7FXYq7FXYq7FXYq7F&#xA;XYq7FXYq7FXYq7FXYq7FXYq7FXYq7FXYq7FXYq7FXYq7FXYq7FXYq7FXYq7FXYq7FXYq7FXYq7FX&#xA;Yq7FXYq7FXYq7FXYq7FXYq7FXYq7FXYq7FXYq7FXYq7FXYq7FXYq7FXYq7FXYq7FXYq7FXYq7FXY&#xA;q7FXYq7FXYq7FXYq7FXYq7FXYq7FXYq7FXYq7FXYq7FXYq7FXYq7FXYq7FXYq7FXYq7FXYq7FXYq&#xA;7FXYq7FXYq7FXYq7FXYq7FXYq7FXYq7FXYq7FXYq7FXYq7FXYq7FXYq7FXYq7FXYq7FXYq7FXYq7&#xA;FXYq7FXYq7FXYq7FXYq7FXYq7FXYq7FXYq7FXYq7FXYq7FXYq7FXYq7FXYq7FXYq7FXYq7FXYq7F&#xA;XYq7FXYq7FXYq7FXYq7FXYq7FXYq7FXYq7FXYq7FXYq7FXYq7FXYq7FXYq7FXYq7FXYq7FXYq7FX&#xA;Yq7FXYq7FXYq7FXYq7FXYq7FXYq7FXYq7FXYq7FXYq7FXYq7FXYq7FXYq7FXYq7FXYq7FXYq7FXY&#xA;q7FXYq7FXYq7FXYq7FXYq7FXYq7FXYq7FXYq7FXYq7FXYq7FXYq7FXYq7FXYq7FXYq7FXYq7FXYq&#xA;7FXYq7FXYq7FXYq7FXYq7FXYq7FXYq7FXYq7FXYq7FXYq7FXYq7FXYq7FXYq7FXYq7FXYq7FXYq7&#xA;FXYq7FXYq7FXYq7FXYq7FXYq7FXYq7FXYq7FXYq7FXYq7FXYq7FXYq7FXYq7FXYq7FXYq7FXYq7F&#xA;XYq7FXYq7FXYq7FXYq7FXYq7FXYq7FXYq7FXYq7FXYq7FXYq7FXYq7FXYq7FXYq7FXYq7FXYq7FX&#xA;Yq7FXYq7FXYq7FXYq7FXYq7FXYq7FXYq7FXYq7FXYq7FXYq7FXYq7FXYq7FXYq7FXYq7FXYq7FXY&#xA;q7FXYq7FXYq7FXYq7FXYq7FXYq7FXYq7FXYq7FXYq7FXYq7FXYq7FXYq7FXYq7FXYq7FXYq7FXYq&#xA;7FXYq7FXYq7FXYq7FXYq7FXYq7FXYq7FXYq7FXYq7FXYq7FXYq7FXYq7FXYq7FXYq7FXYq7FXYq7&#xA;FXYq7FXYq7FXYq7FXYq7FXYq7FXYq7FXYq7FXYq7FXYq7FXYq7FXYq7FXYq7FXYq7FXYq7FXYq7F&#xA;XYq7FXYq7FXYq7FXYq7FXYq7FXYq7FXYq7FXYq7FXYq7FXYq7FXYq7FXYq7FXYq7FXYq7FXYq7FX&#xA;Yq7FXYq7FXYq7FXYq7FXYq7FXYq7FXYq7FXYq7FXYq7FXYq7FXYq7FXYq7FXYq7FXYq7FXYq7FXY&#xA;q7FXYq7FXYq7FXYq7FXYq7FXYq7FXYq7FXYq7FXYq7FXYq7FXYq7FXYq7FXYq7FXYq7FXYq7FXYq&#xA;7FXYq7FXYq7FXYq7FXYq7FXYq7FXYq7FXYq7FXYq7FXYq7FXYq7FXYq7FXYq7FXYq7FXYq7FXYq7&#xA;FXYq7FXYq7FXYq7FXYq7FXYq7FXYq7FXYq7FXYq7FXYq7FXYq7FXYq7FXYq7FXYq7FXYq7FXYq7F&#xA;XYq7FXYq7FXYq7FXYq7FXYq7FX//2Q==</xmpGImg:image>
               </rdf:li>
            </rdf:Alt>
         </xmp:Thumbnails>
      </rdf:Description>
   </rdf:RDF>
</x:xmpmeta>
                                                                                                    
                                                                                                    
                                                                                                    
                                                                                                    
                                                                                                    
                                                                                                    
                                                                                                    
                                                                                                    
                                                                                                    
                                                                                                    
                                                                                                    
                                                                                                    
                                                                                                    
                                                                                                    
                                                                                                    
                                                                                                    
                                                                                                    
                                                                                                    
                                                                                                    
                                                                                                    
                           
<?xpacket end="w"?>
	</metadata>
<g id="UI" style="display:none;">
	<g style="display:inline;">
		<rect x="179.2" y="79.2" style="fill:none;stroke:#353535;stroke-width:2;stroke-miterlimit:10;" width="441.6" height="441.6"/>
		<line style="fill:none;stroke:#353535;stroke-width:2;stroke-miterlimit:10;" x1="179.2" y1="156" x2="620.8" y2="156"/>
		<line style="fill:none;stroke:#353535;stroke-width:2;stroke-miterlimit:10;" x1="592" y1="117.6" x2="572.8" y2="117.6"/>
		<line style="fill:none;stroke:#353535;stroke-width:2;stroke-miterlimit:10;" x1="553.6" y1="117.6" x2="534.4" y2="117.6"/>
		<line style="fill:none;stroke:#353535;stroke-width:2;stroke-miterlimit:10;" x1="515.2" y1="117.6" x2="496" y2="117.6"/>
		<rect x="217.6" y="204" style="fill:none;stroke:#353535;stroke-width:2;stroke-miterlimit:10;" width="96" height="153.6"/>
		<rect x="352" y="204" style="fill:none;stroke:#353535;stroke-width:2;stroke-miterlimit:10;" width="96" height="153.6"/>
		<rect x="486.4" y="204" style="fill:none;stroke:#353535;stroke-width:2;stroke-miterlimit:10;" width="96" height="153.6"/>
		<g>
			<path style="fill:none;stroke:#353535;stroke-width:2;stroke-miterlimit:10;" d="M238.72,434.4c0-0.96,0-1.92,0.96-1.92
				c6.72,2.88,25.92,7.68,45.12-7.68c0,0,23.04-17.28,42.24-3.84c9.6,6.72,12.48,20.16,7.68,31.68l0,0
				c-3.84,8.64-12.48,14.4-22.08,17.28C294.4,473.76,261.76,473.76,238.72,434.4z"/>
			<path style="fill:none;stroke:#353535;stroke-width:2;stroke-miterlimit:10;" d="M413.44,415.2c63.36,0,153.6,12.48,153.6,28.8
				c0,16.32-90.24,28.8-153.6,28.8s-76.8-12.48-76.8-28.8C336.64,427.68,350.08,415.2,413.44,415.2z"/>
		</g>
		<line style="fill:none;stroke:#353535;stroke-width:2;stroke-miterlimit:10;" x1="217.6" y1="117.6" x2="457.6" y2="117.6"/>
	</g>
	
		<text transform="matrix(1 0 0 1 -454.0036 993.5013)" style="enable-background:new    ; font-family:'HelveticaNeue-Bold'; font-size:48;">Created by Dinosoft Labs</text>
	
		<text transform="matrix(1 0 0 1 -454.0036 1041.5013)" style="enable-background:new    ; font-family:'HelveticaNeue-Bold'; font-size:48;">from the Noun Project</text>
</g>
<g id="UX" style="display:none;">
	<path style="display:inline;fill:#3F3F3F;" d="M387.289,172.333L387.289,172.333c-11.52,0-22.56,5.28-30.72,13.44
		c-8.16,8.16-12.48,19.2-12.48,31.2c0,9.12,2.88,15.36,2.88,15.36v0.48c2.88,6.72,5.76,12.96,8.16,18.24
		c5.28,11.52,9.12,20.64,11.52,28.8c1.44,5.28,4.32,22.56,4.32,23.04c0.48,1.44,1.92,3.84,3.36,3.84l0,0h25.44
		c1.92,0,3.36-1.92,3.36-3.36c0-0.48,2.4-17.76,4.32-23.04c2.4-8.64,6.72-17.76,11.52-29.28c2.4-5.76,5.28-11.52,8.16-18.24l0,0
		c1.44-2.88,2.88-7.68,2.88-15.36c0-11.52-4.8-23.04-12.96-31.2C409.369,177.613,398.809,172.333,387.289,172.333z M387.289,192.493
		c-6.24,0-11.52,2.4-15.84,6.72c-4.32,4.32-6.72,10.08-6.72,15.84c0,4.8,1.44,7.68,1.44,7.68c0.96,2.4,0,5.28-2.4,6.24
		c-0.48,0.48-1.44,0.48-1.92,0.48c-1.92,0-3.36-0.96-4.32-2.88c0-0.48-2.4-4.8-2.4-12c0-8.64,3.36-17.28,9.12-23.52
		c6.24-6.24,13.92-10.08,22.56-10.08l0,0c2.88,0,4.8,2.88,4.8,5.28C392.089,190.093,389.689,192.493,387.289,192.493z"/>
	<path style="display:inline;fill:#3F3F3F;" d="M555.289,267.372c-3.36-4.32-6.24-8.64-7.68-11.52c-6.72-11.52-7.2-12.96-4.8-25.92
		c2.4-12-0.96-23.52-4.32-35.52c-0.96-3.84-1.92-7.2-2.88-11.04l-0.48-1.92c-19.2-81.12-91.2-98.88-148.32-99.84
		c-126.24-1.92-158.88,105.12-160.32,142.56c-0.96,34.56,17.28,78.72,30.24,97.44c12.48,17.76,21.6,54.24,23.04,88.8
		c0.96,30.72-34.08,90.24-39.36,99.36c-1.92,2.88-0.48,8.64,4.8,8.64h204.48c5.76,0,6.72-5.28,6.72-7.2
		c0-12.48,2.4-20.64,4.32-27.84c1.92-7.2,3.84-13.44,2.4-21.12c-2.88-15.36,0.96-29.76,9.6-36.96c3.84-3.36,19.2-5.28,31.2-6.72
		c12.48-1.44,23.52-2.88,29.28-6.24c13.44-7.2,11.52-29.28,9.6-34.56c0-0.48-0.48-0.96-0.48-1.44c-0.96-2.88-1.92-4.8,1.44-8.16
		c6.72-6.72,6.24-12.96,3.84-18.24c1.92-1.92,3.84-3.84,4.8-6.24c0.96-2.88,1.92-7.2-0.48-12.96c-0.96-2.4-1.44-4.32-0.48-5.28
		c0.96-1.92,3.84-3.36,5.76-4.32c8.16-2.88,16.8-6.72,16.32-20.64C572.569,292.333,565.369,281.773,555.289,267.372z
		 M419.449,154.573l9.6-16.8c1.44-2.4,4.32-2.88,6.72-1.92c2.4,1.44,2.88,4.32,1.92,6.72l-9.6,16.8c-0.96,1.44-2.4,2.4-4.32,2.4
		c-0.96,0-1.44,0-2.4-0.48C418.969,159.853,418.009,156.973,419.449,154.573z M382.009,129.133c0-2.88,1.92-4.8,4.8-4.8
		s4.8,1.92,4.8,4.8v19.2c0,2.88-1.92,4.8-4.8,4.8s-4.8-1.92-4.8-4.8V129.133z M339.289,136.813c2.4-1.44,5.28-0.48,6.72,1.92
		l9.6,16.8c1.44,2.4,0.48,5.28-1.92,6.72c-0.96,0.48-1.44,0.48-2.4,0.48c-1.44,0-3.36-0.96-4.32-2.4l-9.6-16.8
		C336.409,141.133,336.889,138.253,339.289,136.813z M290.809,220.333c0-2.88,1.92-4.8,4.8-4.8h19.2c2.88,0,4.8,1.92,4.8,4.8
		c0,2.88-1.92,4.8-4.8,4.8h-19.2C292.729,225.133,290.809,223.213,290.809,220.333z M327.289,260.173l-16.8,9.6
		c-0.96,0.48-1.44,0.48-2.4,0.48c-1.44,0-3.36-0.96-4.32-2.4c-1.44-2.4-0.48-5.28,1.92-6.72l16.8-9.6c2.4-1.44,5.28-0.48,6.72,1.92
		C330.649,255.853,329.689,258.733,327.289,260.173z M329.209,185.773c-0.96,1.44-2.4,2.4-4.32,2.4c-0.96,0-1.44,0-2.4-0.48
		l-16.8-9.6c-2.4-1.44-2.88-4.32-1.92-6.72c1.44-2.4,4.32-2.88,6.72-1.92l16.8,9.6C329.689,180.493,330.649,183.373,329.209,185.773
		z M400.249,339.853l-5.76,8.16c-0.96,0.96-2.4,2.4-3.84,2.4h-7.2c-1.44,0-2.4-0.96-3.84-2.4l-5.28-8.16c-0.96-1.92,0-3.84,2.4-3.84
		h22.08C400.249,335.533,401.209,337.933,400.249,339.853z M401.209,330.733h-28.8c-2.88,0-4.8-1.92-4.8-4.8
		c0-2.88,1.92-4.8,4.8-4.8h28.8c2.88,0,4.8,1.92,4.8,4.8C406.009,328.813,404.089,330.733,401.209,330.733z M436.729,235.693
		C436.729,235.693,436.729,236.173,436.729,235.693c-2.88,7.2-5.76,13.44-8.16,19.2c-4.8,11.04-8.64,20.16-11.04,27.84
		c-1.44,3.84-3.36,17.28-3.84,22.08c-1.44,6.24-6.72,12-12.96,12h-25.44l0,0c-6.24,0-11.52-5.28-12.96-11.52
		c-0.96-4.8-2.88-17.28-4.32-21.6c-2.4-7.68-6.24-16.8-11.52-27.84c-2.4-5.76-5.28-12-8.16-18.72l0,0
		c-0.48-1.44-3.36-8.64-3.84-19.2c0-13.92,5.28-28.32,15.36-38.4c10.08-10.08,23.04-16.32,37.44-16.32l0,0
		c13.92,0,27.36,6.24,37.44,16.32c10.08,10.08,15.36,23.52,15.36,37.44C440.089,225.613,438.169,231.853,436.729,235.693z
		 M447.289,179.533l16.8-9.6c2.4-1.44,5.28-0.48,6.72,1.92c1.44,2.4,0.48,5.28-1.92,6.72l-16.8,9.6c-0.96,0.48-1.44,0.48-2.4,0.48
		c-1.44,0-3.36-0.96-4.32-2.4C444.409,183.853,444.889,180.973,447.289,179.533z M470.809,267.372c-0.96,1.44-2.4,2.4-4.32,2.4
		c-0.96,0-1.44,0-2.4-0.48l-16.8-9.6c-2.4-1.44-2.88-4.32-1.92-6.72c1.44-2.4,4.32-2.88,6.72-1.92l16.8,9.6
		C471.289,262.093,472.249,264.973,470.809,267.372z M478.009,225.133h-19.2c-2.88,0-4.8-1.92-4.8-4.8c0-2.88,1.92-4.8,4.8-4.8h19.2
		c2.88,0,4.8,1.92,4.8,4.8C482.809,223.213,480.889,225.133,478.009,225.133z"/>
</g>
<g id="Motion">
	<path style="fill:#FFFFFF;" d="M566.219,81.587l55.603,111.206h-83.405L482.814,81.587h-55.603l55.603,111.206h-83.405
		L343.806,81.587h-55.603l55.603,111.206h-83.405L204.798,81.587h-27.802c-30.582,0-55.325,25.021-55.325,55.603l-0.278,333.619
		c0,30.582,25.021,55.603,55.603,55.603h444.826c30.582,0,55.603-25.021,55.603-55.603V81.587H566.219z"/>
	<path style="fill:none;" d="M123,128h606v606H123V128z"/>
</g>
</svg>
