<?xml version="1.0" encoding="iso-8859-1"?>
<!-- Generator: Adobe Illustrator 19.1.0, SVG Export Plug-In . SVG Version: 6.00 Build 0)  -->
<svg version="1.1" id="Calque_1" xmlns="http://www.w3.org/2000/svg" xmlns:xlink="http://www.w3.org/1999/xlink" x="0px" y="0px"
	 viewBox="0 0 300 300" style="enable-background:new 0 0 300 300;" xml:space="preserve">
<g>
	<path style="fill:#FFFFFF;" d="M76.392,53.712c12.694-0.022,23.189,10.432,23.197,23.192c0.006,13.357-11.052,23.453-23.23,23.198
		C64.01,100.384,53.128,90.098,53.096,76.94C53.062,64.177,63.543,53.738,76.392,53.712L76.392,53.712z M76.392,53.712"/>
	<path style="fill:#FFFFFF;" d="M90.393,246.614l-27.194,0.073c-3.531,0.009-6.402-2.843-6.411-6.373l-0.311-116.023
		c-0.009-3.531,2.846-6.398,6.377-6.407l27.194-0.073c3.531-0.009,6.401,2.842,6.41,6.373l0.311,116.023
		C96.779,243.737,93.924,246.605,90.393,246.614L90.393,246.614z M90.393,246.614"/>
	<path style="fill:#FFFFFF;" d="M246.728,158.141c-0.065-24.323-19.836-43.988-44.161-43.922l-6.975,0.019
		c-13.306,0.036-25.045,6.707-32.091,16.876c-0.769,1.107-1.479,2.258-2.131,3.445c-0.226-0.032-0.36-0.05-0.363-0.044
		l-0.038-14.241c-0.004-1.464-1.195-2.651-2.662-2.647l-33.932,0.091c-1.464,0.004-2.648,1.195-2.644,2.662l0.331,123.5
		c0.004,1.464,1.192,2.648,2.659,2.647l34.672-0.084c1.463-0.004,2.648-1.195,2.644-2.662l-0.191-71.35
		c-0.033-12.332,9.777-22.6,22.109-22.773c6.295-0.088,12.009,2.421,16.136,6.526c4.07,4.045,6.595,9.648,6.611,15.842l0.192,71.644
		c0.004,1.464,1.195,2.648,2.659,2.647l34.758-0.087c1.463-0.001,2.648-1.191,2.644-2.659l-0.229-85.429L246.728,158.141z
		 M246.728,158.141"/>
</g>
</svg>
