<?xml version="1.0" encoding="iso-8859-1"?>
<!-- Generator: Adobe Illustrator 17.1.0, SVG Export Plug-In . SVG Version: 6.00 Build 0)  -->
<!DOCTYPE svg PUBLIC "-//W3C//DTD SVG 1.1//EN" "http://www.w3.org/Graphics/SVG/1.1/DTD/svg11.dtd">
<svg version="1.1" id="Layer_1" xmlns="http://www.w3.org/2000/svg" xmlns:xlink="http://www.w3.org/1999/xlink" x="0px" y="0px"
	 viewBox="0 0 136 136" style="enable-background:new 0 0 136 136;" xml:space="preserve">
<rect x="181.102" y="200.096" width="530.973" height="275.986"/>
<path style="fill-rule:evenodd;clip-rule:evenodd;fill:#4078C0;" d="M333.71,31.537c-8.995,0-16.288,7.293-16.288,16.29
	c0,7.196,4.667,13.302,11.141,15.456c0.815,0.149,1.112-0.354,1.112-0.785c0-0.387-0.014-1.411-0.022-2.771
	c-4.531,0.984-5.487-2.184-5.487-2.184c-0.741-1.882-1.809-2.383-1.809-2.383c-1.479-1.011,0.112-0.99,0.112-0.99
	c1.635,0.115,2.495,1.679,2.495,1.679c1.453,2.489,3.812,1.77,4.741,1.353c0.148-1.053,0.569-1.771,1.034-2.178
	c-3.617-0.411-7.42-1.809-7.42-8.051c0-1.778,0.635-3.232,1.677-4.371c-0.167-0.412-0.727-2.068,0.16-4.311
	c0,0,1.368-0.438,4.48,1.67c1.299-0.361,2.693-0.542,4.078-0.548c1.383,0.006,2.777,0.187,4.078,0.548
	c3.11-2.108,4.475-1.67,4.475-1.67c0.889,2.243,0.33,3.899,0.162,4.311c1.044,1.139,1.674,2.593,1.674,4.371
	c0,6.258-3.809,7.635-7.438,8.038c0.585,0.503,1.106,1.497,1.106,3.017c0,2.178-0.02,3.935-0.02,4.469
	c0,0.436,0.293,0.942,1.12,0.783c6.467-2.158,11.13-8.26,11.13-15.454C350.001,38.83,342.707,31.537,333.71,31.537z"/>
<g>
	<path style="fill-rule:evenodd;clip-rule:evenodd;fill:#4078C0;" d="M69,9.31c-33.347,0-60.388,27.035-60.388,60.388
		c0,26.681,17.303,49.316,41.297,57.302c3.018,0.559,4.126-1.31,4.126-2.905c0-1.439-0.056-6.197-0.082-11.243
		c-16.8,3.653-20.345-7.125-20.345-7.125c-2.747-6.979-6.705-8.836-6.705-8.836c-5.479-3.748,0.413-3.671,0.413-3.671
		c6.063,0.426,9.257,6.224,9.257,6.224c5.386,9.231,14.127,6.562,17.573,5.02c0.542-3.902,2.106-6.567,3.834-8.075
		c-13.413-1.526-27.514-6.705-27.514-29.844c0-6.593,2.359-11.98,6.223-16.209c-0.627-1.521-2.694-7.663,0.585-15.981
		c0,0,5.071-1.622,16.61,6.191c4.817-1.338,9.983-2.009,15.115-2.033c5.132,0.023,10.302,0.694,15.128,2.033
		c11.526-7.813,16.59-6.191,16.59-6.191c3.287,8.318,1.22,14.46,0.593,15.981c3.872,4.229,6.215,9.616,6.215,16.209
		c0,23.194-14.127,28.301-27.574,29.796c2.166,1.874,4.096,5.549,4.096,11.183c0,8.08-0.069,14.583-0.069,16.572
		c0,1.607,1.087,3.49,4.147,2.897c23.981-7.994,41.263-30.622,41.263-57.294C129.388,36.346,102.351,9.31,69,9.31z"/>
	<path style="fill:4078C0;" d="M31.484,96.014c-0.133,0.301-0.605,0.391-1.035,0.185c-0.439-0.197-0.684-0.606-0.542-0.907
		c0.13-0.309,0.602-0.395,1.04-0.188C31.386,95.3,31.636,95.713,31.484,96.014L31.484,96.014z M30.741,95.463"/>
	<path style="fill:4078C0;" d="M33.931,98.742c-0.288,0.267-0.852,0.143-1.233-0.279c-0.396-0.421-0.469-0.984-0.177-1.255
		c0.297-0.267,0.843-0.142,1.238,0.279C34.154,97.913,34.232,98.472,33.931,98.742L33.931,98.742z M33.355,98.124"/>
	<path style="fill:4078C0;" d="M36.312,102.22c-0.37,0.258-0.976,0.017-1.35-0.521c-0.37-0.537-0.37-1.182,0.009-1.439
		c0.374-0.258,0.971-0.025,1.35,0.507C36.69,101.312,36.69,101.957,36.312,102.22L36.312,102.22z M36.312,102.22"/>
	<path style="fill:4078C0;" d="M39.573,105.58c-0.331,0.365-1.036,0.267-1.552-0.231c-0.528-0.486-0.675-1.178-0.344-1.543
		c0.336-0.365,1.045-0.263,1.564,0.231C39.767,104.523,39.926,105.219,39.573,105.58L39.573,105.58z M39.573,105.58"/>
	<path style="fill:4078C0;" d="M44.073,107.531c-0.146,0.473-0.825,0.688-1.509,0.486c-0.684-0.207-1.13-0.761-0.992-1.238
		c0.142-0.477,0.824-0.7,1.513-0.485C43.768,106.5,44.215,107.05,44.073,107.531L44.073,107.531z M44.073,107.531"/>
	<path style="fill:4078C0;" d="M49.016,107.892c0.017,0.498-0.563,0.911-1.281,0.92c-0.722,0.017-1.307-0.387-1.314-0.877
		c0-0.503,0.567-0.911,1.289-0.924C48.427,106.998,49.016,107.398,49.016,107.892L49.016,107.892z M49.016,107.892"/>
	<path style="fill:4078C0;" d="M53.614,107.11c0.086,0.485-0.413,0.984-1.126,1.117c-0.701,0.129-1.35-0.172-1.439-0.653
		c-0.087-0.498,0.421-0.997,1.121-1.126C52.884,106.324,53.524,106.616,53.614,107.11L53.614,107.11z M53.614,107.11"/>
</g>
<g>
	<g>
		
			<line style="fill:none;stroke:#147EBC;stroke-linecap:round;stroke-miterlimit:10;" x1="406" y1="-23.406" x2="406" y2="-22.906"/>
		
			<line style="fill:none;stroke:#147EBC;stroke-linecap:round;stroke-miterlimit:10;stroke-dasharray:0.9999,1.9999;" x1="406" y1="-20.906" x2="406" y2="113.087"/>
		
			<line style="fill:none;stroke:#147EBC;stroke-linecap:round;stroke-miterlimit:10;" x1="406" y1="114.087" x2="406" y2="114.587"/>
	</g>
</g>
<g>
	<path style="fill:#0069B4;" d="M314.378,128.602c-0.38-0.276-0.866-0.414-1.458-0.414c-0.24,0-0.476,0.024-0.708,0.071
		c-0.232,0.049-0.438,0.129-0.618,0.24c-0.18,0.113-0.324,0.263-0.432,0.451c-0.108,0.188-0.162,0.422-0.162,0.701
		c0,0.264,0.078,0.479,0.234,0.643c0.156,0.164,0.364,0.298,0.624,0.401c0.26,0.104,0.554,0.19,0.882,0.259
		c0.328,0.067,0.662,0.142,1.002,0.221c0.34,0.08,0.674,0.175,1.002,0.283c0.328,0.107,0.622,0.254,0.882,0.438
		c0.26,0.184,0.468,0.416,0.624,0.695c0.156,0.281,0.234,0.633,0.234,1.057c0,0.456-0.102,0.846-0.306,1.17
		c-0.204,0.324-0.466,0.588-0.786,0.792c-0.32,0.204-0.678,0.353-1.074,0.444s-0.79,0.138-1.182,0.138
		c-0.48,0-0.934-0.06-1.362-0.18c-0.428-0.12-0.804-0.302-1.128-0.546c-0.324-0.244-0.58-0.557-0.768-0.936
		c-0.188-0.38-0.282-0.829-0.282-1.35h1.08c0,0.36,0.07,0.67,0.21,0.93c0.14,0.261,0.324,0.474,0.552,0.642
		c0.228,0.168,0.494,0.293,0.798,0.373c0.304,0.08,0.616,0.119,0.936,0.119c0.256,0,0.514-0.023,0.774-0.072
		c0.26-0.047,0.494-0.129,0.702-0.246c0.208-0.115,0.376-0.273,0.504-0.473c0.128-0.201,0.192-0.457,0.192-0.768
		c0-0.296-0.078-0.536-0.234-0.72c-0.156-0.184-0.364-0.334-0.624-0.45c-0.26-0.116-0.554-0.21-0.882-0.282
		c-0.328-0.072-0.662-0.146-1.002-0.223c-0.34-0.075-0.674-0.163-1.002-0.264c-0.328-0.1-0.623-0.231-0.882-0.395
		c-0.26-0.164-0.468-0.376-0.624-0.636c-0.156-0.26-0.234-0.586-0.234-0.979c0-0.432,0.088-0.806,0.264-1.122
		c0.176-0.316,0.41-0.575,0.702-0.78c0.292-0.203,0.624-0.355,0.996-0.455c0.372-0.101,0.754-0.15,1.146-0.15
		c0.44,0,0.848,0.053,1.224,0.156c0.376,0.103,0.706,0.267,0.99,0.492c0.284,0.224,0.508,0.506,0.672,0.846
		c0.164,0.34,0.254,0.746,0.27,1.218h-1.08C314.979,129.324,314.758,128.879,314.378,128.602z"/>
	<path style="fill:#0069B4;" d="M318.656,129.797v0.912h0.024c0.464-0.705,1.132-1.057,2.004-1.057c0.384,0,0.732,0.08,1.044,0.24
		c0.312,0.16,0.532,0.432,0.66,0.816c0.208-0.336,0.482-0.596,0.822-0.78c0.34-0.185,0.714-0.276,1.121-0.276
		c0.312,0,0.594,0.034,0.846,0.102c0.252,0.068,0.468,0.175,0.648,0.318c0.18,0.145,0.32,0.33,0.42,0.559
		c0.1,0.227,0.15,0.502,0.15,0.822V136h-1.02v-4.067c0-0.192-0.017-0.372-0.048-0.54c-0.032-0.168-0.092-0.314-0.18-0.438
		c-0.088-0.125-0.21-0.223-0.366-0.295c-0.156-0.072-0.358-0.107-0.606-0.107c-0.504,0-0.9,0.144-1.188,0.432
		c-0.288,0.288-0.432,0.672-0.432,1.152V136h-1.02v-4.067c0-0.2-0.018-0.384-0.054-0.552c-0.036-0.168-0.098-0.314-0.186-0.439
		c-0.088-0.124-0.206-0.22-0.354-0.288c-0.148-0.068-0.338-0.102-0.57-0.102c-0.296,0-0.55,0.06-0.762,0.18
		c-0.212,0.12-0.384,0.264-0.516,0.432c-0.132,0.168-0.228,0.342-0.288,0.522c-0.06,0.181-0.09,0.33-0.09,0.45V136h-1.02v-6.203
		H318.656z"/>
	<path style="fill:#0069B4;" d="M332.696,136.133c-0.264,0-0.474-0.074-0.63-0.223c-0.156-0.148-0.234-0.39-0.234-0.726
		c-0.28,0.336-0.606,0.578-0.978,0.726c-0.372,0.148-0.774,0.223-1.206,0.223c-0.28,0-0.544-0.03-0.792-0.09
		c-0.248-0.061-0.466-0.16-0.654-0.301c-0.188-0.14-0.336-0.319-0.444-0.539c-0.108-0.221-0.162-0.486-0.162-0.799
		c0-0.352,0.06-0.64,0.18-0.863c0.12-0.225,0.278-0.406,0.474-0.547c0.196-0.14,0.42-0.246,0.672-0.318
		c0.252-0.071,0.51-0.131,0.774-0.18c0.28-0.056,0.546-0.098,0.798-0.125c0.252-0.028,0.474-0.068,0.666-0.121
		c0.192-0.051,0.344-0.127,0.456-0.227c0.112-0.101,0.168-0.246,0.168-0.439c0-0.223-0.042-0.403-0.126-0.539
		c-0.084-0.137-0.192-0.24-0.324-0.312c-0.132-0.072-0.28-0.12-0.444-0.145c-0.164-0.023-0.326-0.035-0.486-0.035
		c-0.432,0-0.792,0.082-1.08,0.246c-0.288,0.164-0.444,0.474-0.468,0.93h-1.02c0.016-0.384,0.096-0.708,0.24-0.973
		c0.144-0.264,0.336-0.478,0.576-0.642c0.24-0.163,0.516-0.282,0.828-0.355c0.312-0.071,0.64-0.107,0.984-0.107
		c0.28,0,0.558,0.02,0.834,0.061c0.276,0.039,0.526,0.121,0.75,0.246c0.224,0.123,0.404,0.298,0.54,0.521
		c0.136,0.225,0.204,0.516,0.204,0.876v3.192c0,0.24,0.014,0.416,0.042,0.527c0.028,0.112,0.122,0.168,0.282,0.168
		c0.088,0,0.192-0.02,0.312-0.059v0.792C333.251,136.08,333.008,136.133,332.696,136.133z M331.268,133.006
		c-0.208,0.045-0.426,0.08-0.654,0.108c-0.228,0.028-0.458,0.059-0.69,0.097c-0.232,0.035-0.44,0.094-0.624,0.174
		c-0.185,0.08-0.335,0.193-0.45,0.342c-0.116,0.148-0.174,0.35-0.174,0.605c0,0.168,0.034,0.311,0.102,0.426
		c0.068,0.117,0.156,0.211,0.264,0.283c0.108,0.071,0.236,0.123,0.384,0.155c0.148,0.032,0.298,0.048,0.45,0.048
		c0.336,0,0.624-0.045,0.864-0.138c0.24-0.092,0.436-0.208,0.588-0.349c0.152-0.139,0.264-0.291,0.336-0.455
		c0.072-0.164,0.108-0.318,0.108-0.463v-1.043C331.644,132.893,331.476,132.963,331.268,133.006z"/>
	<path style="fill:#0069B4;" d="M335.456,127.433V136h-1.02v-8.567H335.456z"/>
	<path style="fill:#0069B4;" d="M338.12,127.433V136h-1.02v-8.567H338.12z"/>
	<path style="fill:#0069B4;" d="M282.956,145.096v-0.899H284v-0.924c0-0.504,0.146-0.886,0.438-1.146
		c0.292-0.26,0.718-0.391,1.278-0.391c0.096,0,0.206,0.008,0.33,0.023c0.124,0.017,0.234,0.041,0.33,0.072v0.889
		c-0.088-0.032-0.184-0.055-0.288-0.066s-0.2-0.018-0.288-0.018c-0.248,0-0.44,0.048-0.576,0.144
		c-0.136,0.097-0.204,0.28-0.204,0.552v0.864h1.2v0.899h-1.2v5.305H284v-5.305H282.956z"/>
	<path style="fill:#0069B4;" d="M286.988,146.026c0.128-0.395,0.32-0.739,0.576-1.032c0.256-0.291,0.572-0.521,0.948-0.689
		s0.808-0.252,1.296-0.252c0.496,0,0.93,0.084,1.302,0.252c0.372,0.168,0.686,0.398,0.942,0.689
		c0.256,0.293,0.448,0.637,0.576,1.032c0.128,0.396,0.192,0.822,0.192,1.278c0,0.455-0.064,0.88-0.192,1.271
		c-0.128,0.393-0.32,0.734-0.576,1.026c-0.256,0.292-0.57,0.521-0.942,0.685c-0.372,0.163-0.806,0.245-1.302,0.245
		c-0.488,0-0.92-0.082-1.296-0.245c-0.376-0.164-0.692-0.393-0.948-0.685c-0.256-0.292-0.448-0.634-0.576-1.026
		c-0.128-0.392-0.192-0.816-0.192-1.271C286.796,146.849,286.86,146.422,286.988,146.026z M288.026,148.307
		c0.1,0.292,0.238,0.535,0.414,0.732c0.176,0.195,0.382,0.346,0.618,0.449c0.236,0.104,0.486,0.156,0.75,0.156
		c0.264,0,0.514-0.053,0.75-0.156c0.236-0.104,0.442-0.254,0.618-0.449c0.176-0.197,0.314-0.44,0.414-0.732
		c0.1-0.292,0.15-0.626,0.15-1.002c0-0.377-0.05-0.71-0.15-1.002c-0.1-0.293-0.238-0.538-0.414-0.738
		c-0.176-0.199-0.382-0.352-0.618-0.456c-0.236-0.104-0.486-0.156-0.75-0.156c-0.264,0-0.514,0.052-0.75,0.156
		c-0.236,0.105-0.442,0.257-0.618,0.456c-0.176,0.2-0.314,0.445-0.414,0.738c-0.1,0.292-0.15,0.625-0.15,1.002
		C287.876,147.681,287.926,148.015,288.026,148.307z"/>
	<path style="fill:#0069B4;" d="M294.944,144.196v1.308h0.024c0.248-0.504,0.552-0.875,0.912-1.115
		c0.36-0.24,0.816-0.352,1.368-0.336v1.08c-0.408,0-0.756,0.056-1.044,0.168c-0.288,0.111-0.521,0.275-0.696,0.492
		c-0.176,0.215-0.304,0.477-0.384,0.785c-0.08,0.309-0.12,0.662-0.12,1.062v2.76h-1.02v-6.204H294.944z"/>
	<path style="fill:#0069B4;" d="M303.835,150.4v-6.096h-2.208v-0.816c0.288,0,0.568-0.021,0.84-0.066
		c0.272-0.043,0.518-0.125,0.738-0.246c0.22-0.119,0.406-0.283,0.558-0.491c0.152-0.208,0.256-0.472,0.312-0.792h0.78v8.508H303.835
		z"/>
	<path style="fill:#0069B4;" d="M311.78,143.141c-0.248-0.232-0.576-0.348-0.984-0.348c-0.432,0-0.78,0.105-1.044,0.317
		c-0.264,0.212-0.47,0.479-0.618,0.804c-0.148,0.324-0.25,0.674-0.306,1.051c-0.056,0.375-0.088,0.728-0.096,1.056l0.024,0.024
		c0.24-0.393,0.538-0.676,0.894-0.853c0.356-0.176,0.766-0.265,1.23-0.265c0.408,0,0.774,0.07,1.098,0.211
		c0.324,0.14,0.596,0.334,0.816,0.582c0.22,0.248,0.39,0.539,0.51,0.875c0.12,0.337,0.18,0.701,0.18,1.093
		c0,0.311-0.048,0.636-0.144,0.972c-0.096,0.336-0.254,0.643-0.474,0.918c-0.22,0.276-0.512,0.504-0.876,0.684
		c-0.364,0.181-0.814,0.27-1.35,0.27c-0.632,0-1.14-0.128-1.524-0.384c-0.384-0.256-0.68-0.584-0.888-0.984
		c-0.208-0.399-0.346-0.84-0.414-1.32c-0.068-0.479-0.102-0.943-0.102-1.392c0-0.583,0.05-1.149,0.15-1.698
		c0.1-0.547,0.27-1.033,0.51-1.457c0.24-0.424,0.559-0.764,0.96-1.021c0.4-0.256,0.904-0.384,1.512-0.384
		c0.704,0,1.264,0.186,1.68,0.558c0.416,0.372,0.656,0.91,0.72,1.614h-1.02C312.176,143.68,312.028,143.373,311.78,143.141z
		 M309.932,145.979c-0.216,0.1-0.4,0.236-0.552,0.408c-0.152,0.172-0.266,0.376-0.342,0.611c-0.076,0.236-0.114,0.486-0.114,0.75
		c0,0.264,0.04,0.512,0.12,0.744c0.08,0.232,0.194,0.432,0.342,0.6c0.148,0.168,0.332,0.303,0.552,0.402
		c0.22,0.101,0.47,0.15,0.75,0.15c0.28,0,0.526-0.05,0.738-0.15c0.212-0.1,0.39-0.238,0.534-0.414
		c0.144-0.176,0.254-0.378,0.33-0.605c0.076-0.229,0.114-0.467,0.114-0.715c0-0.264-0.034-0.514-0.102-0.75
		c-0.068-0.235-0.174-0.439-0.318-0.611c-0.144-0.172-0.324-0.311-0.54-0.414c-0.216-0.104-0.468-0.156-0.756-0.156
		C310.4,145.828,310.148,145.879,309.932,145.979z"/>
	<path style="fill:#0069B4;" d="M315.752,144.196v0.841h0.024c0.168-0.345,0.432-0.595,0.792-0.75
		c0.36-0.156,0.756-0.234,1.188-0.234c0.48,0,0.898,0.088,1.254,0.264c0.356,0.176,0.652,0.414,0.888,0.714
		c0.236,0.3,0.414,0.646,0.534,1.038c0.12,0.393,0.18,0.809,0.18,1.248c0,0.439-0.058,0.855-0.174,1.248
		c-0.116,0.393-0.292,0.734-0.528,1.025c-0.236,0.293-0.532,0.523-0.888,0.691c-0.357,0.168-0.771,0.252-1.242,0.252
		c-0.152,0-0.322-0.017-0.51-0.048c-0.188-0.032-0.374-0.084-0.558-0.156c-0.184-0.072-0.358-0.17-0.522-0.294
		c-0.164-0.124-0.302-0.278-0.414-0.462h-0.024v3.191h-1.02v-8.567H315.752z M319.418,146.398c-0.076-0.275-0.192-0.521-0.348-0.738
		c-0.156-0.216-0.356-0.388-0.6-0.516c-0.244-0.128-0.53-0.192-0.858-0.192c-0.344,0-0.636,0.068-0.876,0.204
		c-0.24,0.137-0.436,0.314-0.588,0.534c-0.152,0.22-0.262,0.47-0.33,0.75c-0.068,0.28-0.102,0.564-0.102,0.853
		c0,0.304,0.036,0.598,0.108,0.881c0.072,0.285,0.186,0.535,0.342,0.75c0.156,0.217,0.358,0.391,0.607,0.523
		c0.247,0.132,0.548,0.198,0.9,0.198c0.352,0,0.646-0.068,0.882-0.204c0.236-0.136,0.426-0.315,0.57-0.54
		c0.144-0.224,0.248-0.48,0.312-0.768c0.064-0.289,0.096-0.584,0.096-0.889C319.532,146.957,319.494,146.674,319.418,146.398z"/>
	<path style="fill:#0069B4;" d="M321.319,144.196h1.308l1.488,2.172l1.548-2.172h1.224l-2.136,2.856l2.4,3.348h-1.308l-1.728-2.568
		l-1.728,2.568h-1.236l2.328-3.264L321.319,144.196z"/>
	<path style="fill:#0069B4;" d="M331.327,146.584v0.961h-3.468v-0.961H331.327z"/>
	<path style="fill:#0069B4;" d="M335.179,150.4v-6.096h-2.208v-0.816c0.288,0,0.568-0.021,0.84-0.066
		c0.272-0.043,0.518-0.125,0.738-0.246c0.22-0.119,0.406-0.283,0.558-0.491c0.152-0.208,0.256-0.472,0.312-0.792h0.78v8.508H335.179
		z"/>
	<path style="fill:#0069B4;" d="M339.259,143.705c0.112-0.369,0.286-0.686,0.522-0.955c0.236-0.268,0.53-0.477,0.882-0.629
		c0.352-0.152,0.752-0.229,1.2-0.229c0.368,0,0.714,0.054,1.038,0.162c0.324,0.107,0.606,0.264,0.846,0.468
		c0.24,0.204,0.43,0.458,0.57,0.762c0.14,0.304,0.21,0.656,0.21,1.056c0,0.377-0.058,0.709-0.174,0.996
		c-0.116,0.289-0.27,0.547-0.462,0.774c-0.192,0.228-0.412,0.435-0.66,0.618c-0.248,0.184-0.504,0.359-0.768,0.527
		c-0.264,0.16-0.528,0.318-0.792,0.475c-0.264,0.156-0.506,0.322-0.726,0.498c-0.22,0.176-0.408,0.365-0.564,0.57
		c-0.156,0.203-0.258,0.438-0.306,0.701h4.368v0.9h-5.556c0.04-0.504,0.13-0.934,0.27-1.29c0.14-0.356,0.318-0.666,0.534-0.931
		c0.216-0.264,0.46-0.495,0.732-0.695c0.272-0.199,0.556-0.388,0.852-0.564c0.36-0.224,0.676-0.43,0.948-0.617
		c0.272-0.188,0.498-0.379,0.678-0.57c0.18-0.191,0.316-0.4,0.408-0.624s0.138-0.483,0.138-0.78c0-0.231-0.044-0.441-0.132-0.63
		c-0.088-0.188-0.206-0.35-0.354-0.485c-0.148-0.137-0.322-0.24-0.522-0.312c-0.2-0.072-0.412-0.107-0.636-0.107
		c-0.296,0-0.55,0.062-0.762,0.186c-0.212,0.124-0.386,0.286-0.522,0.486c-0.136,0.199-0.234,0.426-0.294,0.678
		c-0.06,0.252-0.086,0.506-0.078,0.762h-1.02C339.103,144.473,339.147,144.072,339.259,143.705z"/>
	<path style="fill:#0069B4;" d="M345.799,145.252c0.016-0.336,0.056-0.664,0.12-0.983c0.064-0.319,0.156-0.624,0.276-0.912
		c0.12-0.288,0.284-0.54,0.492-0.756s0.47-0.388,0.786-0.517c0.316-0.127,0.694-0.191,1.134-0.191c0.44,0,0.818,0.064,1.134,0.191
		c0.316,0.129,0.578,0.301,0.786,0.517c0.208,0.216,0.372,0.468,0.492,0.756c0.12,0.288,0.212,0.593,0.276,0.912
		c0.064,0.319,0.104,0.647,0.12,0.983c0.016,0.336,0.024,0.66,0.024,0.973s-0.008,0.636-0.024,0.972
		c-0.016,0.336-0.056,0.664-0.12,0.983c-0.064,0.32-0.156,0.623-0.276,0.906c-0.12,0.285-0.284,0.535-0.492,0.75
		c-0.208,0.217-0.468,0.387-0.78,0.51c-0.312,0.125-0.692,0.186-1.14,0.186c-0.44,0-0.818-0.061-1.134-0.186
		c-0.316-0.123-0.578-0.293-0.786-0.51c-0.208-0.215-0.372-0.465-0.492-0.75c-0.12-0.283-0.212-0.586-0.276-0.906
		c-0.064-0.319-0.104-0.648-0.12-0.983c-0.016-0.336-0.024-0.659-0.024-0.972S345.783,145.588,345.799,145.252z M346.885,147.287
		c0.02,0.396,0.084,0.768,0.192,1.115c0.108,0.348,0.282,0.643,0.522,0.882c0.24,0.24,0.576,0.36,1.008,0.36
		c0.432,0,0.768-0.12,1.008-0.36c0.24-0.239,0.414-0.534,0.522-0.882c0.108-0.348,0.172-0.72,0.192-1.115
		c0.02-0.396,0.03-0.755,0.03-1.074c0-0.209-0.002-0.439-0.006-0.69c-0.004-0.252-0.024-0.504-0.06-0.756
		c-0.036-0.253-0.088-0.498-0.156-0.738c-0.068-0.239-0.168-0.45-0.3-0.63c-0.132-0.18-0.298-0.326-0.498-0.438
		c-0.2-0.112-0.444-0.168-0.732-0.168c-0.288,0-0.532,0.056-0.732,0.168c-0.2,0.111-0.366,0.258-0.498,0.438
		c-0.132,0.18-0.232,0.391-0.3,0.63c-0.068,0.24-0.12,0.485-0.156,0.738c-0.036,0.252-0.056,0.504-0.06,0.756
		c-0.004,0.252-0.006,0.481-0.006,0.69C346.855,146.532,346.865,146.891,346.885,147.287z"/>
	<path style="fill:#0069B4;" d="M353.768,144.196v0.841h0.024c0.168-0.345,0.432-0.595,0.792-0.75
		c0.36-0.156,0.756-0.234,1.188-0.234c0.48,0,0.898,0.088,1.254,0.264c0.356,0.176,0.652,0.414,0.888,0.714
		c0.236,0.3,0.413,0.646,0.534,1.038c0.12,0.393,0.18,0.809,0.18,1.248c0,0.439-0.058,0.855-0.174,1.248
		c-0.116,0.393-0.292,0.734-0.528,1.025c-0.236,0.293-0.532,0.523-0.888,0.691c-0.356,0.168-0.771,0.252-1.242,0.252
		c-0.152,0-0.322-0.017-0.51-0.048c-0.188-0.032-0.374-0.084-0.558-0.156c-0.184-0.072-0.358-0.17-0.522-0.294
		c-0.164-0.124-0.302-0.278-0.414-0.462h-0.024v3.191h-1.02v-8.567H353.768z M357.434,146.398c-0.076-0.275-0.192-0.521-0.348-0.738
		c-0.156-0.216-0.356-0.388-0.6-0.516c-0.244-0.128-0.53-0.192-0.858-0.192c-0.344,0-0.636,0.068-0.876,0.204
		c-0.24,0.137-0.436,0.314-0.588,0.534c-0.152,0.22-0.262,0.47-0.33,0.75c-0.068,0.28-0.102,0.564-0.102,0.853
		c0,0.304,0.036,0.598,0.108,0.881c0.072,0.285,0.186,0.535,0.342,0.75c0.156,0.217,0.358,0.391,0.606,0.523
		c0.248,0.132,0.548,0.198,0.9,0.198c0.352,0,0.646-0.068,0.882-0.204c0.236-0.136,0.426-0.315,0.57-0.54
		c0.144-0.224,0.248-0.48,0.312-0.768c0.064-0.289,0.096-0.584,0.096-0.889C357.547,146.957,357.509,146.674,357.434,146.398z"/>
	<path style="fill:#0069B4;" d="M359.335,144.196h1.308l1.488,2.172l1.548-2.172h1.224l-2.136,2.856l2.4,3.348h-1.308l-1.728-2.568
		l-1.728,2.568h-1.236l2.328-3.264L359.335,144.196z"/>
</g>
<g>
	<path style="fill:#0069B4;" d="M516.735,127.432v7.607h4.536V136h-5.676v-8.568H516.735z"/>
	<path style="fill:#0069B4;" d="M526.863,136.131c-0.264,0-0.475-0.073-0.631-0.221c-0.155-0.148-0.233-0.391-0.233-0.727
		c-0.28,0.336-0.606,0.578-0.978,0.727c-0.373,0.147-0.774,0.221-1.207,0.221c-0.279,0-0.543-0.029-0.791-0.09
		c-0.248-0.06-0.467-0.16-0.654-0.299c-0.188-0.141-0.336-0.32-0.443-0.541c-0.109-0.22-0.162-0.486-0.162-0.798
		c0-0.352,0.06-0.64,0.18-0.864c0.119-0.224,0.277-0.405,0.474-0.545c0.196-0.141,0.42-0.246,0.672-0.318
		c0.252-0.072,0.511-0.133,0.774-0.18c0.279-0.057,0.546-0.099,0.798-0.127c0.252-0.027,0.474-0.067,0.666-0.119
		c0.192-0.053,0.344-0.129,0.456-0.229c0.111-0.1,0.168-0.246,0.168-0.438c0-0.225-0.042-0.404-0.126-0.541
		c-0.084-0.135-0.192-0.239-0.324-0.312c-0.132-0.071-0.28-0.12-0.444-0.143c-0.164-0.024-0.326-0.037-0.485-0.037
		c-0.433,0-0.792,0.083-1.08,0.246c-0.288,0.164-0.444,0.475-0.468,0.931h-1.021c0.017-0.384,0.097-0.708,0.24-0.972
		c0.144-0.264,0.336-0.479,0.575-0.643c0.24-0.164,0.517-0.281,0.828-0.354c0.312-0.072,0.641-0.108,0.984-0.108
		c0.28,0,0.559,0.021,0.834,0.06c0.276,0.041,0.526,0.123,0.75,0.246c0.225,0.125,0.404,0.299,0.54,0.523
		c0.136,0.224,0.204,0.517,0.204,0.876v3.191c0,0.24,0.014,0.416,0.042,0.529c0.028,0.111,0.122,0.168,0.282,0.168
		c0.088,0,0.191-0.02,0.312-0.061v0.792C527.419,136.08,527.176,136.131,526.863,136.131z M525.435,133.006
		c-0.209,0.044-0.426,0.08-0.654,0.107c-0.229,0.028-0.459,0.061-0.691,0.096c-0.231,0.037-0.44,0.095-0.624,0.174
		c-0.184,0.08-0.334,0.195-0.449,0.343c-0.117,0.147-0.174,0.351-0.174,0.606c0,0.168,0.033,0.31,0.102,0.426
		c0.067,0.115,0.156,0.209,0.264,0.281c0.107,0.072,0.236,0.125,0.385,0.156c0.147,0.032,0.297,0.049,0.449,0.049
		c0.336,0,0.624-0.047,0.864-0.139c0.239-0.092,0.436-0.208,0.588-0.348c0.151-0.141,0.265-0.293,0.336-0.457
		c0.071-0.163,0.108-0.317,0.108-0.461v-1.045C525.81,132.892,525.643,132.961,525.435,133.006z"/>
	<path style="fill:#0069B4;" d="M529.467,129.795v1.309h0.023c0.248-0.504,0.553-0.876,0.912-1.116
		c0.36-0.239,0.817-0.352,1.369-0.336v1.08c-0.408,0-0.756,0.056-1.045,0.168c-0.287,0.112-0.52,0.276-0.695,0.492
		c-0.176,0.216-0.305,0.477-0.385,0.786c-0.08,0.308-0.119,0.662-0.119,1.062V136h-1.021v-6.205H529.467z"/>
	<path style="fill:#0069B4;" d="M536.859,137.752c-0.465,0.504-1.192,0.756-2.184,0.756c-0.289,0-0.582-0.032-0.883-0.096
		c-0.3-0.064-0.572-0.168-0.816-0.312c-0.244-0.145-0.445-0.332-0.605-0.564c-0.16-0.232-0.248-0.516-0.264-0.852h1.02
		c0.008,0.184,0.066,0.34,0.174,0.468c0.108,0.128,0.24,0.231,0.396,0.312c0.156,0.08,0.326,0.139,0.51,0.175
		s0.359,0.054,0.527,0.054c0.337,0,0.621-0.059,0.853-0.174c0.231-0.116,0.425-0.275,0.576-0.48c0.151-0.203,0.262-0.449,0.33-0.738
		c0.067-0.287,0.103-0.604,0.103-0.947v-0.408h-0.024c-0.177,0.385-0.442,0.666-0.798,0.846c-0.356,0.181-0.734,0.271-1.135,0.271
		c-0.464,0-0.867-0.084-1.211-0.252c-0.345-0.168-0.633-0.394-0.865-0.679c-0.231-0.283-0.406-0.615-0.521-0.996
		c-0.116-0.379-0.174-0.781-0.174-1.205c0-0.368,0.048-0.746,0.145-1.135c0.096-0.387,0.256-0.739,0.479-1.056
		c0.224-0.315,0.521-0.575,0.888-0.78c0.368-0.203,0.82-0.306,1.355-0.306c0.393,0,0.752,0.087,1.08,0.259
		c0.328,0.172,0.584,0.43,0.768,0.773h0.013v-0.889h0.959v5.677C537.555,136.487,537.322,137.248,536.859,137.752z M535.557,134.961
		c0.236-0.139,0.426-0.323,0.57-0.551c0.144-0.229,0.25-0.486,0.318-0.775c0.067-0.288,0.102-0.576,0.102-0.864
		c0-0.271-0.031-0.54-0.096-0.805c-0.064-0.264-0.166-0.502-0.307-0.713c-0.14-0.213-0.322-0.383-0.545-0.51
		c-0.225-0.129-0.496-0.193-0.816-0.193c-0.328,0-0.608,0.062-0.84,0.187c-0.232,0.124-0.422,0.29-0.57,0.498
		c-0.148,0.208-0.256,0.448-0.324,0.72c-0.068,0.272-0.102,0.557-0.102,0.853c0,0.28,0.027,0.56,0.084,0.84
		c0.056,0.28,0.152,0.534,0.287,0.763c0.137,0.227,0.316,0.412,0.541,0.551c0.224,0.141,0.504,0.211,0.84,0.211
		C535.035,135.172,535.32,135.102,535.557,134.961z"/>
	<path style="fill:#0069B4;" d="M543.482,135.604c-0.464,0.352-1.048,0.527-1.752,0.527c-0.496,0-0.926-0.08-1.289-0.239
		c-0.365-0.16-0.671-0.384-0.918-0.672c-0.248-0.288-0.435-0.632-0.559-1.032c-0.124-0.4-0.194-0.836-0.21-1.309
		c0-0.471,0.071-0.903,0.216-1.295c0.144-0.393,0.346-0.732,0.605-1.02c0.26-0.288,0.568-0.512,0.925-0.672
		c0.355-0.16,0.745-0.24,1.17-0.24c0.552,0,1.01,0.114,1.374,0.343c0.363,0.228,0.656,0.518,0.876,0.869
		c0.22,0.353,0.372,0.736,0.456,1.152c0.084,0.416,0.117,0.812,0.102,1.188h-4.643c-0.009,0.273,0.024,0.53,0.096,0.774
		c0.072,0.244,0.188,0.46,0.349,0.648c0.159,0.189,0.363,0.338,0.611,0.451c0.248,0.111,0.54,0.168,0.876,0.168
		c0.433,0,0.786-0.1,1.061-0.301c0.277-0.199,0.459-0.504,0.547-0.912h1.008C544.246,134.727,543.947,135.252,543.482,135.604z
		 M543.236,131.619c-0.092-0.216-0.215-0.402-0.371-0.558c-0.156-0.156-0.341-0.28-0.553-0.372s-0.445-0.139-0.701-0.139
		c-0.265,0-0.503,0.047-0.715,0.139s-0.394,0.219-0.546,0.378c-0.151,0.16-0.273,0.347-0.36,0.558
		c-0.088,0.213-0.14,0.439-0.155,0.679h3.563C543.383,132.064,543.328,131.836,543.236,131.619z"/>
	<path style="fill:#0069B4;" d="M546.459,129.795v1.309h0.023c0.248-0.504,0.553-0.876,0.912-1.116
		c0.359-0.239,0.816-0.352,1.368-0.336v1.08c-0.408,0-0.756,0.056-1.044,0.168c-0.288,0.112-0.521,0.276-0.696,0.492
		c-0.176,0.216-0.304,0.477-0.384,0.786c-0.08,0.308-0.12,0.662-0.12,1.062V136h-1.021v-6.205H546.459z"/>
	<path style="fill:#0069B4;" d="M499.359,145.096v-0.9h1.044v-0.924c0-0.504,0.146-0.887,0.439-1.146
		c0.291-0.26,0.717-0.39,1.277-0.39c0.096,0,0.206,0.009,0.33,0.024c0.124,0.016,0.234,0.039,0.33,0.072v0.887
		c-0.088-0.031-0.184-0.053-0.288-0.065c-0.104-0.012-0.2-0.019-0.288-0.019c-0.248,0-0.439,0.049-0.576,0.145
		c-0.136,0.096-0.203,0.28-0.203,0.553v0.863h1.199v0.9h-1.199v5.304h-1.021v-5.304H499.359z"/>
	<path style="fill:#0069B4;" d="M503.391,146.025c0.129-0.396,0.32-0.74,0.576-1.031c0.256-0.293,0.572-0.523,0.948-0.691
		c0.376-0.168,0.808-0.252,1.296-0.252c0.496,0,0.93,0.084,1.303,0.252c0.371,0.168,0.685,0.398,0.941,0.691
		c0.256,0.291,0.447,0.635,0.576,1.031c0.128,0.396,0.191,0.822,0.191,1.277c0,0.457-0.064,0.881-0.191,1.272
		c-0.129,0.392-0.32,0.734-0.576,1.026c-0.256,0.292-0.57,0.52-0.941,0.684c-0.373,0.164-0.807,0.246-1.303,0.246
		c-0.488,0-0.92-0.082-1.296-0.246c-0.376-0.164-0.692-0.392-0.948-0.684c-0.256-0.292-0.447-0.635-0.576-1.026
		c-0.127-0.392-0.191-0.815-0.191-1.272C503.199,146.848,503.264,146.422,503.391,146.025z M504.43,148.305
		c0.1,0.293,0.237,0.537,0.414,0.732c0.176,0.196,0.381,0.346,0.617,0.45c0.236,0.104,0.486,0.156,0.75,0.156
		c0.264,0,0.514-0.052,0.75-0.156c0.236-0.105,0.441-0.254,0.618-0.45c0.176-0.195,0.313-0.439,0.414-0.732
		c0.101-0.291,0.149-0.625,0.149-1.002c0-0.375-0.049-0.709-0.149-1.002c-0.101-0.291-0.238-0.537-0.414-0.737
		c-0.177-0.2-0.382-0.353-0.618-0.456c-0.236-0.104-0.486-0.156-0.75-0.156c-0.264,0-0.514,0.053-0.75,0.156
		c-0.236,0.104-0.441,0.256-0.617,0.456c-0.177,0.2-0.314,0.446-0.414,0.737c-0.101,0.293-0.15,0.627-0.15,1.002
		C504.279,147.68,504.329,148.014,504.43,148.305z"/>
	<path style="fill:#0069B4;" d="M511.348,144.195v1.309h0.023c0.248-0.504,0.553-0.877,0.912-1.117
		c0.359-0.239,0.816-0.352,1.368-0.336v1.08c-0.408,0-0.756,0.057-1.044,0.168c-0.288,0.113-0.52,0.276-0.696,0.492
		c-0.176,0.217-0.304,0.479-0.384,0.787c-0.08,0.307-0.12,0.661-0.12,1.062v2.76h-1.021v-6.204H511.348z"/>
	<path style="fill:#0069B4;" d="M520.238,150.399v-6.097h-2.207v-0.815c0.287,0,0.567-0.023,0.84-0.065
		c0.271-0.045,0.518-0.127,0.738-0.246c0.219-0.121,0.405-0.284,0.558-0.492c0.151-0.208,0.256-0.473,0.312-0.792h0.78v8.508
		H520.238z"/>
	<path style="fill:#0069B4;" d="M524.319,143.703c0.112-0.367,0.286-0.686,0.523-0.953c0.235-0.269,0.529-0.479,0.881-0.631
		c0.352-0.151,0.752-0.227,1.201-0.227c0.367,0,0.713,0.054,1.037,0.161c0.324,0.109,0.607,0.265,0.846,0.469
		c0.24,0.204,0.431,0.458,0.57,0.762c0.141,0.305,0.211,0.656,0.211,1.057c0,0.375-0.059,0.707-0.175,0.996
		c-0.116,0.287-0.271,0.545-0.462,0.773s-0.412,0.434-0.66,0.618c-0.248,0.185-0.504,0.36-0.768,0.528
		c-0.264,0.16-0.528,0.317-0.793,0.474c-0.264,0.155-0.506,0.322-0.725,0.498c-0.221,0.176-0.408,0.366-0.564,0.569
		c-0.156,0.205-0.258,0.438-0.307,0.703h4.369v0.899h-5.557c0.04-0.504,0.13-0.935,0.27-1.29c0.141-0.355,0.318-0.666,0.534-0.93
		c0.216-0.264,0.46-0.496,0.732-0.696c0.271-0.2,0.556-0.388,0.852-0.563c0.36-0.225,0.677-0.431,0.948-0.619
		c0.271-0.188,0.498-0.377,0.678-0.569c0.18-0.192,0.316-0.399,0.408-0.624c0.092-0.225,0.139-0.484,0.139-0.779
		c0-0.232-0.045-0.443-0.133-0.631s-0.206-0.35-0.354-0.486c-0.148-0.135-0.322-0.24-0.522-0.312
		c-0.2-0.071-0.412-0.108-0.636-0.108c-0.297,0-0.551,0.062-0.762,0.186c-0.213,0.124-0.387,0.286-0.522,0.485
		c-0.136,0.201-0.233,0.427-0.294,0.679c-0.061,0.252-0.086,0.506-0.078,0.762h-1.019
		C524.163,144.471,524.207,144.071,524.319,143.703z"/>
	<path style="fill:#0069B4;" d="M530.859,145.252c0.016-0.336,0.056-0.664,0.119-0.984c0.065-0.32,0.156-0.624,0.276-0.912
		s0.284-0.54,0.492-0.756c0.208-0.217,0.47-0.389,0.786-0.516c0.316-0.129,0.693-0.192,1.134-0.192c0.44,0,0.817,0.063,1.134,0.192
		c0.316,0.127,0.578,0.299,0.786,0.516c0.208,0.216,0.372,0.468,0.492,0.756s0.212,0.592,0.276,0.912
		c0.063,0.32,0.104,0.648,0.119,0.984c0.017,0.336,0.024,0.66,0.024,0.972c0,0.312-0.008,0.636-0.024,0.972
		c-0.016,0.336-0.056,0.664-0.119,0.984c-0.064,0.32-0.156,0.622-0.276,0.906c-0.12,0.283-0.284,0.533-0.492,0.75
		c-0.208,0.215-0.468,0.386-0.78,0.51c-0.311,0.123-0.691,0.186-1.14,0.186c-0.44,0-0.817-0.062-1.134-0.186
		c-0.316-0.124-0.578-0.295-0.786-0.51c-0.208-0.217-0.372-0.467-0.492-0.75c-0.12-0.284-0.212-0.586-0.276-0.906
		c-0.064-0.32-0.104-0.648-0.119-0.984c-0.017-0.336-0.024-0.66-0.024-0.972C530.835,145.912,530.843,145.588,530.859,145.252z
		 M531.945,147.285c0.019,0.396,0.084,0.768,0.191,1.116c0.108,0.349,0.282,0.642,0.522,0.882c0.239,0.24,0.575,0.36,1.008,0.36
		s0.768-0.12,1.009-0.36c0.239-0.24,0.413-0.533,0.521-0.882c0.107-0.349,0.172-0.72,0.191-1.116c0.02-0.396,0.03-0.754,0.03-1.074
		c0-0.207-0.002-0.438-0.006-0.689c-0.005-0.252-0.024-0.504-0.06-0.756c-0.037-0.252-0.088-0.498-0.156-0.738
		c-0.068-0.24-0.168-0.449-0.301-0.63c-0.131-0.181-0.297-0.325-0.498-0.439c-0.199-0.111-0.443-0.168-0.731-0.168
		s-0.532,0.057-0.732,0.168c-0.201,0.113-0.367,0.258-0.498,0.439c-0.133,0.181-0.232,0.39-0.301,0.63
		c-0.068,0.24-0.119,0.486-0.156,0.738c-0.035,0.252-0.056,0.504-0.06,0.756c-0.004,0.252-0.006,0.482-0.006,0.689
		C531.915,146.531,531.925,146.89,531.945,147.285z"/>
	<path style="fill:#0069B4;" d="M538.827,144.195v0.84h0.024c0.168-0.344,0.432-0.594,0.791-0.75
		c0.36-0.156,0.756-0.234,1.189-0.234c0.479,0,0.897,0.089,1.254,0.265c0.356,0.177,0.651,0.414,0.888,0.714
		c0.236,0.301,0.414,0.646,0.534,1.038c0.12,0.392,0.181,0.808,0.181,1.248c0,0.441-0.059,0.857-0.175,1.248
		c-0.116,0.392-0.292,0.733-0.528,1.026c-0.235,0.291-0.531,0.521-0.887,0.689c-0.358,0.168-0.772,0.252-1.242,0.252
		c-0.152,0-0.322-0.016-0.511-0.048c-0.188-0.032-0.374-0.084-0.558-0.155c-0.184-0.072-0.358-0.17-0.522-0.295
		c-0.164-0.123-0.303-0.277-0.414-0.462h-0.024v3.192h-1.021v-8.568H538.827z M542.493,146.398
		c-0.076-0.276-0.192-0.523-0.349-0.738c-0.156-0.216-0.355-0.388-0.6-0.516c-0.244-0.128-0.53-0.192-0.857-0.192
		c-0.345,0-0.637,0.068-0.877,0.204c-0.24,0.136-0.435,0.313-0.588,0.534c-0.152,0.221-0.262,0.471-0.33,0.75
		c-0.068,0.28-0.102,0.564-0.102,0.852c0,0.305,0.036,0.599,0.107,0.883c0.072,0.283,0.187,0.533,0.342,0.75
		c0.156,0.216,0.358,0.39,0.608,0.521c0.247,0.133,0.547,0.198,0.899,0.198c0.352,0,0.646-0.067,0.882-0.204
		c0.236-0.136,0.426-0.316,0.57-0.54c0.144-0.224,0.248-0.479,0.311-0.768c0.064-0.287,0.097-0.584,0.097-0.887
		C542.607,146.955,542.568,146.674,542.493,146.398z"/>
	<path style="fill:#0069B4;" d="M544.394,144.195h1.309l1.487,2.172l1.548-2.172h1.225l-2.137,2.855l2.4,3.349h-1.309l-1.728-2.567
		l-1.727,2.567h-1.236l2.328-3.265L544.394,144.195z"/>
	<path style="fill:#0069B4;" d="M560.295,146.955v0.816h-2.616v2.628h-0.815v-2.628h-2.616v-0.816h2.616v-2.627h0.815v2.627H560.295
		z"/>
</g>
<path style="fill-rule:evenodd;clip-rule:evenodd;fill:#FFFFFF;" d="M333.71,307.537c-8.995,0-16.288,7.293-16.288,16.29
	c0,7.196,4.667,13.302,11.141,15.456c0.815,0.149,1.112-0.354,1.112-0.785c0-0.387-0.014-1.411-0.022-2.77
	c-4.531,0.984-5.487-2.184-5.487-2.184c-0.741-1.882-1.809-2.383-1.809-2.383c-1.479-1.011,0.112-0.99,0.112-0.99
	c1.635,0.115,2.495,1.679,2.495,1.679c1.453,2.489,3.812,1.77,4.741,1.353c0.148-1.053,0.569-1.771,1.034-2.178
	c-3.617-0.411-7.42-1.809-7.42-8.051c0-1.778,0.635-3.232,1.677-4.371c-0.167-0.412-0.727-2.068,0.16-4.311
	c0,0,1.368-0.438,4.48,1.67c1.299-0.361,2.693-0.542,4.078-0.548c1.383,0.006,2.777,0.187,4.078,0.548
	c3.11-2.108,4.475-1.67,4.475-1.67c0.889,2.243,0.33,3.899,0.162,4.311c1.044,1.139,1.674,2.593,1.674,4.371
	c0,6.258-3.809,7.635-7.438,8.038c0.585,0.503,1.106,1.497,1.106,3.017c0,2.178-0.02,3.935-0.02,4.469
	c0,0.436,0.293,0.942,1.12,0.783c6.467-2.158,11.13-8.26,11.13-15.454C350.001,314.83,342.707,307.537,333.71,307.537z"/>
<g>
	<path style="fill-rule:evenodd;clip-rule:evenodd;fill:#FFFFFF;" d="M603.027,234.511c-33.347,0-60.388,27.035-60.388,60.388
		c0,26.681,17.303,49.316,41.297,57.302c3.018,0.559,4.126-1.311,4.126-2.905c0-1.439-0.056-6.197-0.082-11.243
		c-16.8,3.653-20.345-7.125-20.345-7.125c-2.747-6.979-6.705-8.836-6.705-8.836c-5.48-3.748,0.413-3.671,0.413-3.671
		c6.064,0.426,9.257,6.224,9.257,6.224c5.386,9.231,14.127,6.562,17.573,5.02c0.542-3.902,2.106-6.567,3.834-8.075
		c-13.413-1.526-27.514-6.705-27.514-29.844c0-6.593,2.359-11.98,6.223-16.209c-0.627-1.521-2.694-7.663,0.585-15.982
		c0,0,5.071-1.622,16.61,6.191c4.817-1.338,9.983-2.009,15.115-2.033c5.132,0.023,10.302,0.694,15.128,2.033
		c11.526-7.813,16.59-6.191,16.59-6.191c3.287,8.318,1.22,14.46,0.593,15.982c3.872,4.229,6.215,9.616,6.215,16.209
		c0,23.194-14.127,28.301-27.574,29.796c2.166,1.874,4.096,5.549,4.096,11.183c0,8.08-0.069,14.583-0.069,16.572
		c0,1.607,1.087,3.49,4.147,2.897c23.982-7.994,41.263-30.622,41.263-57.294C663.415,261.547,636.378,234.511,603.027,234.511z"/>
	<path style="fill:#FFFFFF;" d="M565.511,321.215c-0.133,0.301-0.606,0.391-1.035,0.185c-0.439-0.197-0.684-0.606-0.542-0.907
		c0.13-0.309,0.603-0.395,1.04-0.188C565.413,320.501,565.663,320.914,565.511,321.215L565.511,321.215z M564.768,320.664"/>
	<path style="fill:#FFFFFF;" d="M567.958,323.943c-0.288,0.267-0.852,0.143-1.233-0.279c-0.396-0.421-0.469-0.984-0.177-1.255
		c0.297-0.267,0.843-0.142,1.238,0.279C568.181,323.114,568.258,323.673,567.958,323.943L567.958,323.943z M567.381,323.325"/>
	<path style="fill:#FFFFFF;" d="M570.339,327.421c-0.37,0.258-0.976,0.017-1.35-0.521c-0.37-0.537-0.37-1.182,0.009-1.439
		c0.374-0.258,0.971-0.025,1.35,0.507C570.716,326.513,570.716,327.158,570.339,327.421L570.339,327.421z M570.339,327.421"/>
	<path style="fill:#FFFFFF;" d="M573.6,330.781c-0.331,0.365-1.036,0.267-1.552-0.232c-0.528-0.486-0.675-1.178-0.344-1.543
		c0.336-0.365,1.045-0.263,1.564,0.231C573.794,329.724,573.953,330.42,573.6,330.781L573.6,330.781z M573.6,330.781"/>
	<path style="fill:#FFFFFF;" d="M578.1,332.732c-0.146,0.473-0.825,0.688-1.509,0.486c-0.684-0.207-1.13-0.761-0.992-1.238
		c0.142-0.477,0.824-0.7,1.513-0.485C577.795,331.701,578.242,332.251,578.1,332.732L578.1,332.732z M578.1,332.732"/>
	<path style="fill:#FFFFFF;" d="M583.043,333.094c0.017,0.498-0.564,0.911-1.281,0.92c-0.722,0.017-1.307-0.387-1.314-0.877
		c0-0.503,0.567-0.911,1.289-0.924C582.454,332.199,583.043,332.599,583.043,333.094L583.043,333.094z M583.043,333.094"/>
	<path style="fill:#FFFFFF;" d="M587.641,332.311c0.086,0.485-0.413,0.984-1.126,1.117c-0.701,0.129-1.35-0.172-1.439-0.653
		c-0.087-0.498,0.421-0.997,1.121-1.126C586.911,331.525,587.55,331.817,587.641,332.311L587.641,332.311z M587.641,332.311"/>
</g>
<g>
	<g>
		
			<line style="fill:none;stroke:#147EBC;stroke-linecap:round;stroke-miterlimit:10;" x1="406" y1="252.594" x2="406" y2="253.094"/>
		
			<line style="fill:none;stroke:#147EBC;stroke-linecap:round;stroke-miterlimit:10;stroke-dasharray:0.9999,1.9999;" x1="406" y1="255.094" x2="406" y2="389.087"/>
		
			<line style="fill:none;stroke:#147EBC;stroke-linecap:round;stroke-miterlimit:10;" x1="406" y1="390.087" x2="406" y2="390.587"/>
	</g>
</g>
<g>
	<path style="fill:#0069B4;" d="M314.378,404.603c-0.38-0.276-0.866-0.414-1.458-0.414c-0.24,0-0.476,0.024-0.708,0.071
		c-0.232,0.049-0.438,0.129-0.618,0.24c-0.18,0.113-0.324,0.263-0.432,0.451c-0.108,0.188-0.162,0.422-0.162,0.701
		c0,0.264,0.078,0.479,0.234,0.643c0.156,0.164,0.364,0.298,0.624,0.401c0.26,0.105,0.554,0.19,0.882,0.259
		c0.328,0.067,0.662,0.142,1.002,0.221c0.34,0.08,0.674,0.175,1.002,0.283c0.328,0.107,0.622,0.254,0.882,0.438
		c0.26,0.184,0.468,0.416,0.624,0.695c0.156,0.281,0.234,0.633,0.234,1.057c0,0.456-0.102,0.846-0.306,1.17
		c-0.204,0.324-0.466,0.588-0.786,0.792c-0.32,0.204-0.678,0.352-1.074,0.444c-0.396,0.092-0.79,0.138-1.182,0.138
		c-0.48,0-0.934-0.06-1.362-0.18c-0.428-0.12-0.804-0.302-1.128-0.546c-0.324-0.244-0.58-0.557-0.768-0.936
		c-0.188-0.38-0.282-0.829-0.282-1.35h1.08c0,0.36,0.07,0.67,0.21,0.93c0.14,0.261,0.324,0.474,0.552,0.642
		c0.228,0.168,0.494,0.293,0.798,0.373c0.304,0.08,0.616,0.119,0.936,0.119c0.256,0,0.514-0.023,0.774-0.072
		c0.26-0.047,0.494-0.129,0.702-0.246c0.208-0.115,0.376-0.273,0.504-0.473c0.128-0.201,0.192-0.457,0.192-0.768
		c0-0.296-0.078-0.536-0.234-0.72c-0.156-0.184-0.364-0.334-0.624-0.45c-0.26-0.116-0.554-0.21-0.882-0.282
		c-0.328-0.072-0.662-0.146-1.002-0.223c-0.34-0.075-0.674-0.163-1.002-0.264c-0.328-0.1-0.623-0.232-0.882-0.396
		c-0.26-0.164-0.468-0.376-0.624-0.636c-0.156-0.26-0.234-0.586-0.234-0.979c0-0.432,0.088-0.806,0.264-1.122
		c0.176-0.315,0.41-0.575,0.702-0.78c0.292-0.203,0.624-0.356,0.996-0.455c0.372-0.101,0.754-0.15,1.146-0.15
		c0.44,0,0.848,0.053,1.224,0.156c0.376,0.104,0.706,0.268,0.99,0.492c0.284,0.224,0.508,0.506,0.672,0.846
		c0.164,0.34,0.254,0.746,0.27,1.218h-1.08C314.979,405.324,314.758,404.879,314.378,404.603z"/>
	<path style="fill:#0069B4;" d="M318.656,405.797v0.912h0.024c0.464-0.705,1.132-1.057,2.004-1.057c0.384,0,0.732,0.08,1.044,0.24
		c0.312,0.16,0.532,0.432,0.66,0.816c0.208-0.336,0.482-0.596,0.822-0.78c0.34-0.185,0.714-0.276,1.121-0.276
		c0.312,0,0.594,0.034,0.846,0.102c0.252,0.068,0.468,0.175,0.648,0.318c0.18,0.145,0.32,0.33,0.42,0.559
		c0.1,0.228,0.15,0.502,0.15,0.822V412h-1.02v-4.067c0-0.192-0.017-0.372-0.048-0.54c-0.032-0.168-0.092-0.315-0.18-0.438
		c-0.088-0.125-0.21-0.223-0.366-0.295c-0.156-0.072-0.358-0.107-0.606-0.107c-0.504,0-0.9,0.144-1.188,0.432
		c-0.288,0.288-0.432,0.672-0.432,1.152V412h-1.02v-4.067c0-0.2-0.018-0.384-0.054-0.552c-0.036-0.168-0.098-0.314-0.186-0.438
		c-0.088-0.124-0.206-0.22-0.354-0.288c-0.148-0.068-0.338-0.102-0.57-0.102c-0.296,0-0.55,0.06-0.762,0.18
		c-0.212,0.12-0.384,0.264-0.516,0.432c-0.132,0.168-0.228,0.342-0.288,0.522c-0.06,0.181-0.09,0.33-0.09,0.45V412h-1.02v-6.203
		H318.656z"/>
	<path style="fill:#0069B4;" d="M332.696,412.133c-0.264,0-0.474-0.074-0.63-0.223c-0.156-0.147-0.234-0.39-0.234-0.726
		c-0.28,0.336-0.606,0.578-0.978,0.726c-0.372,0.148-0.774,0.223-1.206,0.223c-0.28,0-0.544-0.03-0.792-0.09
		c-0.248-0.061-0.466-0.16-0.654-0.301c-0.188-0.14-0.336-0.319-0.444-0.539c-0.108-0.221-0.162-0.486-0.162-0.799
		c0-0.352,0.06-0.64,0.18-0.863c0.12-0.225,0.278-0.406,0.474-0.547c0.196-0.14,0.42-0.246,0.672-0.318
		c0.252-0.071,0.51-0.131,0.774-0.18c0.28-0.056,0.546-0.098,0.798-0.125c0.252-0.028,0.474-0.068,0.666-0.121
		c0.192-0.051,0.344-0.127,0.456-0.228c0.112-0.101,0.168-0.246,0.168-0.438c0-0.223-0.042-0.403-0.126-0.539
		c-0.084-0.137-0.192-0.24-0.324-0.312c-0.132-0.072-0.28-0.12-0.444-0.145c-0.164-0.023-0.326-0.035-0.486-0.035
		c-0.432,0-0.792,0.082-1.08,0.246c-0.288,0.164-0.444,0.474-0.468,0.93h-1.02c0.016-0.384,0.096-0.708,0.24-0.973
		c0.144-0.264,0.336-0.478,0.576-0.642c0.24-0.163,0.516-0.282,0.828-0.354c0.312-0.071,0.64-0.107,0.984-0.107
		c0.28,0,0.558,0.02,0.834,0.061c0.276,0.039,0.526,0.121,0.75,0.246c0.224,0.123,0.404,0.298,0.54,0.521
		c0.136,0.225,0.204,0.516,0.204,0.876v3.192c0,0.24,0.014,0.416,0.042,0.527c0.028,0.112,0.122,0.168,0.282,0.168
		c0.088,0,0.192-0.02,0.312-0.06v0.792C333.251,412.08,333.008,412.133,332.696,412.133z M331.268,409.006
		c-0.208,0.045-0.426,0.08-0.654,0.108c-0.228,0.028-0.458,0.06-0.69,0.097c-0.232,0.035-0.44,0.094-0.624,0.174
		c-0.185,0.08-0.335,0.193-0.45,0.342c-0.116,0.148-0.174,0.35-0.174,0.605c0,0.168,0.034,0.311,0.102,0.426
		c0.068,0.117,0.156,0.211,0.264,0.283c0.108,0.071,0.236,0.123,0.384,0.155c0.148,0.032,0.298,0.048,0.45,0.048
		c0.336,0,0.624-0.045,0.864-0.138c0.24-0.092,0.436-0.208,0.588-0.349c0.152-0.139,0.264-0.291,0.336-0.455
		c0.072-0.164,0.108-0.318,0.108-0.463v-1.043C331.644,408.893,331.476,408.963,331.268,409.006z"/>
	<path style="fill:#0069B4;" d="M335.456,403.433V412h-1.02v-8.567H335.456z"/>
	<path style="fill:#0069B4;" d="M338.12,403.433V412h-1.02v-8.567H338.12z"/>
	<path style="fill:#0069B4;" d="M282.956,421.096v-0.899H284v-0.924c0-0.504,0.146-0.886,0.438-1.145
		c0.292-0.26,0.718-0.391,1.278-0.391c0.096,0,0.206,0.008,0.33,0.023c0.124,0.017,0.234,0.041,0.33,0.072v0.889
		c-0.088-0.032-0.184-0.055-0.288-0.066s-0.2-0.018-0.288-0.018c-0.248,0-0.44,0.048-0.576,0.144
		c-0.136,0.097-0.204,0.28-0.204,0.552v0.864h1.2v0.899h-1.2v5.305H284v-5.305H282.956z"/>
	<path style="fill:#0069B4;" d="M286.988,422.026c0.128-0.396,0.32-0.739,0.576-1.032c0.256-0.291,0.572-0.521,0.948-0.689
		s0.808-0.252,1.296-0.252c0.496,0,0.93,0.084,1.302,0.252c0.372,0.168,0.686,0.398,0.942,0.689
		c0.256,0.293,0.448,0.637,0.576,1.032c0.128,0.396,0.192,0.822,0.192,1.278c0,0.455-0.064,0.88-0.192,1.272
		c-0.128,0.393-0.32,0.734-0.576,1.026c-0.256,0.292-0.57,0.52-0.942,0.685c-0.372,0.163-0.806,0.245-1.302,0.245
		c-0.488,0-0.92-0.082-1.296-0.245c-0.376-0.164-0.692-0.393-0.948-0.685c-0.256-0.292-0.448-0.634-0.576-1.026
		c-0.128-0.392-0.192-0.816-0.192-1.272C286.796,422.849,286.86,422.422,286.988,422.026z M288.026,424.307
		c0.1,0.292,0.238,0.535,0.414,0.732c0.176,0.195,0.382,0.346,0.618,0.449c0.236,0.103,0.486,0.156,0.75,0.156
		c0.264,0,0.514-0.053,0.75-0.156c0.236-0.104,0.442-0.254,0.618-0.449c0.176-0.197,0.314-0.44,0.414-0.732
		c0.1-0.292,0.15-0.626,0.15-1.002c0-0.377-0.05-0.71-0.15-1.002c-0.1-0.293-0.238-0.538-0.414-0.738
		c-0.176-0.199-0.382-0.352-0.618-0.456c-0.236-0.104-0.486-0.156-0.75-0.156c-0.264,0-0.514,0.052-0.75,0.156
		c-0.236,0.104-0.442,0.257-0.618,0.456c-0.176,0.2-0.314,0.445-0.414,0.738c-0.1,0.292-0.15,0.625-0.15,1.002
		C287.876,423.681,287.926,424.015,288.026,424.307z"/>
	<path style="fill:#0069B4;" d="M294.944,420.196v1.308h0.024c0.248-0.504,0.552-0.875,0.912-1.115
		c0.36-0.24,0.816-0.352,1.368-0.336v1.08c-0.408,0-0.756,0.056-1.044,0.168c-0.288,0.111-0.521,0.275-0.696,0.492
		c-0.176,0.215-0.304,0.478-0.384,0.785c-0.08,0.309-0.12,0.662-0.12,1.062v2.76h-1.02v-6.204H294.944z"/>
	<path style="fill:#0069B4;" d="M303.835,426.4v-6.096h-2.208v-0.816c0.288,0,0.568-0.022,0.84-0.066
		c0.272-0.043,0.518-0.125,0.738-0.246c0.22-0.119,0.406-0.283,0.558-0.491c0.152-0.208,0.256-0.472,0.312-0.792h0.78v8.508H303.835
		z"/>
	<path style="fill:#0069B4;" d="M311.78,419.141c-0.248-0.232-0.576-0.348-0.984-0.348c-0.432,0-0.78,0.105-1.044,0.317
		c-0.264,0.212-0.47,0.479-0.618,0.804c-0.148,0.324-0.25,0.674-0.306,1.051c-0.056,0.375-0.088,0.728-0.096,1.056l0.024,0.024
		c0.24-0.393,0.538-0.676,0.894-0.852c0.356-0.176,0.766-0.265,1.23-0.265c0.408,0,0.774,0.07,1.098,0.211
		c0.324,0.14,0.596,0.334,0.816,0.582c0.22,0.248,0.39,0.539,0.51,0.875c0.12,0.337,0.18,0.701,0.18,1.093
		c0,0.311-0.048,0.636-0.144,0.972c-0.096,0.336-0.254,0.643-0.474,0.918c-0.22,0.276-0.512,0.504-0.876,0.684
		c-0.364,0.181-0.814,0.271-1.35,0.271c-0.632,0-1.14-0.128-1.524-0.384c-0.384-0.256-0.68-0.584-0.888-0.984
		c-0.208-0.4-0.346-0.84-0.414-1.32c-0.068-0.48-0.102-0.943-0.102-1.392c0-0.583,0.05-1.149,0.15-1.698
		c0.1-0.547,0.27-1.033,0.51-1.457c0.24-0.424,0.559-0.764,0.96-1.021c0.4-0.256,0.904-0.384,1.512-0.384
		c0.704,0,1.264,0.185,1.68,0.558c0.416,0.372,0.656,0.91,0.72,1.614h-1.02C312.176,419.68,312.028,419.373,311.78,419.141z
		 M309.932,421.978c-0.216,0.1-0.4,0.236-0.552,0.408c-0.152,0.172-0.266,0.376-0.342,0.611c-0.076,0.236-0.114,0.486-0.114,0.75
		c0,0.264,0.04,0.512,0.12,0.744c0.08,0.232,0.194,0.432,0.342,0.6c0.148,0.168,0.332,0.303,0.552,0.402
		c0.22,0.101,0.47,0.15,0.75,0.15c0.28,0,0.526-0.05,0.738-0.15c0.212-0.1,0.39-0.238,0.534-0.414
		c0.144-0.176,0.254-0.378,0.33-0.605c0.076-0.229,0.114-0.467,0.114-0.715c0-0.264-0.034-0.514-0.102-0.75
		c-0.068-0.235-0.174-0.439-0.318-0.611c-0.144-0.172-0.324-0.311-0.54-0.414c-0.216-0.104-0.468-0.156-0.756-0.156
		C310.4,421.828,310.148,421.879,309.932,421.978z"/>
	<path style="fill:#0069B4;" d="M315.752,420.196v0.841h0.024c0.168-0.345,0.432-0.595,0.792-0.75
		c0.36-0.156,0.756-0.234,1.188-0.234c0.48,0,0.898,0.088,1.254,0.264c0.356,0.176,0.652,0.414,0.888,0.714
		c0.236,0.3,0.414,0.646,0.534,1.038c0.12,0.393,0.18,0.809,0.18,1.248c0,0.439-0.058,0.855-0.174,1.248
		c-0.116,0.392-0.292,0.734-0.528,1.025c-0.236,0.293-0.532,0.522-0.888,0.69c-0.357,0.168-0.771,0.252-1.242,0.252
		c-0.152,0-0.322-0.017-0.51-0.048c-0.188-0.032-0.374-0.084-0.558-0.156c-0.184-0.072-0.358-0.17-0.522-0.294
		c-0.164-0.124-0.302-0.278-0.414-0.462h-0.024v3.191h-1.02v-8.567H315.752z M319.418,422.398c-0.076-0.275-0.192-0.521-0.348-0.738
		c-0.156-0.216-0.356-0.388-0.6-0.516c-0.244-0.128-0.53-0.192-0.858-0.192c-0.344,0-0.636,0.068-0.876,0.204
		c-0.24,0.137-0.436,0.314-0.588,0.534c-0.152,0.22-0.262,0.47-0.33,0.75c-0.068,0.28-0.102,0.564-0.102,0.853
		c0,0.304,0.036,0.598,0.108,0.881c0.072,0.285,0.186,0.535,0.342,0.75c0.156,0.217,0.358,0.391,0.607,0.522
		c0.247,0.132,0.548,0.198,0.9,0.198c0.352,0,0.646-0.068,0.882-0.204c0.236-0.136,0.426-0.315,0.57-0.54
		c0.144-0.224,0.248-0.48,0.312-0.768c0.064-0.289,0.096-0.584,0.096-0.889C319.532,422.957,319.494,422.674,319.418,422.398z"/>
	<path style="fill:#0069B4;" d="M321.319,420.196h1.308l1.488,2.172l1.548-2.172h1.224l-2.136,2.856l2.4,3.348h-1.308l-1.728-2.568
		l-1.728,2.568h-1.236l2.328-3.264L321.319,420.196z"/>
	<path style="fill:#0069B4;" d="M331.327,422.584v0.961h-3.468v-0.961H331.327z"/>
	<path style="fill:#0069B4;" d="M335.179,426.4v-6.096h-2.208v-0.816c0.288,0,0.568-0.022,0.84-0.066
		c0.272-0.043,0.518-0.125,0.738-0.246c0.22-0.119,0.406-0.283,0.558-0.491c0.152-0.208,0.256-0.472,0.312-0.792h0.78v8.508H335.179
		z"/>
	<path style="fill:#0069B4;" d="M339.259,419.705c0.112-0.369,0.286-0.687,0.522-0.955c0.236-0.268,0.53-0.478,0.882-0.629
		c0.352-0.152,0.752-0.228,1.2-0.228c0.368,0,0.714,0.054,1.038,0.162c0.324,0.107,0.606,0.264,0.846,0.468
		c0.24,0.204,0.43,0.458,0.57,0.762c0.14,0.304,0.21,0.656,0.21,1.056c0,0.377-0.058,0.709-0.174,0.996
		c-0.116,0.289-0.27,0.547-0.462,0.775c-0.192,0.227-0.412,0.434-0.66,0.618c-0.248,0.184-0.504,0.359-0.768,0.527
		c-0.264,0.16-0.528,0.318-0.792,0.475c-0.264,0.156-0.506,0.322-0.726,0.498c-0.22,0.176-0.408,0.365-0.564,0.57
		c-0.156,0.203-0.258,0.438-0.306,0.701h4.368v0.9h-5.556c0.04-0.504,0.13-0.934,0.27-1.29c0.14-0.357,0.318-0.666,0.534-0.931
		c0.216-0.264,0.46-0.495,0.732-0.695c0.272-0.199,0.556-0.388,0.852-0.565c0.36-0.224,0.676-0.43,0.948-0.617
		c0.272-0.188,0.498-0.379,0.678-0.57c0.18-0.191,0.316-0.4,0.408-0.624s0.138-0.483,0.138-0.78c0-0.231-0.044-0.441-0.132-0.63
		c-0.088-0.188-0.206-0.35-0.354-0.485c-0.148-0.137-0.322-0.24-0.522-0.312c-0.2-0.072-0.412-0.107-0.636-0.107
		c-0.296,0-0.55,0.061-0.762,0.185c-0.212,0.124-0.386,0.286-0.522,0.486c-0.136,0.199-0.234,0.426-0.294,0.678
		c-0.06,0.252-0.086,0.506-0.078,0.762h-1.02C339.103,420.473,339.147,420.072,339.259,419.705z"/>
	<path style="fill:#0069B4;" d="M345.799,421.252c0.016-0.336,0.056-0.664,0.12-0.983c0.064-0.319,0.156-0.624,0.276-0.912
		c0.12-0.288,0.284-0.54,0.492-0.756c0.208-0.216,0.47-0.388,0.786-0.517c0.316-0.127,0.694-0.191,1.134-0.191
		c0.44,0,0.818,0.064,1.134,0.191c0.316,0.129,0.578,0.301,0.786,0.517c0.208,0.216,0.372,0.468,0.492,0.756
		c0.12,0.288,0.212,0.593,0.276,0.912c0.064,0.319,0.104,0.647,0.12,0.983c0.016,0.336,0.024,0.66,0.024,0.973
		s-0.008,0.636-0.024,0.972c-0.016,0.336-0.056,0.664-0.12,0.983c-0.064,0.32-0.156,0.623-0.276,0.906
		c-0.12,0.285-0.284,0.535-0.492,0.75c-0.208,0.217-0.468,0.387-0.78,0.51c-0.312,0.125-0.692,0.186-1.14,0.186
		c-0.44,0-0.818-0.061-1.134-0.186c-0.316-0.123-0.578-0.293-0.786-0.51c-0.208-0.215-0.372-0.465-0.492-0.75
		c-0.12-0.283-0.212-0.586-0.276-0.906c-0.064-0.319-0.104-0.647-0.12-0.983c-0.016-0.336-0.024-0.659-0.024-0.972
		S345.783,421.588,345.799,421.252z M346.885,423.287c0.02,0.395,0.084,0.768,0.192,1.115c0.108,0.348,0.282,0.643,0.522,0.882
		c0.24,0.24,0.576,0.36,1.008,0.36c0.432,0,0.768-0.12,1.008-0.36c0.24-0.239,0.414-0.534,0.522-0.882
		c0.108-0.348,0.172-0.72,0.192-1.115c0.02-0.397,0.03-0.755,0.03-1.074c0-0.209-0.002-0.438-0.006-0.69
		c-0.004-0.252-0.024-0.504-0.06-0.756c-0.036-0.253-0.088-0.498-0.156-0.738c-0.068-0.239-0.168-0.45-0.3-0.63
		c-0.132-0.18-0.298-0.326-0.498-0.438c-0.2-0.112-0.444-0.168-0.732-0.168c-0.288,0-0.532,0.056-0.732,0.168
		c-0.2,0.111-0.366,0.258-0.498,0.438c-0.132,0.18-0.232,0.391-0.3,0.63c-0.068,0.24-0.12,0.485-0.156,0.738
		c-0.036,0.252-0.056,0.504-0.06,0.756c-0.004,0.252-0.006,0.481-0.006,0.69C346.855,422.532,346.865,422.891,346.885,423.287z"/>
	<path style="fill:#0069B4;" d="M353.768,420.196v0.841h0.024c0.168-0.345,0.432-0.595,0.792-0.75
		c0.36-0.156,0.756-0.234,1.188-0.234c0.48,0,0.898,0.088,1.254,0.264c0.356,0.176,0.652,0.414,0.888,0.714
		c0.236,0.3,0.413,0.646,0.534,1.038c0.12,0.393,0.18,0.809,0.18,1.248c0,0.439-0.058,0.855-0.174,1.248
		c-0.116,0.392-0.292,0.734-0.528,1.025c-0.236,0.293-0.532,0.522-0.888,0.69c-0.356,0.168-0.771,0.252-1.242,0.252
		c-0.152,0-0.322-0.017-0.51-0.048c-0.188-0.032-0.374-0.084-0.558-0.156c-0.184-0.072-0.358-0.17-0.522-0.294
		c-0.164-0.124-0.302-0.278-0.414-0.462h-0.024v3.191h-1.02v-8.567H353.768z M357.434,422.398c-0.076-0.275-0.192-0.521-0.348-0.738
		c-0.156-0.216-0.356-0.388-0.6-0.516c-0.244-0.128-0.53-0.192-0.858-0.192c-0.344,0-0.636,0.068-0.876,0.204
		c-0.24,0.137-0.436,0.314-0.588,0.534c-0.152,0.22-0.262,0.47-0.33,0.75c-0.068,0.28-0.102,0.564-0.102,0.853
		c0,0.304,0.036,0.598,0.108,0.881c0.072,0.285,0.186,0.535,0.342,0.75c0.156,0.217,0.358,0.391,0.606,0.522
		c0.248,0.132,0.548,0.198,0.9,0.198c0.352,0,0.646-0.068,0.882-0.204c0.236-0.136,0.426-0.315,0.57-0.54
		c0.144-0.224,0.248-0.48,0.312-0.768c0.064-0.289,0.096-0.584,0.096-0.889C357.547,422.957,357.509,422.674,357.434,422.398z"/>
	<path style="fill:#0069B4;" d="M359.335,420.196h1.308l1.488,2.172l1.548-2.172h1.224l-2.136,2.856l2.4,3.348h-1.308l-1.728-2.568
		l-1.728,2.568h-1.236l2.328-3.264L359.335,420.196z"/>
</g>
<g>
	<path style="fill:#0069B4;" d="M516.735,403.432v7.607h4.536V412h-5.676v-8.568H516.735z"/>
	<path style="fill:#0069B4;" d="M526.863,412.131c-0.264,0-0.475-0.073-0.631-0.221c-0.155-0.148-0.233-0.391-0.233-0.727
		c-0.28,0.336-0.606,0.578-0.978,0.727c-0.373,0.147-0.774,0.221-1.207,0.221c-0.279,0-0.543-0.029-0.791-0.09
		c-0.248-0.06-0.467-0.16-0.654-0.299c-0.188-0.141-0.336-0.32-0.443-0.541c-0.109-0.22-0.162-0.486-0.162-0.798
		c0-0.352,0.06-0.64,0.18-0.864c0.119-0.224,0.277-0.405,0.474-0.545c0.196-0.141,0.42-0.246,0.672-0.318
		c0.252-0.072,0.511-0.133,0.774-0.18c0.279-0.057,0.546-0.099,0.798-0.127c0.252-0.027,0.474-0.067,0.666-0.119
		c0.192-0.053,0.344-0.129,0.456-0.228c0.111-0.1,0.168-0.246,0.168-0.438c0-0.225-0.042-0.404-0.126-0.541
		c-0.084-0.135-0.192-0.239-0.324-0.312c-0.132-0.071-0.28-0.12-0.444-0.144c-0.164-0.024-0.326-0.037-0.485-0.037
		c-0.433,0-0.792,0.083-1.08,0.246c-0.288,0.164-0.444,0.475-0.468,0.931h-1.021c0.017-0.384,0.097-0.708,0.24-0.972
		c0.144-0.264,0.336-0.479,0.575-0.643c0.24-0.164,0.517-0.281,0.828-0.354c0.312-0.072,0.641-0.108,0.984-0.108
		c0.28,0,0.559,0.021,0.834,0.06c0.276,0.041,0.526,0.123,0.75,0.246c0.225,0.125,0.404,0.299,0.54,0.522
		c0.136,0.224,0.204,0.517,0.204,0.876v3.191c0,0.24,0.014,0.416,0.042,0.529c0.028,0.111,0.122,0.168,0.282,0.168
		c0.088,0,0.191-0.021,0.312-0.061v0.792C527.419,412.08,527.176,412.131,526.863,412.131z M525.435,409.006
		c-0.209,0.044-0.426,0.08-0.654,0.107c-0.229,0.028-0.459,0.06-0.691,0.096c-0.231,0.037-0.44,0.095-0.624,0.174
		c-0.184,0.08-0.334,0.195-0.449,0.343c-0.117,0.147-0.174,0.351-0.174,0.606c0,0.168,0.033,0.31,0.102,0.426
		c0.067,0.115,0.156,0.209,0.264,0.281c0.107,0.072,0.236,0.125,0.385,0.156c0.147,0.032,0.297,0.049,0.449,0.049
		c0.336,0,0.624-0.047,0.864-0.139c0.239-0.092,0.436-0.208,0.588-0.348c0.151-0.141,0.265-0.293,0.336-0.457
		c0.071-0.163,0.108-0.317,0.108-0.461v-1.045C525.81,408.892,525.643,408.961,525.435,409.006z"/>
	<path style="fill:#0069B4;" d="M529.467,405.795v1.309h0.023c0.248-0.504,0.553-0.876,0.912-1.116
		c0.36-0.239,0.817-0.352,1.369-0.336v1.08c-0.408,0-0.756,0.056-1.045,0.168c-0.287,0.112-0.52,0.276-0.695,0.492
		c-0.176,0.216-0.305,0.478-0.385,0.786c-0.08,0.308-0.119,0.662-0.119,1.062V412h-1.021v-6.205H529.467z"/>
	<path style="fill:#0069B4;" d="M536.859,413.752c-0.465,0.504-1.192,0.756-2.184,0.756c-0.289,0-0.582-0.032-0.883-0.096
		c-0.3-0.064-0.572-0.168-0.816-0.312c-0.244-0.145-0.445-0.332-0.605-0.564c-0.16-0.232-0.248-0.516-0.264-0.852h1.02
		c0.008,0.184,0.066,0.34,0.174,0.468c0.108,0.128,0.24,0.231,0.396,0.311c0.156,0.08,0.326,0.139,0.51,0.175
		s0.359,0.054,0.527,0.054c0.337,0,0.621-0.059,0.853-0.174c0.231-0.116,0.425-0.275,0.576-0.48c0.151-0.203,0.262-0.449,0.33-0.738
		c0.067-0.287,0.103-0.603,0.103-0.947v-0.408h-0.024c-0.177,0.385-0.442,0.666-0.798,0.846c-0.356,0.181-0.734,0.271-1.135,0.271
		c-0.464,0-0.867-0.084-1.211-0.252c-0.345-0.168-0.633-0.393-0.865-0.679c-0.231-0.283-0.406-0.615-0.521-0.996
		c-0.116-0.379-0.174-0.781-0.174-1.205c0-0.368,0.048-0.746,0.145-1.135c0.096-0.387,0.256-0.739,0.479-1.056
		c0.224-0.315,0.521-0.575,0.888-0.78c0.368-0.203,0.82-0.306,1.355-0.306c0.393,0,0.752,0.087,1.08,0.259
		c0.328,0.172,0.584,0.43,0.768,0.773h0.013v-0.889h0.959v5.677C537.555,412.487,537.322,413.248,536.859,413.752z M535.557,410.961
		c0.236-0.139,0.426-0.323,0.57-0.551c0.144-0.229,0.25-0.486,0.318-0.774c0.067-0.288,0.102-0.576,0.102-0.864
		c0-0.272-0.031-0.54-0.096-0.805c-0.064-0.264-0.166-0.502-0.307-0.713c-0.14-0.213-0.322-0.383-0.545-0.51
		c-0.225-0.129-0.496-0.193-0.816-0.193c-0.328,0-0.608,0.062-0.84,0.186c-0.232,0.124-0.422,0.29-0.57,0.498
		c-0.148,0.208-0.256,0.448-0.324,0.72c-0.068,0.272-0.102,0.557-0.102,0.852c0,0.28,0.027,0.56,0.084,0.84
		c0.056,0.28,0.152,0.534,0.287,0.763c0.137,0.228,0.316,0.412,0.541,0.551c0.224,0.141,0.504,0.211,0.84,0.211
		C535.035,411.172,535.32,411.102,535.557,410.961z"/>
	<path style="fill:#0069B4;" d="M543.482,411.603c-0.464,0.352-1.048,0.527-1.752,0.527c-0.496,0-0.926-0.08-1.289-0.239
		c-0.365-0.16-0.671-0.384-0.918-0.672c-0.248-0.288-0.435-0.632-0.559-1.032c-0.124-0.4-0.194-0.836-0.21-1.309
		c0-0.471,0.071-0.903,0.216-1.295c0.144-0.393,0.346-0.732,0.605-1.021c0.26-0.288,0.568-0.512,0.925-0.672
		c0.355-0.16,0.745-0.24,1.17-0.24c0.552,0,1.01,0.114,1.374,0.343c0.363,0.228,0.656,0.518,0.876,0.869
		c0.22,0.352,0.372,0.736,0.456,1.152c0.084,0.416,0.117,0.812,0.102,1.188h-4.643c-0.009,0.272,0.024,0.53,0.096,0.774
		c0.072,0.244,0.188,0.46,0.349,0.647c0.159,0.189,0.363,0.338,0.611,0.451c0.248,0.111,0.54,0.168,0.876,0.168
		c0.433,0,0.786-0.101,1.061-0.301c0.277-0.199,0.459-0.504,0.547-0.912h1.008C544.246,410.728,543.947,411.252,543.482,411.603z
		 M543.236,407.619c-0.092-0.216-0.215-0.402-0.371-0.558c-0.156-0.156-0.341-0.28-0.553-0.372
		c-0.212-0.092-0.445-0.139-0.701-0.139c-0.265,0-0.503,0.047-0.715,0.139c-0.212,0.092-0.394,0.219-0.546,0.378
		c-0.151,0.16-0.273,0.347-0.36,0.558c-0.088,0.213-0.14,0.439-0.155,0.679h3.563C543.383,408.064,543.328,407.836,543.236,407.619z
		"/>
	<path style="fill:#0069B4;" d="M546.459,405.795v1.309h0.023c0.248-0.504,0.553-0.876,0.912-1.116
		c0.359-0.239,0.816-0.352,1.368-0.336v1.08c-0.408,0-0.756,0.056-1.044,0.168c-0.288,0.112-0.521,0.276-0.696,0.492
		c-0.176,0.216-0.304,0.478-0.384,0.786c-0.08,0.308-0.12,0.662-0.12,1.062V412h-1.021v-6.205H546.459z"/>
	<path style="fill:#0069B4;" d="M499.359,421.096v-0.9h1.044v-0.924c0-0.504,0.146-0.887,0.439-1.147
		c0.291-0.26,0.717-0.39,1.277-0.39c0.096,0,0.206,0.009,0.33,0.024c0.124,0.016,0.234,0.039,0.33,0.072v0.887
		c-0.088-0.031-0.184-0.053-0.288-0.066c-0.104-0.012-0.2-0.018-0.288-0.018c-0.248,0-0.439,0.049-0.576,0.145
		c-0.136,0.096-0.203,0.28-0.203,0.553v0.863h1.199v0.9h-1.199v5.304h-1.021v-5.304H499.359z"/>
	<path style="fill:#0069B4;" d="M503.391,422.025c0.129-0.396,0.32-0.74,0.576-1.031c0.256-0.293,0.572-0.523,0.948-0.691
		c0.376-0.168,0.808-0.252,1.296-0.252c0.496,0,0.93,0.084,1.303,0.252c0.371,0.168,0.685,0.398,0.941,0.691
		c0.256,0.291,0.447,0.635,0.576,1.031c0.128,0.397,0.191,0.822,0.191,1.277c0,0.457-0.064,0.881-0.191,1.272
		c-0.129,0.392-0.32,0.734-0.576,1.026c-0.256,0.292-0.57,0.52-0.941,0.684c-0.373,0.164-0.807,0.246-1.303,0.246
		c-0.488,0-0.92-0.082-1.296-0.246c-0.376-0.164-0.692-0.392-0.948-0.684c-0.256-0.292-0.447-0.635-0.576-1.026
		c-0.127-0.392-0.191-0.815-0.191-1.272C503.199,422.848,503.264,422.422,503.391,422.025z M504.43,424.305
		c0.1,0.293,0.237,0.537,0.414,0.732c0.176,0.196,0.381,0.346,0.617,0.45c0.236,0.104,0.486,0.156,0.75,0.156
		c0.264,0,0.514-0.052,0.75-0.156c0.236-0.104,0.441-0.254,0.618-0.45c0.176-0.195,0.313-0.439,0.414-0.732
		c0.101-0.291,0.149-0.625,0.149-1.002c0-0.375-0.049-0.709-0.149-1.002c-0.101-0.291-0.238-0.537-0.414-0.737
		c-0.177-0.2-0.382-0.353-0.618-0.456c-0.236-0.103-0.486-0.156-0.75-0.156c-0.264,0-0.514,0.053-0.75,0.156
		c-0.236,0.104-0.441,0.256-0.617,0.456c-0.177,0.2-0.314,0.446-0.414,0.737c-0.101,0.293-0.15,0.627-0.15,1.002
		C504.279,423.68,504.329,424.014,504.43,424.305z"/>
	<path style="fill:#0069B4;" d="M511.348,420.195v1.309h0.023c0.248-0.504,0.553-0.877,0.912-1.117
		c0.359-0.239,0.816-0.352,1.368-0.336v1.08c-0.408,0-0.756,0.057-1.044,0.168c-0.288,0.113-0.52,0.276-0.696,0.492
		c-0.176,0.217-0.304,0.479-0.384,0.787c-0.08,0.307-0.12,0.661-0.12,1.061v2.76h-1.021v-6.204H511.348z"/>
	<path style="fill:#0069B4;" d="M520.238,426.399v-6.097h-2.207v-0.815c0.287,0,0.567-0.022,0.84-0.065
		c0.271-0.045,0.518-0.127,0.738-0.246c0.219-0.121,0.405-0.284,0.558-0.492c0.151-0.208,0.256-0.473,0.312-0.792h0.78v8.508
		H520.238z"/>
	<path style="fill:#0069B4;" d="M524.319,419.703c0.112-0.367,0.286-0.685,0.523-0.953c0.235-0.269,0.529-0.478,0.881-0.631
		c0.352-0.151,0.752-0.228,1.201-0.228c0.367,0,0.713,0.054,1.037,0.161c0.324,0.109,0.607,0.265,0.846,0.469
		c0.24,0.204,0.431,0.458,0.57,0.762c0.141,0.305,0.211,0.656,0.211,1.057c0,0.375-0.059,0.707-0.175,0.996
		c-0.116,0.287-0.271,0.545-0.462,0.773c-0.191,0.228-0.412,0.434-0.66,0.618c-0.248,0.185-0.504,0.36-0.768,0.528
		c-0.264,0.16-0.528,0.317-0.793,0.474c-0.264,0.155-0.506,0.322-0.725,0.498c-0.221,0.176-0.408,0.366-0.564,0.569
		c-0.156,0.205-0.258,0.439-0.307,0.703h4.369v0.899h-5.557c0.04-0.504,0.13-0.935,0.27-1.29c0.141-0.355,0.318-0.666,0.534-0.93
		c0.216-0.264,0.46-0.496,0.732-0.696c0.271-0.2,0.556-0.388,0.852-0.564c0.36-0.225,0.677-0.431,0.948-0.619
		c0.271-0.188,0.498-0.377,0.678-0.569c0.18-0.192,0.316-0.399,0.408-0.624c0.092-0.225,0.139-0.484,0.139-0.779
		c0-0.232-0.045-0.443-0.133-0.631s-0.206-0.35-0.354-0.486c-0.148-0.135-0.322-0.24-0.522-0.311
		c-0.2-0.071-0.412-0.108-0.636-0.108c-0.297,0-0.551,0.062-0.762,0.187c-0.213,0.124-0.387,0.286-0.522,0.485
		c-0.136,0.201-0.233,0.427-0.294,0.679c-0.061,0.252-0.086,0.506-0.078,0.762h-1.019
		C524.163,420.471,524.207,420.071,524.319,419.703z"/>
	<path style="fill:#0069B4;" d="M530.859,421.252c0.016-0.336,0.056-0.664,0.119-0.984c0.065-0.32,0.156-0.624,0.276-0.912
		s0.284-0.54,0.492-0.756c0.208-0.217,0.47-0.389,0.786-0.516c0.316-0.129,0.693-0.192,1.134-0.192c0.44,0,0.817,0.064,1.134,0.192
		c0.316,0.127,0.578,0.299,0.786,0.516c0.208,0.216,0.372,0.468,0.492,0.756s0.212,0.592,0.276,0.912
		c0.063,0.32,0.104,0.648,0.119,0.984c0.017,0.336,0.024,0.66,0.024,0.972c0,0.312-0.008,0.636-0.024,0.972
		c-0.016,0.336-0.056,0.664-0.119,0.984c-0.064,0.32-0.156,0.622-0.276,0.906c-0.12,0.283-0.284,0.533-0.492,0.75
		c-0.208,0.215-0.468,0.386-0.78,0.51c-0.311,0.123-0.691,0.186-1.14,0.186c-0.44,0-0.817-0.062-1.134-0.186
		c-0.316-0.124-0.578-0.295-0.786-0.51c-0.208-0.217-0.372-0.467-0.492-0.75c-0.12-0.284-0.212-0.586-0.276-0.906
		c-0.064-0.32-0.104-0.648-0.119-0.984c-0.017-0.336-0.024-0.66-0.024-0.972C530.835,421.912,530.843,421.588,530.859,421.252z
		 M531.945,423.285c0.019,0.396,0.084,0.768,0.191,1.116c0.108,0.349,0.282,0.642,0.522,0.882c0.239,0.24,0.575,0.36,1.008,0.36
		s0.768-0.12,1.009-0.36c0.239-0.24,0.413-0.533,0.521-0.882c0.107-0.349,0.172-0.72,0.191-1.116c0.02-0.396,0.03-0.754,0.03-1.074
		c0-0.207-0.002-0.438-0.006-0.689c-0.005-0.252-0.024-0.504-0.06-0.756c-0.037-0.252-0.088-0.498-0.156-0.738
		c-0.068-0.24-0.168-0.449-0.301-0.63c-0.131-0.181-0.297-0.325-0.498-0.438c-0.199-0.111-0.443-0.168-0.731-0.168
		s-0.532,0.057-0.732,0.168c-0.201,0.113-0.367,0.258-0.498,0.438c-0.133,0.181-0.232,0.39-0.301,0.63
		c-0.068,0.24-0.119,0.486-0.156,0.738c-0.035,0.252-0.056,0.504-0.06,0.756c-0.004,0.252-0.006,0.482-0.006,0.689
		C531.915,422.531,531.925,422.89,531.945,423.285z"/>
	<path style="fill:#0069B4;" d="M538.827,420.195v0.84h0.024c0.168-0.344,0.432-0.594,0.791-0.75
		c0.36-0.156,0.756-0.234,1.189-0.234c0.479,0,0.897,0.089,1.254,0.265c0.356,0.177,0.651,0.414,0.888,0.714
		c0.236,0.301,0.414,0.647,0.534,1.038c0.12,0.392,0.181,0.808,0.181,1.248c0,0.44-0.059,0.857-0.175,1.248
		s-0.292,0.733-0.528,1.026c-0.235,0.291-0.531,0.521-0.887,0.689c-0.358,0.168-0.772,0.252-1.242,0.252
		c-0.152,0-0.322-0.016-0.511-0.048c-0.188-0.032-0.374-0.084-0.558-0.155c-0.184-0.072-0.358-0.17-0.522-0.295
		c-0.164-0.123-0.303-0.277-0.414-0.462h-0.024v3.192h-1.021v-8.568H538.827z M542.493,422.397
		c-0.076-0.276-0.192-0.522-0.349-0.738c-0.156-0.216-0.355-0.388-0.6-0.516c-0.244-0.128-0.53-0.192-0.857-0.192
		c-0.345,0-0.637,0.068-0.877,0.204c-0.24,0.136-0.435,0.314-0.588,0.534c-0.152,0.221-0.262,0.471-0.33,0.75
		c-0.068,0.28-0.102,0.564-0.102,0.851c0,0.305,0.036,0.599,0.107,0.883c0.072,0.283,0.187,0.533,0.342,0.75
		c0.156,0.216,0.358,0.39,0.608,0.522c0.247,0.133,0.547,0.198,0.899,0.198c0.352,0,0.646-0.067,0.882-0.204
		c0.236-0.136,0.426-0.317,0.57-0.54c0.144-0.224,0.248-0.48,0.311-0.769c0.064-0.287,0.097-0.584,0.097-0.887
		C542.607,422.955,542.568,422.674,542.493,422.397z"/>
	<path style="fill:#0069B4;" d="M544.394,420.195h1.309l1.487,2.172l1.548-2.172h1.225l-2.137,2.855l2.4,3.349h-1.309l-1.728-2.567
		l-1.727,2.567h-1.236l2.328-3.265L544.394,420.195z"/>
	<path style="fill:#0069B4;" d="M560.295,422.955v0.816h-2.616v2.628h-0.815v-2.628h-2.616v-0.816h2.616v-2.627h0.815v2.627H560.295
		z"/>
</g>
</svg>
