<?xml version="1.0" encoding="iso-8859-1"?>
<!-- Generator: Adobe Illustrator 17.1.0, SVG Export Plug-In . SVG Version: 6.00 Build 0)  -->
<!DOCTYPE svg PUBLIC "-//W3C//DTD SVG 1.1//EN" "http://www.w3.org/Graphics/SVG/1.1/DTD/svg11.dtd">
<svg version="1.1" id="Logo" xmlns="http://www.w3.org/2000/svg" xmlns:xlink="http://www.w3.org/1999/xlink" x="0px" y="0px"
	 viewBox="0 0 283.468 240.382" style="enable-background:new 0 0 283.468 240.382;" xml:space="preserve">
<g>
	<path style="fill:#004B9C;" d="M0.5,223.858c0-3.07-0.055-5.18-0.219-7.592c0.603,0.055,1.343,0.137,2.247,0.137
		s1.645-0.082,2.248-0.137c-0.165,2.412-0.219,4.521-0.219,7.592v3.727c0,2.028,0.027,4.11,0.055,5.536
		c2.055,0,4.165-0.11,6.275-0.357c-0.055,0.384-0.109,0.657-0.109,1.233c0,0.575,0.055,0.85,0.109,1.178
		c-0.986-0.027-2.274-0.137-4.796-0.137c-4.467,0-5.207,0.082-5.81,0.137c0.164-2.411,0.219-4.521,0.219-7.591V223.858z"/>
	<path style="fill:#004B9C;" d="M13.353,223.474c1.48-1.233,3.398-1.919,5.125-1.919c2.905,0,5.015,1.233,5.015,4.467
		c0,2.33-0.082,4.248-0.082,6.222c0,1.727,0.493,1.891,1.617,1.891v0.657c-1.042,0.549-1.672,0.74-2.522,0.74
		c-1.343,0-2.165-0.768-2.603-2c-0.85,1.15-1.891,2-3.562,2c-2.768,0-3.919-1.836-3.919-3.59c0-2.385,1.589-3.398,4.056-4.001
		c3.069-0.74,3.344-0.959,3.344-1.946c0-1.315-0.987-2.384-2.631-2.384c-1.261,0-2.741,0.74-3.289,1.507H13.71L13.353,223.474z
		 M19.875,228.05c-1.562,0.877-3.617,0.74-3.617,3.508c0,1.343,0.603,2.083,1.562,2.083c1.206,0,2.028-0.932,2.028-2.713
		C19.848,229.338,19.875,228.68,19.875,228.05z"/>
	<path style="fill:#004B9C;" d="M37.716,222.734c-0.575,4.138-0.822,8.304-1.096,12.441c-0.438-0.082-0.877-0.137-1.288-0.137
		c-0.438,0-0.85,0.055-1.288,0.137c1.151-6.303,2.056-12.605,2.823-18.909c0.384,0.082,0.74,0.137,1.124,0.137
		c0.356,0,0.74-0.055,1.096-0.137c2.001,4.357,4.33,9.235,6.331,13.1c2.165-4.083,4.412-8.742,6.385-13.1
		c0.384,0.082,0.795,0.137,1.179,0.137s0.767-0.055,1.151-0.137c0.712,6.304,1.672,15.045,2.357,18.909
		c-0.74-0.082-1.48-0.137-2.22-0.137c-0.74,0-1.507,0.055-2.275,0.137c-0.192-3.809-0.658-8.468-1.096-12.716h-0.055
		c-2.055,4.248-4.083,8.469-6.057,12.716c-0.164-0.027-0.356-0.055-0.52-0.055c-0.165,0-0.356,0.027-0.521,0.055
		c-1.946-4.138-3.919-8.304-5.975-12.441H37.716z"/>
	<path style="fill:#004B9C;" d="M59.038,223.474c1.48-1.233,3.398-1.919,5.125-1.919c2.905,0,5.015,1.233,5.015,4.467
		c0,2.33-0.082,4.248-0.082,6.222c0,1.727,0.493,1.891,1.617,1.891v0.657c-1.041,0.549-1.672,0.74-2.521,0.74
		c-1.343,0-2.165-0.768-2.604-2c-0.85,1.15-1.891,2-3.563,2c-2.768,0-3.919-1.836-3.919-3.59c0-2.385,1.589-3.398,4.056-4.001
		c3.069-0.74,3.344-0.959,3.344-1.946c0-1.315-0.987-2.384-2.631-2.384c-1.261,0-2.741,0.74-3.289,1.507h-0.192L59.038,223.474z
		 M65.56,228.05c-1.562,0.877-3.617,0.74-3.617,3.508c0,1.343,0.602,2.083,1.562,2.083c1.206,0,2.028-0.932,2.028-2.713
		C65.533,229.338,65.56,228.68,65.56,228.05z"/>
	<path style="fill:#004B9C;" d="M79.811,222.048c-0.055,0.274-0.083,0.493-0.083,0.74c0,0.22,0.027,0.466,0.083,0.686l-2.412-0.056
		c-0.109,1.645-0.191,4.632-0.191,6.111c0,3.81,0.274,4.441,1.535,4.441c0.685,0,0.932-0.083,1.26-0.274v1.123
		c-0.712,0.439-1.945,0.713-2.987,0.713c-2.275,0-3.48-1.479-3.48-4.248c0-2.109,0.192-5.535,0.192-7.837l-1.918,0.027
		c0.055-0.22,0.082-0.466,0.082-0.686c0-0.247-0.027-0.466-0.082-0.74l1.918,0.083c0-1.151-0.027-1.974-0.11-3.371
		c1.261-0.52,2.521-1.097,3.754-1.699l0.274,0.191c-0.137,1.179-0.247,3.207-0.247,4.852L79.811,222.048z"/>
	<path style="fill:#004B9C;" d="M85.484,223.967h0.055c1.014-1.48,2.412-2.412,4.138-2.412c1.644,0,2.85,0.932,3.508,2.604
		c1.096-1.672,2.631-2.604,4.248-2.604c2.741,0,4.275,1.535,4.275,5.043c0,1.863-0.11,3.179-0.11,4.604
		c0,1.151,0.082,2.576,0.137,3.974c-0.466-0.082-1.261-0.137-2.056-0.137c-0.794,0-1.589,0.055-2.055,0.137
		c0.247-1.973,0.301-4.604,0.301-7.865c0-2.274-0.822-3.343-2.247-3.343c-1.781,0-2.165,1.836-2.165,3.151v1.973
		c0,2.22,0.055,4.166,0.219,6.084c-0.466-0.055-1.205-0.137-2.055-0.137s-1.562,0.082-2.055,0.137
		c0.164-1.918,0.219-3.864,0.219-6.084v-1.671c0-2.192-0.466-3.453-1.918-3.453c-1.645,0-2.384,1.507-2.384,4.028v1.096
		c0,2.22,0.055,4.166,0.219,6.084c-0.466-0.055-1.206-0.137-2.055-0.137s-1.562,0.082-2.056,0.137
		c0.165-1.918,0.219-3.864,0.219-6.084v-1.096c0-2.22-0.055-4.166-0.219-6.084c0.658,0.055,1.288,0.137,1.946,0.137
		s1.288-0.082,2.001-0.137L85.484,223.967z"/>
	<path style="fill:#004B9C;" d="M113.053,233.121h-0.055c-1.014,1.479-2.412,2.411-4.138,2.411c-2.74,0-4.275-1.534-4.275-5.042
		c0-1.864,0.109-3.18,0.109-4.605c0-1.15-0.082-2.576-0.137-3.974c0.466,0.082,1.26,0.137,2.055,0.137
		c0.795,0,1.589-0.055,2.055-0.137c-0.247,1.974-0.301,4.604-0.301,7.865c0,2.274,0.822,3.344,2.247,3.344
		c1.644,0,2.384-1.508,2.384-4.029v-1.096c0-2.22-0.055-4.166-0.219-6.084c0.466,0.055,1.206,0.137,2.055,0.137
		c0.85,0,1.562-0.082,2.056-0.137c-0.165,1.918-0.219,3.864-0.219,6.084v1.096c0,2.22,0.055,4.166,0.219,6.084
		c-0.658-0.055-1.288-0.137-1.946-0.137c-0.658,0-1.288,0.082-2,0.137L113.053,233.121z"/>
	<path style="fill:#004B9C;" d="M127.003,222.048c-0.055,0.274-0.083,0.493-0.083,0.74c0,0.22,0.027,0.466,0.083,0.686l-2.412-0.056
		c-0.109,1.645-0.191,4.632-0.191,6.111c0,3.81,0.274,4.441,1.535,4.441c0.685,0,0.932-0.083,1.26-0.274v1.123
		c-0.712,0.439-1.945,0.713-2.987,0.713c-2.275,0-3.48-1.479-3.48-4.248c0-2.109,0.192-5.535,0.192-7.837l-1.919,0.027
		c0.055-0.22,0.082-0.466,0.082-0.686c0-0.247-0.027-0.466-0.082-0.74l1.919,0.083c0-1.151-0.027-1.974-0.11-3.371
		c1.261-0.52,2.521-1.097,3.754-1.699l0.274,0.191c-0.137,1.179-0.247,3.207-0.247,4.852L127.003,222.048z"/>
	<path style="fill:#004B9C;" d="M128.045,240.109c1.809-8.222,2.247-9.099,3.7-9.099c0.849,0,1.945,0.575,1.945,1.699
		c0,0.657-0.356,1.316-4.96,7.673L128.045,240.109z"/>
	<path style="fill:#004B9C;" d="M152.514,221.802c3.837,0,5.178,2.549,4.587,5.591c-0.069,0.355-0.166,0.712-0.263,1.068
		c-1.968-0.027-3.903-0.082-5.849-0.082c-1.206,0-2.395,0.055-3.606,0.082c-0.081,0.274-0.129,0.521-0.177,0.768
		c-0.554,2.85,0.714,5.069,3.756,5.069c1.452,0,3.316-0.85,4.488-1.945l0.121,0.082l-0.425,1.343
		c-1.267,0.877-3.203,1.672-4.901,1.672c-3.946,0-6.116-2.795-5.408-6.441C145.701,224.57,148.486,221.802,152.514,221.802z
		 M147.641,227.42c1.118,0.027,2.396,0.082,3.547,0.082c1.205,0,2.504-0.055,3.66-0.082c0.378-1.946,0.4-4.741-2.449-4.741
		C149.713,222.679,148.162,225.447,147.641,227.42z"/>
	<path style="fill:#004B9C;" d="M161.677,222.323c0.489-2.521,1.122-6.057,1.314-7.893c0.395,0.082,0.795,0.137,1.206,0.137
		c0.411,0,0.833-0.055,1.26-0.137c-0.521,1.836-1.263,5.371-1.753,7.893l-0.964,4.96c-0.489,2.521-1.122,6.057-1.314,7.893
		c-0.395-0.082-0.795-0.137-1.206-0.137c-0.411,0-0.833,0.055-1.26,0.137c0.521-1.836,1.263-5.371,1.753-7.893L161.677,222.323z"/>
	<path style="fill:#004B9C;" d="M169.296,222.323c0.489-2.521,1.122-6.057,1.314-7.893c0.395,0.082,0.795,0.137,1.206,0.137
		c0.411,0,0.833-0.055,1.26-0.137c-0.521,1.836-1.263,5.371-1.753,7.893l-0.964,4.96c-0.489,2.521-1.122,6.057-1.314,7.893
		c-0.395-0.082-0.795-0.137-1.206-0.137c-0.411,0-0.833,0.055-1.26,0.137c0.52-1.836,1.263-5.371,1.753-7.893L169.296,222.323z"/>
	<path style="fill:#004B9C;" d="M181.456,221.802c3.837,0,5.178,2.549,4.587,5.591c-0.069,0.355-0.166,0.712-0.263,1.068
		c-1.968-0.027-3.903-0.082-5.849-0.082c-1.206,0-2.395,0.055-3.605,0.082c-0.081,0.274-0.129,0.521-0.177,0.768
		c-0.554,2.85,0.714,5.069,3.756,5.069c1.452,0,3.316-0.85,4.488-1.945l0.121,0.082l-0.425,1.343
		c-1.267,0.877-3.203,1.672-4.901,1.672c-3.946,0-6.116-2.795-5.408-6.441C174.642,224.57,177.427,221.802,181.456,221.802z
		 M176.583,227.42c1.118,0.027,2.396,0.082,3.547,0.082c1.205,0,2.504-0.055,3.66-0.082c0.378-1.946,0.4-4.741-2.449-4.741
		C178.655,222.679,177.103,225.447,176.583,227.42z"/>
	<path style="fill:#004B9C;" d="M197.591,223.391c1.884-1.232,3.269-1.589,4.721-1.589c2.631,0,4.126,1.616,3.651,4.056
		c-0.399,2.056-0.902,4.083-1.35,6.386c-0.176,0.904-0.395,2.027,0.674,2.027c0.165,0,0.384,0,0.598-0.109l-0.117,0.602
		c-0.416,0.165-1.116,0.384-1.829,0.384c-1.178,0-1.632-0.767-1.561-1.699c-1.571,1.315-2.828,2.001-4.691,2.001
		c-1.836,0-3.395-1.288-2.989-3.371c0.426-2.192,2.135-3.37,4.593-3.754c4.097-0.631,4.276-0.85,4.484-1.919
		c0.356-1.836-0.151-3.453-2.344-3.453c-1.453,0-2.956,0.686-3.816,1.864h-0.302L197.591,223.391z M203.413,228.27
		c-2.014,0.63-5.814,0.438-6.393,3.425c-0.336,1.727,0.673,2.604,1.878,2.604c1.398,0,2.779-0.904,3.607-1.918L203.413,228.27z"/>
	<path style="fill:#004B9C;" d="M209.105,232.544c0.239,0.74,1.194,1.892,2.729,1.892c1.371,0,2.824-0.85,3.138-2.467
		c0.661-3.398-6.195-1.397-5.296-6.029c0.464-2.384,2.448-4.138,5.354-4.138c1.343,0,2.097,0.493,2.893,0.768
		c-0.402,0.521-0.9,1.534-1.035,1.945h-0.329c-0.104-0.877-0.849-1.699-2.082-1.699c-1.068,0-2.462,0.686-2.776,2.302
		c-0.692,3.562,6.201,1.371,5.302,6.002c-0.405,2.083-2.732,4.33-5.774,4.33c-1.672,0-2.678-0.466-3.359-0.904
		c0.31-0.466,0.803-1.452,0.909-2.001H209.105z"/>
	<path style="fill:#004B9C;" d="M219.765,232.544c0.239,0.74,1.194,1.892,2.729,1.892c1.371,0,2.824-0.85,3.138-2.467
		c0.661-3.398-6.195-1.397-5.296-6.029c0.464-2.384,2.448-4.138,5.354-4.138c1.343,0,2.097,0.493,2.893,0.768
		c-0.402,0.521-0.9,1.534-1.035,1.945h-0.329c-0.104-0.877-0.849-1.699-2.082-1.699c-1.068,0-2.462,0.686-2.776,2.302
		c-0.692,3.562,6.201,1.371,5.302,6.002c-0.405,2.083-2.732,4.33-5.774,4.33c-1.672,0-2.678-0.466-3.359-0.904
		c0.309-0.466,0.803-1.452,0.909-2.001H219.765z"/>
	<path style="fill:#004B9C;" d="M231.832,226.433c0.251-1.288,0.522-2.822,0.792-4.357c0.368,0.083,0.768,0.138,1.124,0.138
		c0.356,0,0.751-0.055,1.15-0.138c-0.579,2.138-1.232,4.934-1.754,7.619c-0.368,1.891-0.16,2.795,0.205,3.315
		c0.409,0.576,1.091,1.015,2.159,1.015c1.535,0,2.726-0.768,3.383-1.754c0.777-1.179,0.848-1.397,1.684-5.7
		c0.287-1.48,0.618-3.18,0.818-4.495c0.368,0.083,0.714,0.138,1.124,0.138c0.411,0,0.778-0.055,1.15-0.138
		c-0.718,2.851-1.246,5.427-1.811,8.331c-0.314,1.617-0.601,3.234-0.816,4.769c-0.341-0.082-0.687-0.137-1.043-0.137
		c-0.355,0-0.723,0.055-1.095,0.137c0.209-0.794,0.363-1.589,0.513-2.356h-0.055c-1.263,1.699-3.061,2.631-4.787,2.631
		c-2.85,0-4.257-1.645-3.703-4.494C231.244,229.037,231.571,227.776,231.832,226.433z"/>
	<path style="fill:#004B9C;" d="M253.672,224.324c-0.149-0.22-0.709-0.439-1.258-0.439c-1.754,0-3.12,1.671-3.535,3.809
		c-0.927,4.769-1.209,6.221-1.344,7.481c-0.341-0.082-0.714-0.137-1.07-0.137c-0.384,0-0.75,0.055-1.178,0.137
		c0.371-1.343,0.786-3.48,1.383-6.55l0.171-0.877c0.276-1.425,0.644-3.315,0.992-5.673c0.395,0.083,0.741,0.138,1.124,0.138
		c0.357,0,0.751-0.055,1.123-0.138c-0.393,1.315-0.521,1.974-0.653,2.659l0.05,0.027c1.425-1.974,2.932-2.96,4.192-2.96
		c0.329,0,0.516,0.027,0.845,0.164c-0.277,0.438-0.479,1.48-0.623,2.22L253.672,224.324z"/>
	<path style="fill:#004B9C;" d="M262.165,221.802c3.837,0,5.178,2.549,4.587,5.591c-0.069,0.355-0.166,0.712-0.263,1.068
		c-1.968-0.027-3.903-0.082-5.849-0.082c-1.206,0-2.395,0.055-3.605,0.082c-0.081,0.274-0.129,0.521-0.177,0.768
		c-0.554,2.85,0.714,5.069,3.756,5.069c1.452,0,3.316-0.85,4.488-1.945l0.121,0.082l-0.425,1.343
		c-1.267,0.877-3.203,1.672-4.901,1.672c-3.946,0-6.116-2.795-5.408-6.441C255.351,224.57,258.136,221.802,262.165,221.802z
		 M257.292,227.42c1.118,0.027,2.395,0.082,3.547,0.082c1.205,0,2.504-0.055,3.66-0.082c0.378-1.946,0.4-4.741-2.449-4.741
		C259.364,222.679,257.812,225.447,257.292,227.42z"/>
	<path style="fill:#004B9C;" d="M278.8,232.244c0.85,0,1.423,0.712,1.258,1.561c-0.165,0.85-1.016,1.562-1.865,1.562
		c-0.85,0-1.424-0.713-1.259-1.562C277.099,232.956,277.951,232.244,278.8,232.244z M278.893,230.352
		c0.573-5.207,1.359-12.496,1.477-13.1c0.192-0.986,0.919-1.343,1.604-1.343c0.685,0,1.273,0.356,1.082,1.343
		c-0.117,0.604-2.164,7.893-3.614,13.1H278.893z"/>
</g>
<g>
	<path style="fill:#004B9C;" d="M11.031,148.053c-1.728,11.801-2.47,23.676-3.291,35.484c-1.32-0.23-2.634-0.393-3.87-0.393
		c-1.317,0-2.552,0.162-3.87,0.393c3.456-17.976,6.175-35.959,8.481-53.935c1.148,0.232,2.221,0.392,3.373,0.392
		c1.069,0,2.222-0.159,3.293-0.392c6.005,12.426,13.003,26.346,19.012,37.363c6.501-11.645,13.253-24.938,19.18-37.363
		c1.15,0.232,2.387,0.392,3.538,0.392c1.154,0,2.306-0.159,3.458-0.392c2.14,17.976,5.021,42.916,7.08,53.935
		c-2.226-0.23-4.45-0.393-6.671-0.393c-2.222,0-4.523,0.162-6.829,0.393c-0.576-10.867-1.978-24.155-3.295-36.268h-0.16
		c-6.177,12.112-12.27,24.15-18.193,36.268c-0.494-0.075-1.069-0.156-1.566-0.156c-0.491,0-1.067,0.081-1.562,0.156
		c-5.843-11.809-11.77-23.684-17.947-35.484H11.031z"/>
	<path style="fill:#004B9C;" d="M75.809,150.161c4.444-3.516,10.206-5.475,15.39-5.475c8.729,0,15.064,3.525,15.064,12.743
		c0,6.648-0.25,12.116-0.25,17.748c0,4.927,1.484,5.396,4.855,5.396v1.863c-3.124,1.57-5.021,2.12-7.567,2.12
		c-4.036,0-6.505-2.195-7.823-5.703c-2.549,3.278-5.68,5.703-10.699,5.703c-8.315,0-11.772-5.245-11.772-10.245
		c0-6.802,4.775-9.688,12.185-11.404c9.219-2.12,10.043-2.737,10.043-5.554c0-3.759-2.962-6.802-7.902-6.802
		c-3.788,0-8.23,2.109-9.879,4.302h-0.576L75.809,150.161z M95.4,163.212c-4.693,2.504-10.868,2.112-10.868,10.008
		c0,3.829,1.812,5.938,4.69,5.938c3.626,0,6.095-2.654,6.095-7.737C95.317,166.891,95.4,165.007,95.4,163.212z"/>
	<path style="fill:#004B9C;" d="M138.943,146.095c-0.17,0.779-0.251,1.408-0.251,2.116c0,0.624,0.081,1.324,0.251,1.949
		l-7.246-0.157c-0.328,4.688-0.577,13.209-0.577,17.433c0,10.863,0.822,12.668,4.611,12.668c2.058,0,2.796-0.235,3.784-0.792v3.211
		c-2.139,1.247-5.847,2.034-8.972,2.034c-6.833,0-10.455-4.22-10.455-12.12c0-6.017,0.577-15.788,0.577-22.358l-5.764,0.082
		c0.166-0.625,0.249-1.325,0.249-1.949c0-0.708-0.083-1.337-0.249-2.116l5.764,0.233c0-3.283-0.082-5.629-0.33-9.609
		c3.787-1.487,7.575-3.128,11.278-4.851l0.825,0.552c-0.413,3.358-0.742,9.146-0.742,13.836L138.943,146.095z"/>
	<path style="fill:#004B9C;" d="M156.714,151.562h0.17c3.041-4.221,7.234-6.876,12.425-6.876c4.938,0,8.558,2.655,10.528,7.431
		c3.294-4.775,7.913-7.431,12.764-7.431c8.226,0,12.846,4.379,12.846,14.388c0,5.317-0.334,9.067-0.334,13.126
		c0,3.292,0.247,7.346,0.418,11.338c-1.408-0.23-3.796-0.393-6.18-0.393c-2.387,0-4.774,0.162-6.172,0.393
		c0.739-5.63,0.905-13.13,0.905-22.434c0-6.487-2.475-9.542-6.746-9.542c-5.357,0-6.501,5.24-6.501,8.992v5.632
		c0,6.333,0.164,11.879,0.655,17.352c-1.404-0.156-3.626-0.393-6.17-0.393c-2.559,0-4.696,0.236-6.177,0.393
		c0.493-5.473,0.664-11.019,0.664-17.352v-4.766c0-6.26-1.4-9.858-5.773-9.858c-4.936,0-7.153,4.305-7.153,11.492v3.132
		c0,6.333,0.163,11.879,0.65,17.352c-1.389-0.156-3.616-0.393-6.167-0.393c-2.551,0-4.695,0.236-6.179,0.393
		c0.496-5.473,0.662-11.019,0.662-17.352v-3.132c0-6.325-0.166-11.88-0.662-17.351c1.975,0.163,3.875,0.392,5.846,0.392
		c1.972,0,3.871-0.229,6.013-0.392L156.714,151.562z"/>
	<path style="fill:#004B9C;" d="M240.26,177.674h-0.163c-3.046,4.221-7.247,6.883-12.433,6.883c-8.226,0-12.842-4.374-12.842-14.389
		c0-5.311,0.329-9.064,0.329-13.133c0-3.277-0.246-7.349-0.404-11.332c1.396,0.236,3.782,0.392,6.171,0.392
		c2.379,0,4.77-0.155,6.179-0.392c-0.746,5.625-0.913,13.138-0.913,22.438c0,6.487,2.472,9.533,6.759,9.533
		c4.93,0,7.154-4.296,7.154-11.488v-3.132c0-6.325-0.17-11.88-0.658-17.351c1.395,0.163,3.616,0.392,6.171,0.392
		c2.554,0,4.684-0.229,6.167-0.392c-0.488,5.471-0.648,11.025-0.648,17.351v3.132c0,6.333,0.159,11.879,0.648,17.352
		c-1.971-0.156-3.862-0.393-5.834-0.393c-1.983,0-3.875,0.236-6.016,0.393L240.26,177.674z"/>
	<path style="fill:#004B9C;" d="M282.898,146.095c-0.167,0.779-0.25,1.408-0.25,2.116c0,0.624,0.083,1.324,0.25,1.949l-7.247-0.157
		c-0.333,4.688-0.567,13.209-0.567,17.433c0,10.863,0.81,12.668,4.605,12.668c2.059,0,2.795-0.235,3.779-0.792v3.211
		c-2.134,1.247-5.846,2.034-8.971,2.034c-6.826,0-10.445-4.22-10.445-12.12c0-6.017,0.57-15.788,0.57-22.358l-5.763,0.082
		c0.167-0.625,0.246-1.325,0.246-1.949c0-0.708-0.079-1.337-0.246-2.116l5.763,0.233c0-3.283-0.084-5.629-0.33-9.609
		c3.784-1.487,7.58-3.128,11.274-4.851l0.829,0.552c-0.411,3.358-0.745,9.146-0.745,13.836L282.898,146.095z"/>
</g>
<rect x="0.093" y="195.298" style="fill:#004B9C;" width="283.312" height="2.445"/>
<path style="fill:#E5004B;" d="M256.42,75.974C256.568,76.059,256.285,75.886,256.42,75.974L256.42,75.974
	C256.202,75.832,256.652,76.116,256.42,75.974c-24.053-15.025-53.623-22.39-84.932-23.673c0.055-0.995,0.125-1.994,0.242-3
	C202.943,50.598,232.218,61.186,256.42,75.974L256.42,75.974z"/>
<path style="fill:#F9B122;" d="M27.577,96.469C48.672,80.241,75.73,67.874,103.656,60.24v-3.111
	C73.878,65.158,48.917,78.84,27.577,96.469"/>
<path style="fill:#004B9C;" d="M136.534,58.516c-0.231-1.572-0.225-3.166-0.04-4.757c-6.592,0.804-13.219,1.915-19.854,3.328
	c0.226,2.001,0.347,4.013,0.347,6.013c0,6.428-1.162,12.771-3.422,18.649l20.521,14.789c1.562-1.431,3.259-2.844,5.083-4.201
	c9.546-7.071,21.745-11.804,25.925-6.904l6.507-4.684C152.989,79.657,138.347,70.954,136.534,58.516z"/>
<path style="fill:#F9B122;" d="M112.947,20.855c2.391-0.733,4.822-1.592,7.249-2.608c11.802-4.93,20.025-11.405,23.627-16.851
	L141.885,0L112.947,20.855z"/>
<path style="fill:#56AF31;" d="M162.619,87.22c-2.5-2.261-11.947,0.338-21.653,7.536c-1.552,1.148-3.014,2.356-4.375,3.589
	l5.295,3.813L162.619,87.22z"/>
<radialGradient id="SVGID_1_" cx="128.4605" cy="124.1067" r="52.5503" gradientTransform="matrix(0.4216 0 0 0.4214 78.4597 -30.332)" gradientUnits="userSpaceOnUse">
	<stop  offset="0.15" style="stop-color:#009FE3"/>
	<stop  offset="0.266" style="stop-color:#0098DD"/>
	<stop  offset="0.5" style="stop-color:#0085CC"/>
	<stop  offset="0.8277" style="stop-color:#0061AD"/>
	<stop  offset="1" style="stop-color:#004B9C"/>
</radialGradient>
<path style="fill:url(#SVGID_1_);" d="M146.225,3.127c-4.235,6.322-13.254,13.05-24.866,17.898
	c-4.94,2.066-9.871,3.568-14.482,4.486c-0.145,0.028-0.287,0.054-0.432,0.081c-0.875,0.167-1.73,0.311-2.582,0.438
	c-0.532,0.079-1.074,0.156-1.602,0.216c0.553,0.574,1.078,1.179,1.602,1.778c0.897,1.02,1.764,2.066,2.582,3.163
	c0.149,0.196,0.289,0.4,0.432,0.599c3.926,5.415,6.92,11.722,8.608,18.718c0.288,1.192,0.524,2.392,0.729,3.595
	c6.979-1.478,13.95-2.63,20.884-3.449c0.771-2.708,2.124-5.394,4.052-7.973c6.773-9.05,19.557-15.832,34.457-18.375L146.225,3.127z"
	/>
<radialGradient id="SVGID_2_" cx="77.1428" cy="177.6983" r="65.6266" gradientTransform="matrix(0.4216 0 0 0.4214 78.4597 -30.332)" gradientUnits="userSpaceOnUse">
	<stop  offset="0" style="stop-color:#FFDD00"/>
	<stop  offset="1" style="stop-color:#F28C00"/>
</radialGradient>
<path style="fill:url(#SVGID_2_);" d="M113.677,57.737c-0.107-1-0.246-1.996-0.412-2.992c-0.197-1.182-0.422-2.362-0.709-3.536l0,0
	c-1.223-5.068-3.167-9.756-5.68-13.972c-0.142-0.242-0.283-0.479-0.432-0.711v14.553v5.304v3.113v17.128l0.432,0.309l4.15,2.988
	C113.572,72.958,114.49,65.329,113.677,57.737z"/>
<radialGradient id="SVGID_3_" cx="181.5435" cy="223.3492" r="37.1214" gradientTransform="matrix(0.4216 0 0 0.4214 78.4597 -30.332)" gradientUnits="userSpaceOnUse">
	<stop  offset="0" style="stop-color:#DEDD21"/>
	<stop  offset="0.3273" style="stop-color:#AECA28"/>
	<stop  offset="0.6226" style="stop-color:#83BC2E"/>
	<stop  offset="0.8566" style="stop-color:#63B330"/>
	<stop  offset="1" style="stop-color:#56AF31"/>
</radialGradient>
<path style="fill:url(#SVGID_3_);" d="M174.113,76.879c-1.053-1.801-1.97-3.7-2.732-5.679c-0.083-0.229-0.166-0.462-0.254-0.696
	c-0.093-0.247-0.179-0.5-0.263-0.747c-1.804-5.366-2.626-11.333-2.301-17.545c-0.028-0.001-0.053-0.001-0.086-0.003
	c-9.493-0.25-19.15,0.146-28.899,1.204c-0.259,1.566-0.289,3.13-0.066,4.667c1.703,11.662,16.565,19.566,35.119,19.788
	c0.029,0,0.055,0.001,0.084,0.001C174.505,77.541,174.309,77.217,174.113,76.879z"/>
<radialGradient id="SVGID_4_" cx="187.4162" cy="150.1357" r="50.4077" gradientTransform="matrix(0.4216 0 0 0.4214 78.4597 -30.332)" gradientUnits="userSpaceOnUse">
	<stop  offset="0.1" style="stop-color:#F5B1C4"/>
	<stop  offset="0.2032" style="stop-color:#F39DAF"/>
	<stop  offset="0.4717" style="stop-color:#ED697F"/>
	<stop  offset="0.7037" style="stop-color:#E83D60"/>
	<stop  offset="0.8874" style="stop-color:#E61A51"/>
	<stop  offset="1" style="stop-color:#E5004B"/>
</radialGradient>
<path style="fill:url(#SVGID_4_);" d="M176.339,27.235c-14.067,2.369-26.525,8.885-32.779,17.245
	c-1.42,1.902-2.466,3.854-3.171,5.82c9.546-0.987,19.02-1.349,28.321-1.095c0.045,0,0.074,0,0.116,0.002
	c0.286-2.532,0.749-5.086,1.425-7.648c1.379-5.264,3.508-10.085,6.175-14.341C176.393,27.224,176.367,27.231,176.339,27.235z"/>
<g>
	<path style="fill:#FFFFFF;" d="M121.359,21.025c11.612-4.848,20.631-11.575,24.866-17.898l-2.402-1.731
		c-3.602,5.445-11.825,11.92-23.627,16.851c-2.427,1.016-4.858,1.875-7.249,2.608l-6.07,4.374l-0.432,0.31v0.053
		c0.145-0.027,0.287-0.053,0.432-0.081C111.488,24.593,116.419,23.091,121.359,21.025z"/>
	<path style="fill:#FFFFFF;" d="M175.606,24.302c-14.9,2.543-27.684,9.325-34.457,18.375c-1.928,2.579-3.28,5.264-4.052,7.973
		c-6.934,0.819-13.904,1.971-20.884,3.449c-0.204-1.204-0.44-2.403-0.729-3.595c-1.688-6.996-4.683-13.303-8.608-18.718
		c-0.143-0.199-0.282-0.403-0.432-0.599v5.339c0.148,0.233,0.29,0.47,0.432,0.711c2.513,4.215,4.457,8.903,5.68,13.972l0,0
		c0.287,1.174,0.512,2.354,0.709,3.536c0.166,0.997,0.305,1.993,0.412,2.992c0.812,7.592-0.105,15.221-2.65,22.184l2.537,1.828
		c2.26-5.878,3.422-12.222,3.422-18.649c0-2-0.121-4.012-0.347-6.013c6.636-1.413,13.263-2.524,19.854-3.328
		c-0.185,1.591-0.191,3.185,0.04,4.757c1.813,12.438,16.455,21.141,35.066,22.234l3.322-2.4l0.07-0.043
		c-0.096-0.145-0.183-0.292-0.278-0.439c-0.029,0-0.055-0.001-0.084-0.001c-18.554-0.221-33.416-8.126-35.119-19.788
		c-0.223-1.537-0.192-3.1,0.066-4.667c9.749-1.059,19.406-1.454,28.899-1.204c0.033,0.002,0.058,0.002,0.086,0.003
		c0.055-0.996,0.145-1.996,0.264-3.005c-0.042-0.002-0.071-0.002-0.116-0.002c-9.301-0.254-18.775,0.107-28.321,1.095
		c0.705-1.966,1.751-3.918,3.171-5.82c6.254-8.359,18.712-14.875,32.779-17.245c0.027-0.004,0.054-0.011,0.087-0.017
		c0.296-0.469,0.592-0.932,0.896-1.39v-0.101v-0.188L175.606,24.302z"/>
	<path style="fill:#FFFFFF;" d="M139.169,92.337c-1.824,1.357-3.521,2.771-5.083,4.201l2.505,1.807
		c1.361-1.232,2.823-2.44,4.375-3.589c9.706-7.198,19.153-9.797,21.653-7.536l2.475-1.787
		C160.914,80.533,148.714,85.267,139.169,92.337z"/>
</g>
</svg>
