<?xml version="1.0" encoding="utf-8"?>
<!-- Generator: Adobe Illustrator 22.1.0, SVG Export Plug-In . SVG Version: 6.00 Build 0)  -->
<svg version="1.1" id="LOGO" xmlns="http://www.w3.org/2000/svg" xmlns:xlink="http://www.w3.org/1999/xlink" x="0px" y="0px"
	 viewBox="0 0 741.5 203.3" style="enable-background:new 0 0 741.5 203.3;" xml:space="preserve">
<style type="text/css">
	.st0{fill:#E30613;}
	.st1{fill:#FFFFFF;}
</style>
<path id="T" class="st0" d="M13,0h128.8c2.8,0,4.2,1.2,4.2,3.6c0,0.3-0.1,0.9-0.2,1.7l-6.3,30c-0.7,3.5-2.8,5.3-6.3,5.3H91
	L63.2,171.1c-0.7,3.5-2.8,5.2-6.3,5.2H22.6c-3,0-4.4-1.2-4.4-3.6c0-0.2,0.1-0.8,0.2-1.6L46.2,40.7H4.3c-2.9,0-4.3-1.2-4.3-3.6
	c0-0.3,0.1-0.9,0.2-1.7l6.3-30C7.3,1.8,9.4,0,13,0z M108.4,88.8c1.2-1.2,2.4-1.9,3.7-1.9h63.6c2.7,0,4.1,1.4,4.1,4.2
	c0,0.4-0.1,1.1-0.2,2.1l-3.9,23c-0.3,2-1.1,3.5-2.3,4.5c-1.2,1-2.7,1.5-4.3,1.5h-63c-1,0-1.9-0.4-2.7-1.2c-0.8-0.8-1.2-2-1.2-3.5
	c0-0.6,0-1,0.1-1.4l3.8-22.5C106.4,91.6,107.2,90,108.4,88.8z"/>
<path id="REX" class="st1" d="M223.4,1.6c1.1-1.1,2.5-1.6,4.1-1.6h76.3c9.6,0,17.9,2.2,25,6.7c7.1,4.4,12.5,10.4,16.3,17.8
	c3.8,7.4,5.7,15.5,5.7,24.4c0,3.7-0.3,7.2-0.9,10.4c-1.9,10.9-6.4,20.5-13.5,28.9c-7.1,8.4-15.7,15-25.8,19.7l20.5,63.3
	c0.2,0.7,0.2,1.1,0.2,1.4c0,1.1-0.4,2-1.1,2.7s-1.8,1.1-3.1,1.1h-39.1c-1.6,0-2.8-0.3-3.5-1c-0.7-0.7-1.3-2-1.9-4L266,117.7h-22.9
	l-11.4,53.4c-0.7,3.5-2.8,5.2-6.2,5.2h-35.5c-2.9,0-4.3-1.2-4.3-3.5c0-0.3,0.1-0.9,0.2-1.7L221.2,5.3C221.5,3.9,222.3,2.7,223.4,1.6
	z M251.2,79.7h27.6c4,0,7.9-1,11.5-3c3.6-2,6.7-4.7,9.2-8c2.5-3.3,4.1-6.8,4.9-10.4c0.3-1.4,0.5-3,0.5-4.8c0-4.7-1.4-8.7-4.1-11.9
	c-2.8-3.3-6.7-4.9-11.7-4.9h-28.8L251.2,79.7z M337.5,173.3c0-0.2,0.1-0.6,0.2-1.3l24.9-117c0.3-1.4,1-2.4,2.1-3.2
	c1-0.8,2.1-1.1,3.2-1.1h85.3c2.4,0,3.6,1,3.6,2.9c0,0.3-0.1,0.8-0.2,1.4l-4.7,22c-0.5,2.9-2.2,4.3-5.2,4.3h-53.9l-3.6,16.8h43.1
	c2.1,0,3.1,0.9,3.1,2.6c0,0.5,0,0.9-0.1,1.1l-4.6,21.5c-0.5,2.5-2,3.8-4.5,3.8H383l-3.9,18.7h56.6c2.4,0,3.6,1,3.6,2.9
	c0,0.3-0.1,0.8-0.2,1.4l-4.7,21.8c-0.5,2.9-2.2,4.3-5.1,4.3h-88C338.8,176.3,337.5,175.3,337.5,173.3z M459.7,56.4
	c-0.4-0.8-0.6-1.6-0.6-2.3c0-1,0.4-1.9,1.2-2.5c0.8-0.6,1.9-1,3.3-1H492c1.6,0,2.8,0.3,3.4,1c0.6,0.7,1.3,1.8,2,3.3l13,30l25.6-30
	c1.4-1.6,2.5-2.7,3.4-3.3c0.9-0.6,2.2-1,3.8-1h33.5c2.1,0,3.2,0.7,3.2,2.2c0,1.2-0.6,2.4-1.7,3.6l-52.8,58.3l25.8,53.1
	c0.7,1.4,1,2.6,1,3.8c0,1.4-0.4,2.5-1.3,3.3c-0.9,0.9-2.3,1.3-4.2,1.3h-27.5c-2.5,0-4.4-1.4-5.6-4.3l-12.8-31.2L476.1,172
	c-2.3,2.9-4.8,4.3-7.3,4.3h-30.7c-1.4,0-2.5-0.3-3.2-0.9c-0.7-0.6-1-1.4-1-2.4c0-0.9,0.2-1.9,0.7-2.9c0.5-1.1,1.2-2,2.1-2.9
	l48.5-55.2L459.7,56.4z"/>
<path id="EMPREINTE" class="st1" d="M681.1,130.1v-13.2c0-5.2-4.2-9.4-9.4-9.4s-9.4,4.2-9.4,9.4v11.9c0,14.3-5.3,28.1-14.9,38.7
	l-13.2,14.7c-1.1,1.2-1,3.1,0.2,4.2c1.2,1.1,3.1,1,4.2-0.2l13.2-14.7c10.6-11.8,16.4-26.9,16.4-42.8v-11.9c0-1.9,1.5-3.4,3.4-3.4
	s3.4,1.5,3.4,3.4v13.2c0,17.6-6.5,34.5-18.4,47.6l-12.9,14.2c-1.1,1.2-1,3.1,0.2,4.2c0.6,0.5,1.3,0.8,2,0.8c0.8,0,1.6-0.3,2.2-1
	l12.9-14.2C674,167.5,681.1,149.2,681.1,130.1z M693.9,116.9c0-12.3-10-22.2-22.2-22.2s-22.2,10-22.2,22.2v11.9
	c0,11.2-4.1,21.9-11.6,30.2l-9.4,10.4c-1.1,1.2-1,3.1,0.2,4.2c1.2,1.1,3.1,1,4.2-0.2l9.4-10.4c8.5-9.4,13.1-21.5,13.1-34.2v-11.9
	c0-8.9,7.3-16.2,16.2-16.2s16.2,7.3,16.2,16.2v13.2c0,20.8-7.7,40.8-21.7,56.2l-10.9,12c-1.1,1.2-1,3.1,0.2,4.2
	c0.6,0.5,1.3,0.8,2,0.8c0.8,0,1.6-0.3,2.2-1l10.9-12c15-16.5,23.3-37.9,23.3-60.2V116.9z M706.7,116.9c0-19.3-15.7-35.1-35.1-35.1
	s-35.1,15.7-35.1,35.1v11.9c0,8-2.9,15.6-8.3,21.6l-8.5,9.4c-1.1,1.2-1,3.1,0.2,4.2c1.2,1.1,3.1,1,4.2-0.2l8.5-9.4
	c6.3-7,9.8-16.1,9.8-25.6v-11.9c0-16,13-29.1,29.1-29.1c16,0,29.1,13,29.1,29.1v13.2c0,24-8.9,47-25.1,64.8l-3,3.3
	c-1.1,1.2-1,3.1,0.2,4.2c0.6,0.5,1.3,0.8,2,0.8c0.8,0,1.6-0.3,2.2-1l3-3.3c17.2-18.9,26.6-43.3,26.6-68.9L706.7,116.9L706.7,116.9z
	 M623.8,116.9c0,1.7,1.3,3,3,3c1.7,0,3-1.3,3-3c0-10.1,3.7-19.9,10.3-27.5c6.6-7.6,15.7-12.5,25.5-13.9c1.6-0.2,2.8-1.8,2.5-3.4
	c-0.2-1.6-1.8-2.8-3.4-2.5c-11.3,1.6-21.7,7.3-29.2,15.9C628,94.2,623.8,105.3,623.8,116.9z M629.8,128.8c0-1.7-1.3-3-3-3
	c-1.7,0-3,1.3-3,3c0,4.8-1.8,9.4-5,13l-7.5,8.4c-1.1,1.2-1,3.1,0.2,4.2c0.6,0.5,1.3,0.8,2,0.8c0.8,0,1.6-0.3,2.2-1l7.5-8.4
	C627.4,141.1,629.8,135.1,629.8,128.8z M713.6,155.6c-1.6-0.4-3.2,0.5-3.7,2.1c-1.1,4.2-2.5,8.5-4.1,12.5c-0.6,1.5,0.1,3.3,1.7,3.9
	c0.4,0.1,0.7,0.2,1.1,0.2c1.2,0,2.3-0.7,2.8-1.9c1.7-4.3,3.2-8.7,4.3-13.2C716.2,157.7,715.2,156.1,713.6,155.6z M703.6,81.3
	c-1.2-1.1-3.1-1-4.2,0.2s-1,3.1,0.2,4.2c8.8,7.9,13.9,19.3,13.9,31.1v13.2c0,5-0.3,10-1,15c-0.2,1.6,0.9,3.2,2.6,3.4
	c0.1,0,0.3,0,0.4,0c1.5,0,2.8-1.1,3-2.6c0.7-5.2,1.1-10.5,1.1-15.8v-13.2C719.5,103.4,713.7,90.4,703.6,81.3z M689.6,79.1
	c0.4,0.2,0.9,0.3,1.3,0.3c1.1,0,2.2-0.6,2.7-1.7c0.7-1.5,0.1-3.3-1.4-4c-4.3-2.1-8.9-3.5-13.7-4.1c-1.6-0.2-3.2,0.9-3.4,2.5
	s0.9,3.2,2.5,3.4C681.8,76.1,685.8,77.3,689.6,79.1z M671.6,56.2c-1.1,0-2.3,0-3.4,0.1c-1.7,0.1-2.9,1.5-2.8,3.2
	c0.1,1.7,1.5,2.9,3.2,2.8c1-0.1,2-0.1,3-0.1c30.2,0,54.7,24.5,54.7,54.7v13.2c0,1.7,1.3,3,3,3s3-1.3,3-3v-13.2
	C732.3,83.4,705.1,56.2,671.6,56.2z M638.8,72.5c0.6,0,1.2-0.2,1.7-0.5c5-3.5,10.5-6.1,16.3-7.7c1.6-0.5,2.5-2.1,2.1-3.7
	c-0.5-1.6-2.1-2.5-3.7-2.1c-6.5,1.8-12.6,4.7-18.1,8.6c-1.4,0.9-1.7,2.8-0.8,4.2C636.9,72.1,637.8,72.5,638.8,72.5z M616.9,128.8
	v-11.9c0-14,5.3-27.3,14.9-37.5c1.1-1.2,1.1-3.1-0.1-4.2s-3.1-1.1-4.2,0.1c-10.7,11.3-16.5,26.1-16.5,41.6v11.9
	c0,1.6-0.6,3.2-1.7,4.4l-3.7,4.1c-1.1,1.2-1,3.1,0.2,4.2c0.6,0.5,1.3,0.8,2,0.8c0.8,0,1.6-0.3,2.2-1l3.7-4.1
	C615.8,134.9,616.9,131.9,616.9,128.8z M741.4,93.5c-3.3-9.8-8.5-18.6-15.6-26.3c-1.1-1.2-3-1.3-4.2-0.2c-1.2,1.1-1.3,3-0.2,4.2
	c6.5,7,11.3,15.2,14.3,24.2c0.4,1.3,1.6,2,2.8,2c0.3,0,0.6-0.1,1-0.2C741,96.8,741.9,95.1,741.4,93.5z M695.4,47.3
	c-1.6-0.5-3.3,0.3-3.8,1.9c-0.5,1.6,0.3,3.3,1.9,3.8c6.6,2.3,12.8,5.6,18.5,9.8c0.5,0.4,1.2,0.6,1.8,0.6c0.9,0,1.8-0.4,2.4-1.2
	c1-1.3,0.7-3.2-0.6-4.2C709.4,53.4,702.6,49.8,695.4,47.3z M624.9,68.2c12.6-12.1,29.2-18.8,46.7-18.8c3.2,0,6.5,0.2,9.7,0.7
	c1.6,0.2,3.2-0.9,3.4-2.5c0.2-1.6-0.9-3.2-2.5-3.4c-3.5-0.5-7-0.8-10.6-0.8c-19,0-37.1,7.3-50.9,20.5C607.1,77,599,94.7,598.2,113.6
	c-0.1,1.7,1.2,3.1,2.9,3.1c0,0,0.1,0,0.1,0c1.6,0,2.9-1.3,3-2.9C605,96.5,612.3,80.3,624.9,68.2z M671.6,30.6
	c-6.7,0-13.4,0.8-19.9,2.3c-1.6,0.4-2.6,2-2.2,3.6c0.4,1.6,2,2.6,3.6,2.2c6-1.4,12.3-2.2,18.5-2.2c22,0,42.6,8.8,57.9,24.7
	c0.6,0.6,1.4,0.9,2.2,0.9c0.7,0,1.5-0.3,2.1-0.8c1.2-1.2,1.2-3.1,0.1-4.2c-8-8.3-17.4-14.8-27.9-19.4
	C695.2,33,683.6,30.6,671.6,30.6z M604.1,68c0.5,0.4,1.2,0.6,1.9,0.6c0.9,0,1.8-0.4,2.4-1.2c8.6-10.9,19.8-19.5,32.6-24.8
	c1.5-0.6,2.3-2.4,1.6-3.9c-0.6-1.5-2.4-2.3-3.9-1.6c-13.7,5.7-25.8,14.9-35,26.7C602.6,65.1,602.8,67,604.1,68z M630,33.3
	c0.4,0,0.9-0.1,1.3-0.3c12.7-6.1,26.2-9.2,40.4-9.2c7.4,0,14.7,0.9,21.8,2.6c1.6,0.4,3.2-0.6,3.6-2.2c0.4-1.6-0.6-3.2-2.2-3.6
	c-7.6-1.8-15.4-2.7-23.2-2.7c-15,0-29.5,3.3-43,9.8c-1.5,0.7-2.1,2.5-1.4,4C627.8,32.6,628.9,33.3,630,33.3z M706,30.3
	c3.1,1.2,6.2,2.7,9.1,4.2c0.4,0.2,0.9,0.4,1.4,0.4c1.1,0,2.1-0.6,2.7-1.6c0.8-1.5,0.2-3.3-1.2-4.1c-3.1-1.7-6.4-3.2-9.7-4.5
	c-1.5-0.6-3.3,0.1-3.9,1.7C703.7,28,704.5,29.7,706,30.3z"/>
</svg>
