<svg class="block h-10 w-auto transition-all duration-300 ease-in-out" id="nav-logo" viewBox="0 0 216 36" fill="#ffffff" xmlns="http://www.w3.org/2000/svg" style="height: 2.5rem;">
    <g clip-path="url(#clip0_133_15546)">
        <path d="M43.8123 35.5091C43.701 35.5091 43.6453 35.4546 43.534 35.4C43.4783 35.3455 43.4226 35.2364 43.4226 35.1273V31.2546C43.4226 31.1455 43.4783 31.0909 43.534 30.9818C43.5896 30.9273 43.701 30.8727 43.8123 30.8727H45.9834C46.0948 30.8727 46.1504 30.9273 46.2618 30.9818C46.3731 31.0364 46.3731 31.1455 46.3731 31.2546C46.3731 31.3636 46.3175 31.4182 46.2618 31.5273C46.2061 31.5818 46.0948 31.6364 45.9834 31.6364H44.1463V32.8364H45.7051C45.8164 32.8364 45.8721 32.8909 45.9834 32.9455C46.0948 33 46.0948 33.1091 46.0948 33.2182C46.0948 33.3273 46.0391 33.3818 45.9834 33.4909C45.9278 33.6 45.8164 33.6 45.7051 33.6H44.1463V34.8H45.9834C46.0948 34.8 46.1504 34.8546 46.2618 34.9091C46.3731 34.9636 46.3731 35.0727 46.3731 35.1818C46.3731 35.2909 46.3175 35.3455 46.2618 35.4546C46.2061 35.5636 46.0948 35.5637 45.9834 35.5637H43.8123V35.5091Z"></path>
        <path d="M51.4947 32.4V35.1273C51.4947 35.2364 51.439 35.2909 51.3834 35.4C51.3277 35.5091 51.2164 35.5091 51.105 35.5091C50.9937 35.5091 50.938 35.4545 50.8267 35.4C50.771 35.3455 50.7153 35.2364 50.7153 35.1273V31.3091C50.7153 31.2 50.771 31.0909 50.8267 31.0364C50.8823 30.9818 50.9937 30.9273 51.105 30.9818C51.2164 30.9818 51.272 31.0364 51.3277 31.1455L53.4988 34.0909V31.4182C53.4988 31.3091 53.5545 31.2546 53.6102 31.1455C53.6658 31.0364 53.7772 31.0364 53.8885 31.0364C53.9999 31.0364 54.0555 31.0909 54.1669 31.1455C54.2782 31.2 54.2782 31.3091 54.2782 31.4182V35.2364C54.2782 35.3455 54.2225 35.4 54.1669 35.5091C54.1112 35.5636 53.9999 35.6182 53.8885 35.6182C53.7772 35.6182 53.7215 35.5636 53.6102 35.5091L53.5545 35.4546L51.4947 32.4Z"></path>
        <path d="M63.1855 34.6909C63.1855 34.7455 63.1855 34.8 63.1298 34.8546C63.1298 34.9091 63.0742 34.9637 63.0185 35.0182C62.5731 35.3455 62.0721 35.5091 61.5154 35.5091C60.8474 35.5091 60.235 35.2909 59.7896 34.8C59.3443 34.3091 59.0659 33.7637 59.0659 33.1091C59.0659 32.4546 59.2886 31.9091 59.7896 31.4182C60.2907 30.9273 60.8474 30.7091 61.5154 30.7091C62.0721 30.7091 62.5731 30.8728 63.0185 31.2C63.1298 31.2546 63.1298 31.3637 63.1855 31.4728C63.1855 31.5818 63.1855 31.6909 63.1298 31.7455C63.0742 31.8 62.9628 31.8546 62.8515 31.9091C62.7401 31.9091 62.6288 31.9091 62.5731 31.8546C62.2391 31.6364 61.9051 31.5273 61.4597 31.5273C61.0144 31.5273 60.6247 31.6909 60.2906 32.0182C59.9566 32.3455 59.7896 32.7273 59.7896 33.1637C59.7896 33.6 59.9566 33.9818 60.2906 34.3091C60.6247 34.6364 61.0144 34.8 61.5154 34.8C61.8494 34.8 62.1278 34.6909 62.4061 34.5273V33.6546H61.4597C61.3484 33.6546 61.2927 33.6 61.1814 33.5455C61.07 33.4909 61.07 33.3818 61.07 33.2727C61.07 33.1637 61.1257 33.1091 61.1814 33C61.237 32.8909 61.3484 32.8909 61.4597 32.8909H62.7958C62.9071 32.8909 63.0185 32.9455 63.0742 33C63.1298 33.0546 63.1855 33.1637 63.1855 33.2727V34.6909Z"></path>
        <path d="M70.7567 35.2364L70.4227 34.3637H68.8082L68.4742 35.2364C68.4185 35.4 68.3072 35.4546 68.1402 35.4546C67.9732 35.4546 67.8618 35.4 67.8061 35.2909C67.7505 35.1818 67.7505 35.0727 67.7505 34.9637L69.2536 31.0909C69.3092 31.0364 69.3093 30.9818 69.4206 30.9273C69.4763 30.8727 69.5319 30.8727 69.6433 30.8727C69.8103 30.8727 69.9216 30.9273 69.9773 31.0909L71.4804 34.9637C71.5361 35.0727 71.4804 35.1818 71.4247 35.2909C71.369 35.4 71.2577 35.4546 71.0907 35.4546C70.9237 35.5091 70.8123 35.4 70.7567 35.2364ZM69.0309 33.7091H70.0886L69.5319 32.2909L69.0309 33.7091Z"></path>
        <path d="M79.6081 34.6909C79.6081 34.7455 79.6081 34.8 79.5524 34.8546C79.5524 34.9091 79.4968 34.9637 79.4411 35.0182C78.9957 35.3455 78.4947 35.5091 77.938 35.5091C77.27 35.5091 76.6576 35.2909 76.2122 34.8C75.7669 34.3091 75.4885 33.7637 75.4885 33.1091C75.4885 32.4546 75.7112 31.9091 76.2122 31.4182C76.7133 30.9273 77.27 30.7091 77.938 30.7091C78.4947 30.7091 78.9957 30.8728 79.4411 31.2C79.5524 31.2546 79.5524 31.3637 79.6081 31.4728C79.6081 31.5818 79.6081 31.6909 79.5524 31.7455C79.4968 31.8 79.3854 31.8546 79.2741 31.9091C79.1627 31.9091 79.0514 31.9091 78.9957 31.8546C78.6617 31.6364 78.3277 31.5273 77.8823 31.5273C77.437 31.5273 77.0473 31.6909 76.7133 32.0182C76.3792 32.3455 76.2122 32.7273 76.2122 33.1637C76.2122 33.6 76.3792 33.9818 76.7133 34.3091C77.0473 34.6364 77.437 34.8 77.938 34.8C78.272 34.8 78.5504 34.6909 78.8287 34.5273V33.6546H77.8823C77.771 33.6546 77.7153 33.6 77.604 33.5455C77.4926 33.4909 77.4927 33.3818 77.4927 33.2727C77.4927 33.1637 77.5483 33.1091 77.604 33C77.6597 32.8909 77.771 32.8909 77.8823 32.8909H79.2184C79.3298 32.8909 79.4411 32.9455 79.4968 33C79.5524 33.0546 79.6081 33.1637 79.6081 33.2727V34.6909Z"></path>
        <path d="M84.8411 35.5091C84.7298 35.5091 84.6741 35.4546 84.5627 35.4C84.5071 35.3455 84.4514 35.2364 84.4514 35.1273V31.2546C84.4514 31.1455 84.5071 31.0909 84.5627 30.9818C84.6184 30.9273 84.7298 30.8727 84.8411 30.8727H87.0122C87.1236 30.8727 87.1792 30.9273 87.2906 30.9818C87.4019 31.0364 87.4019 31.1455 87.4019 31.2546C87.4019 31.3636 87.3462 31.4182 87.2906 31.5273C87.2349 31.5818 87.1236 31.6364 87.0122 31.6364H85.1751V32.8364H86.7339C86.8452 32.8364 86.9009 32.8909 87.0122 32.9455C87.1236 33 87.1236 33.1091 87.1236 33.2182C87.1236 33.3273 87.0679 33.3818 87.0122 33.4909C86.9566 33.6 86.8452 33.6 86.7339 33.6H85.1751V34.8H87.0122C87.1236 34.8 87.1792 34.8546 87.2906 34.9091C87.4019 34.9636 87.4019 35.0727 87.4019 35.1818C87.4019 35.2909 87.3462 35.3455 87.2906 35.4546C87.2349 35.5636 87.1236 35.5637 87.0122 35.5637H84.8411V35.5091Z"></path>
        <path d="M99.0928 35.4L99.0371 35.4546H98.9814H98.9258C98.8701 35.4546 98.8701 35.4546 98.8701 35.4546H98.8144C98.8144 35.4546 98.8144 35.4546 98.7587 35.4L98.7031 35.3455L98.6474 35.291C98.6474 35.291 98.6474 35.291 98.6474 35.2364C98.6474 35.2364 98.6474 35.2364 98.6474 35.1819L96.9773 31.3637C96.9216 31.2546 96.9216 31.2 96.9773 31.091C97.033 30.9819 97.0886 30.9273 97.2 30.9273C97.3113 30.8728 97.367 30.8728 97.4783 30.9273C97.5897 30.9819 97.6453 31.0364 97.701 31.1455L99.0371 34.2L99.8721 32.1819C99.9278 32.0182 100.039 31.9637 100.206 31.9637C100.373 31.9637 100.485 32.0182 100.54 32.1819L101.375 34.2L102.656 31.1455C102.711 31.0364 102.767 30.9819 102.878 30.9273C102.99 30.8728 103.045 30.8728 103.157 30.9273C103.268 30.9819 103.324 31.0364 103.379 31.1455C103.435 31.2546 103.435 31.3091 103.379 31.4182L101.765 35.2364C101.765 35.291 101.709 35.2909 101.709 35.3455C101.709 35.3455 101.654 35.3455 101.654 35.4L101.598 35.4546C101.598 35.4546 101.598 35.4546 101.542 35.4546H101.487C101.431 35.4546 101.431 35.4546 101.431 35.4546H101.375C101.375 35.4546 101.32 35.4546 101.32 35.4C101.264 35.4 101.264 35.3455 101.208 35.291L101.153 35.2364L100.262 33.2182L99.3711 35.2364V35.291L99.3154 35.3455C99.1484 35.3455 99.1484 35.4 99.0928 35.4Z"></path>
        <path d="M107.833 31.2545C107.833 31.1455 107.889 31.0909 107.944 30.9818C108 30.9273 108.111 30.8727 108.223 30.8727C108.334 30.8727 108.39 30.9273 108.501 30.9818C108.612 31.0364 108.612 31.1455 108.612 31.2545V35.1273C108.612 35.2364 108.557 35.2909 108.501 35.4C108.445 35.4546 108.334 35.5091 108.223 35.5091C108.111 35.5091 108.056 35.4546 107.944 35.4C107.889 35.3455 107.833 35.2364 107.833 35.1273V31.2545Z"></path>
        <path d="M116.295 30.9818C116.351 31.0364 116.406 31.1455 116.406 31.2545C116.406 31.3636 116.351 31.4182 116.295 31.5273C116.239 31.5818 116.128 31.6364 116.016 31.6364H114.959V35.1273C114.959 35.2364 114.903 35.2909 114.847 35.4C114.792 35.4546 114.68 35.5091 114.569 35.5091C114.458 35.5091 114.402 35.4546 114.291 35.4C114.235 35.3455 114.179 35.2364 114.179 35.1273V31.6364H113.122C113.01 31.6364 112.955 31.5818 112.843 31.5273C112.788 31.4727 112.732 31.3636 112.732 31.2545C112.732 31.1455 112.788 31.0909 112.843 30.9818C112.899 30.8727 113.01 30.8727 113.122 30.8727H115.961C116.128 30.9273 116.239 30.9273 116.295 30.9818Z"></path>
        <path d="M121.472 35.4C121.416 35.4546 121.305 35.5091 121.194 35.5091C121.082 35.5091 121.027 35.4546 120.915 35.4C120.86 35.3455 120.804 35.2364 120.804 35.1273V31.2545C120.804 31.1455 120.86 31.0909 120.915 30.9818C120.971 30.9273 121.082 30.8727 121.194 30.8727C121.305 30.8727 121.361 30.9273 121.472 30.9818C121.583 31.0364 121.583 31.1455 121.583 31.2545V32.8364H123.309V31.2545C123.309 31.1455 123.365 31.0909 123.42 30.9818C123.476 30.8727 123.587 30.8727 123.699 30.8727C123.81 30.8727 123.866 30.9273 123.977 30.9818C124.088 31.0364 124.088 31.1455 124.088 31.2545V35.1273C124.088 35.2364 124.033 35.2909 123.977 35.4C123.921 35.4546 123.81 35.5091 123.699 35.5091C123.587 35.5091 123.532 35.4546 123.42 35.4C123.365 35.3455 123.309 35.2364 123.309 35.1273V33.5455H121.583V35.1273C121.583 35.2364 121.583 35.2909 121.472 35.4Z"></path>
        <path d="M134.889 35.4C134.833 35.4546 134.721 35.5091 134.61 35.5091C134.499 35.5091 134.443 35.4546 134.332 35.4C134.276 35.3455 134.22 35.2364 134.22 35.1273V31.2545C134.22 31.1455 134.276 31.0909 134.332 30.9818C134.387 30.9273 134.499 30.8727 134.61 30.8727C134.721 30.8727 134.777 30.9273 134.889 30.9818C135 31.0364 135 31.1455 135 31.2545V32.8364H136.726V31.2545C136.726 31.1455 136.781 31.0909 136.837 30.9818C136.893 30.8727 137.004 30.8727 137.115 30.8727C137.227 30.8727 137.282 30.9273 137.394 30.9818C137.505 31.0364 137.505 31.1455 137.505 31.2545V35.1273C137.505 35.2364 137.449 35.2909 137.394 35.4C137.338 35.4546 137.227 35.5091 137.115 35.5091C137.004 35.5091 136.948 35.4546 136.837 35.4C136.781 35.3455 136.726 35.2364 136.726 35.1273V33.5455H135V35.1273C135 35.2364 135 35.2909 134.889 35.4Z"></path>
        <path d="M142.738 35.5091C142.627 35.5091 142.571 35.4546 142.46 35.4C142.404 35.3455 142.348 35.2364 142.348 35.1273V31.2546C142.348 31.1455 142.404 31.0909 142.46 30.9818C142.515 30.9273 142.627 30.8727 142.738 30.8727H144.909C145.021 30.8727 145.076 30.9273 145.188 30.9818C145.299 31.0364 145.299 31.1455 145.299 31.2546C145.299 31.3636 145.243 31.4182 145.188 31.5273C145.132 31.5818 145.021 31.6364 144.909 31.6364H143.072V32.8364H144.631C144.742 32.8364 144.798 32.8909 144.909 32.9455C145.021 33 145.021 33.1091 145.021 33.2182C145.021 33.3273 144.965 33.3818 144.909 33.4909C144.854 33.6 144.742 33.6 144.631 33.6H143.072V34.8H144.909C145.021 34.8 145.076 34.8546 145.188 34.9091C145.299 34.9636 145.299 35.0727 145.299 35.1818C145.299 35.2909 145.243 35.3455 145.188 35.4546C145.132 35.5636 145.021 35.5637 144.909 35.5637H142.738V35.5091Z"></path>
        <path d="M152.369 35.2364L152.035 34.3637H150.421L150.086 35.2364C150.031 35.4 149.92 35.4546 149.752 35.4546C149.585 35.4546 149.474 35.4 149.418 35.2909C149.363 35.1818 149.363 35.0727 149.363 34.9637L150.866 31.0909C150.922 31.0364 150.922 30.9818 151.033 30.9273C151.089 30.8727 151.144 30.8727 151.256 30.8727C151.423 30.8727 151.534 30.9273 151.59 31.0909L153.093 34.9637C153.148 35.0727 153.093 35.1818 153.037 35.2909C152.981 35.4 152.87 35.4546 152.703 35.4546C152.536 35.5091 152.425 35.4 152.369 35.2364ZM150.699 33.7091H151.757L151.2 32.2909L150.699 33.7091Z"></path>
        <path d="M159.662 33.3818C159.94 33.6 160.107 33.9273 160.107 34.3091C160.107 34.4727 160.107 34.5818 160.107 34.6909C160.218 34.7455 160.274 34.8 160.33 34.9091C160.385 35.0182 160.33 35.1273 160.274 35.2364C160.218 35.3455 160.107 35.4 159.94 35.4C159.717 35.4 159.606 35.2909 159.439 35.0727C159.328 34.8545 159.272 34.6364 159.272 34.3091C159.272 34.0909 159.161 33.9273 158.994 33.8182C158.882 33.7636 158.771 33.7091 158.604 33.6545H157.825V35.0727C157.825 35.1818 157.769 35.2364 157.713 35.3454C157.658 35.4 157.546 35.4545 157.435 35.4545C157.324 35.4545 157.268 35.4 157.157 35.3454C157.101 35.2909 157.045 35.1818 157.045 35.0727V31.2C157.045 31.0909 157.101 31.0364 157.157 30.9273C157.212 30.8727 157.324 30.8182 157.435 30.8182H158.604C158.994 30.8182 159.328 30.9818 159.606 31.2545C159.884 31.5273 160.051 31.8545 160.051 32.2909C160.051 32.7273 160.051 33.1091 159.662 33.3818ZM158.771 33C158.938 33 159.105 32.9455 159.272 32.7818C159.383 32.6727 159.495 32.5091 159.495 32.2909C159.495 32.0727 159.439 31.9636 159.272 31.8C159.161 31.6909 158.994 31.5818 158.771 31.5818H157.936V32.9454H158.771V33Z"></path>
        <path d="M167.957 30.9818C168.012 31.0364 168.068 31.1455 168.068 31.2545C168.068 31.3636 168.012 31.4182 167.957 31.5273C167.901 31.5818 167.79 31.6364 167.678 31.6364H166.621V35.1273C166.621 35.2364 166.565 35.2909 166.509 35.4C166.454 35.4546 166.342 35.5091 166.231 35.5091C166.12 35.5091 166.064 35.4546 165.953 35.4C165.897 35.3455 165.841 35.2364 165.841 35.1273V31.6364H164.783C164.672 31.6364 164.616 31.5818 164.505 31.5273C164.449 31.4727 164.394 31.3636 164.394 31.2545C164.394 31.1455 164.449 31.0909 164.505 30.9818C164.561 30.8727 164.672 30.8727 164.783 30.8727H167.623C167.79 30.9273 167.845 30.9273 167.957 30.9818Z"></path>
        <path d="M9.46391 18.2727H1.55874C0.779363 18.2727 0.166992 17.6727 0.166992 16.9091C0.166992 16.1455 0.779363 15.5455 1.55874 15.5455H9.46391C13.0268 15.5455 15.9773 12.7091 15.9773 9.16365C15.9773 5.67274 13.0825 2.78184 9.46391 2.78184H1.55874C0.779363 2.78184 0.166992 2.18184 0.166992 1.4182C0.166992 0.654565 0.779363 0.0545654 1.55874 0.0545654H9.46391C14.5856 0.0545654 18.7608 4.14546 18.7608 9.16365C18.7608 14.1818 14.5299 18.2727 9.46391 18.2727Z"></path>
        <path d="M56.7835 18.2727C51.6618 18.2727 47.4866 14.1818 47.4866 9.16365C47.4866 4.14546 51.6618 0.0545654 56.7835 0.0545654C57.5629 0.0545654 58.1752 0.654565 58.1752 1.4182C58.1752 2.18184 57.5629 2.78184 56.7835 2.78184C53.2206 2.78184 50.2701 5.61819 50.2701 9.16365C50.2701 12.2182 52.4412 14.7818 55.3917 15.3818V9.16365C55.3917 8.40001 56.0041 7.80001 56.7835 7.80001C57.5629 7.80001 58.1752 8.40001 58.1752 9.16365V16.9091C58.1752 17.6727 57.5629 18.2727 56.7835 18.2727Z"></path>
        <path d="M33.1237 18.2728C32.3443 18.2728 31.7319 17.6728 31.7319 16.9091V1.47277C31.7319 0.709131 32.3443 0.109131 33.1237 0.109131C33.9031 0.109131 34.5154 0.709131 34.5154 1.47277V16.9091C34.5154 17.6728 33.9031 18.2728 33.1237 18.2728Z"></path>
        <path d="M72.5382 18.2728C71.7589 18.2728 71.1465 17.6728 71.1465 16.9091V1.47277C71.1465 0.709131 71.7589 0.109131 72.5382 0.109131C73.3176 0.109131 73.93 0.709131 73.93 1.47277V16.9091C73.93 17.6728 73.3176 18.2728 72.5382 18.2728Z"></path>
        <path d="M135.668 18.2727C130.546 18.2727 126.371 14.1818 126.371 9.16365C126.371 4.14546 130.546 0.0545654 135.668 0.0545654C140.79 0.0545654 144.965 4.14546 144.965 9.16365C144.965 14.1818 140.79 18.2727 135.668 18.2727ZM135.668 2.83639C132.105 2.83639 129.155 5.67274 129.155 9.21819C129.155 12.7091 132.049 15.6 135.668 15.6C139.287 15.6 142.181 12.7636 142.181 9.21819C142.181 5.67274 139.287 2.83639 135.668 2.83639Z"></path>
        <path d="M167.233 18.2728C166.899 18.2728 166.509 18.1637 166.231 17.8909L158.326 10.1455C157.936 9.76367 157.825 9.16367 158.047 8.67276C158.27 8.18185 158.771 7.85458 159.328 7.85458H163.28C164.672 7.85458 165.841 6.70912 165.841 5.34548C165.841 3.98184 164.672 2.8364 163.28 2.8364H159.328C158.548 2.8364 157.936 2.2364 157.936 1.47277C157.936 0.709131 158.548 0.109131 159.328 0.109131H163.28C166.231 0.109131 168.625 2.45457 168.625 5.34548C168.625 8.23639 166.231 10.5818 163.28 10.5818H162.668L168.179 15.9818C168.736 16.5273 168.736 17.4 168.179 17.8909C167.957 18.1637 167.623 18.2728 167.233 18.2728Z"></path>
        <path d="M210.656 7.85457C209.264 7.85457 208.095 6.70912 208.095 5.34548C208.095 3.98184 209.264 2.8364 210.656 2.8364H214.608C215.388 2.8364 216 2.2364 216 1.47277C216 0.709131 215.388 0.109131 214.608 0.109131H210.656C207.705 0.109131 205.311 2.45457 205.311 5.34548C205.311 8.23639 207.705 10.5818 210.656 10.5818C212.047 10.5818 213.216 11.7273 213.216 13.0909C213.216 14.4546 212.047 15.6 210.656 15.6H206.703C205.924 15.6 205.311 16.2 205.311 16.9637C205.311 17.7273 205.924 18.3273 206.703 18.3273H210.656C213.606 18.3273 216 15.9819 216 13.0909C216 10.2 213.606 7.85457 210.656 7.85457Z"></path>
        <path d="M190.893 18.2727C190.559 18.2727 190.169 18.1636 189.891 17.8909L182.041 10.1455C181.763 9.87275 181.652 9.54546 181.652 9.16365C181.652 8.78183 181.819 8.45456 182.041 8.18184L189.946 0.436374C190.503 -0.109081 191.394 -0.109081 191.895 0.436374C192.452 0.981828 192.452 1.85456 191.895 2.34546L184.992 9.10911L191.895 15.8727C192.452 16.4182 192.452 17.2909 191.895 17.7818C191.617 18.1637 191.283 18.2727 190.893 18.2727Z"></path>
        <path d="M97.0887 14.8909L90.7423 7.96367L90.6867 7.90912C90.5753 7.80003 90.464 7.69094 90.3527 7.5273C89.963 7.03639 89.7403 6.38186 89.7403 5.78186C89.7403 4.14549 91.0764 2.8364 92.7465 2.8364C93.3032 2.8364 93.8042 3.00003 94.2496 3.27276L95.697 0.927313C94.8063 0.381858 93.8042 0.109131 92.7465 0.109131C89.5733 0.109131 86.9568 2.67276 86.9568 5.78186C86.9568 7.0364 87.3465 8.18184 88.1258 9.16366L88.1815 9.21821C88.3485 9.43639 88.5155 9.65458 88.7382 9.81822L96.0867 17.8364C96.365 18.1091 96.6991 18.2728 97.1444 18.2728C97.5341 18.2728 97.9238 18.1091 98.2021 17.8364L100.485 15.3819L98.4248 13.5818L97.0887 14.8909Z"></path>
        <path d="M110.283 0.109131C108.557 0.109131 106.942 0.872754 105.885 2.07275C104.827 0.872754 103.268 0.109131 101.487 0.109131C98.3135 0.109131 95.697 2.67276 95.697 5.78186C95.697 7.0364 96.0867 8.18184 96.8661 9.16366L96.9218 9.21821C97.0888 9.43639 97.2558 9.65458 97.4785 9.81822L104.827 17.8364C105.105 18.1091 105.439 18.2728 105.885 18.2728C106.33 18.2728 106.664 18.1091 106.942 17.8364L114.291 9.81822C114.514 9.65458 114.681 9.43639 114.848 9.21821L114.903 9.16366C115.683 8.18184 116.072 6.98185 116.072 5.78186C116.017 2.67276 113.456 0.109131 110.283 0.109131ZM112.621 7.5273C112.509 7.63639 112.398 7.74548 112.287 7.85458L112.231 7.90912L105.885 14.8364L99.5383 7.90912L99.4826 7.85458C99.3713 7.74548 99.2599 7.6364 99.1486 7.47277C98.7589 6.98186 98.5362 6.32731 98.5362 5.72731C98.5362 4.09094 99.8723 2.78185 101.542 2.78185C103.212 2.78185 104.549 4.09094 104.549 5.72731C104.549 6.49094 105.161 7.09094 105.94 7.09094C106.72 7.09094 107.332 6.49094 107.332 5.72731C107.332 4.09094 108.668 2.78185 110.338 2.78185C112.008 2.78185 113.344 4.09094 113.344 5.72731C113.233 6.38185 113.066 7.03639 112.621 7.5273Z"></path>
    </g>
    <defs>
        <clipPath id="clip0_133_15546">
            <rect width="216" height="36" fill="white"></rect>
        </clipPath>
    </defs>
</svg>