<?xml version="1.0" encoding="utf-8"?>
<!-- Generator: Adobe Illustrator 27.5.0, SVG Export Plug-In . SVG Version: 6.00 Build 0)  -->
<svg version="1.1" id="Calque_1" xmlns="http://www.w3.org/2000/svg" xmlns:xlink="http://www.w3.org/1999/xlink" x="0px" y="0px"
	 viewBox="0 0 422.2 102.8" fill="#ffffff" style="enable-background:new 0 0 422.2 102.8;" xml:space="preserve">
<style type="text/css">
	.st0{stroke:#ffffff;stroke-width:1.44;stroke-linecap:round;stroke-linejoin:round;}
	.st1{stroke:#ffffff;stroke-width:0.63;}
</style>
<g>
	<path class="st0" d="M88.8,18.4c-1.4-1.5-2.9-3-4.6-4.4C63.3-3.5,31.7-0.8,14.3,19.9c-1.4,1.6-1.8,1.9-2.9,3.7L88.8,18.4L88.8,18.4
		L88.8,18.4z"/>
	<path class="st0" d="M96.6,25.7c7.5,8.3,7.1,24.1,7.1,24.1L1.9,42.7c0.8-9.6,5-13.6,5-13.6L96.6,25.7L96.6,25.7L96.6,25.7z"/>
	<path class="st0" d="M103.4,55.7C102.9,67.4,99,73.4,99,73.4L7.8,78.1C-1.4,64.7,1,49,1,49L103.4,55.7L103.4,55.7L103.4,55.7z"/>
	<g>
		<path d="M88.8,18.4c-1.4-1.5-2.9-3-4.6-4.4C63.3-3.5,31.7-0.8,14.3,19.9c-1.4,1.6-1.8,1.9-2.9,3.7L88.8,18.4L88.8,18.4L88.8,18.4z
			"/>
		<path d="M96.6,25.7c7.5,8.3,7.1,24.1,7.1,24.1L1.9,42.7c0.8-9.6,5-13.6,5-13.6L96.6,25.7L96.6,25.7L96.6,25.7z"/>
		<path d="M103.4,55.7C102.9,67.4,99,73.4,99,73.4L7.8,78.1C-1.4,64.7,1,49,1,49L103.4,55.7L103.4,55.7L103.4,55.7z"/>
		<path d="M13.6,83.5c8.5,11.2,22.8,18.6,39,18.6c18.1,0,33.8-9.2,41.7-22.7L13.6,83.5C13.6,83.5,13.6,83.5,13.6,83.5z"/>
	</g>
	<path class="st0" d="M13.6,83.5c8.5,11.2,22.8,18.6,39,18.6c18.1,0,33.8-9.2,41.7-22.7L13.6,83.5C13.6,83.5,13.6,83.5,13.6,83.5z"
		/>
</g>
<path d="M119.2,48c0,2.2,1.4,3.1,3.3,3.1s3.1-1.2,3.1-3.1V30.9c0-3,0.6-10.9,8.7-10.9c5.8,0,6.3,4.8,6.3,9.3V48
	c0,1.9,1.2,3.1,3.1,3.1c1.8,0,3.2-1.2,3.2-3.1V29.1c0-5.3,3.2-9.1,8.5-9.1s6.4,3.7,6.4,8.2V48c0,2.2,1.6,3.1,3.1,3.1
	c2,0,3.2-1.2,3.2-3.1V27.2c0-8.1-3.3-12.6-11.9-12.6c-4.9,0-7.9,2-11,5.5c-2-4-5.5-5.5-9.8-5.5s-7.5,1.5-10,4.8v-1.2
	c0-2.4-1.2-3.2-3-3.2s-3.2,1-3.2,2.9L119.2,48L119.2,48L119.2,48z M204.5,34.7c1.9,0,3.1-1.1,3.1-3.1c0-6.9-3.4-17-15.7-17
	c-11.1,0-16.7,8.7-16.7,19c0,1.9,0.4,8.4,4.5,13c3.4,3.8,7.7,4.8,12.4,4.8c5.1,0,9.8-1.7,13.1-5.7c0.8-1,1.9-2.9,1.9-3.9
	c0-1.9-1.8-2.9-3.5-2.9c-1.4,0-1.9,0.7-2.9,2.5c-1.2,2.1-3.6,4.7-8.5,4.7c-3.1,0-5.5-0.6-7.9-3.3c-2.2-2.6-2.6-6-2.6-8.1H204.5
	L204.5,34.7z M181.7,29.6c1.1-5.6,4.1-9.5,10.3-9.5c5.8,0,8.9,4.1,9.2,9.5H181.7L181.7,29.6z M196.6,4.7c0.4-0.6,0.6-1.2,0.6-1.8
	c0-1.2-1.1-2.9-3.4-2.9c-1.7,0-2.4,0.8-2.9,2l-2.1,6c-0.1,0.2-0.1,0.5-0.1,0.8c0,1.2,1.2,2.1,2.4,2.1c0.8,0,1.4-0.2,1.9-1L196.6,4.7
	L196.6,4.7L196.6,4.7z M216.8,42.2c0,6.7,2.8,8.9,9.6,8.9c1.9,0,4-0.3,4-2.7s-1.4-2.4-3.3-2.6c-3.7-0.3-4-1.9-4-5.8V20.6h4.2
	c1.7,0,2.6-1.1,2.6-2.7s-0.9-2.6-2.6-2.6h-4.2v-8c0-2-1.2-2.9-3.1-2.9c-1.8,0-3.1,0.9-3.1,2.9v8h-3.7c-1.7,0-2.6,1.1-2.6,2.6
	c0,1.6,0.8,2.7,2.6,2.7h3.6L216.8,42.2L216.8,42.2L216.8,42.2z M238.3,48.2c0,2.1,1.3,2.9,3.1,2.9c2,0,3.1-0.8,3.1-2.9V33.6
	c0-5.9,1.6-11.4,9-12.6c2.2-0.3,3.8-0.7,3.8-3.1c0-2.3-1.6-3.1-3.6-3.1c-4.1,0-7.9,2.3-9.4,6.4v-3.2c0-1.7-0.6-3.3-2.8-3.3
	c-2,0-3.1,1-3.1,2.9L238.3,48.2L238.3,48.2L238.3,48.2z M291.5,32.7c0-10.7-5.6-18-16.8-18s-17.1,7.4-17.1,18.2
	c0,7.4,2.5,18.5,16.6,18.5C289.7,51.4,291.5,39,291.5,32.7L291.5,32.7L291.5,32.7z M285.1,32.7c0,6.8-2.4,13.6-10.4,13.6
	s-10.6-6.2-10.6-13.3s2.6-13.2,10.4-13.2S285.1,25.7,285.1,32.7L285.1,32.7L285.1,32.7z M297.5,60.9c0,2,1.4,3.1,3.1,3.1
	c1.9,0,3.3-1,3.3-3.1V46.5c3.4,3.1,6.3,4.8,11.3,4.8c10.5,0,14.5-9.5,14.5-18.7s-4.9-18.1-15.3-18.1c-4.1,0-7.8,1.6-10.5,4.7v-0.8
	c0-2.2-0.8-3.6-3.3-3.6c-1.8,0-3.1,1-3.1,3.1L297.5,60.9L297.5,60.9L297.5,60.9z M323.2,32.5c0,5.7-1.2,13.8-9.5,13.8
	c-7.6,0-9.9-7.4-9.9-13.9s2.6-12.7,9.9-12.7S323.2,26.3,323.2,32.5L323.2,32.5z M368.8,32.7c0-10.7-5.6-18-16.7-18
	S335,22.1,335,32.9c0,7.4,2.5,18.5,16.6,18.5C367,51.4,368.8,39,368.8,32.7L368.8,32.7L368.8,32.7z M362.4,32.7
	c0,6.8-2.4,13.6-10.4,13.6s-10.6-6.2-10.6-13.3s2.6-13.2,10.4-13.2S362.4,25.7,362.4,32.7L362.4,32.7L362.4,32.7z M382,5.1
	c0-2-1.3-3-3.2-3s-3,1.2-3,3v43c0,2,1.2,3.1,3.2,3.1s3-1.2,3-3.1V5.1C382,5.1,382,5.1,382,5.1z M419.1,34.7c1.9,0,3.1-1.1,3.1-3.1
	c0-6.9-3.4-17-15.7-17c-11.1,0-16.7,8.7-16.7,19c0,1.9,0.3,8.4,4.5,13c3.4,3.8,7.6,4.8,12.4,4.8c5.1,0,9.8-1.7,13.1-5.7
	c0.8-1,1.9-2.9,1.9-3.9c0-1.9-1.8-2.9-3.5-2.9c-1.4,0-1.9,0.7-2.9,2.5c-1.2,2.1-3.6,4.7-8.5,4.7c-3.1,0-5.5-0.6-7.9-3.3
	c-2.2-2.6-2.6-6-2.6-8.1H419.1L419.1,34.7z M396.3,29.6c1.1-5.6,4.1-9.5,10.3-9.5c5.8,0,8.9,4.1,9.2,9.5H396.3z"/>
<path d="M239.7,74.8c-0.2-0.3-0.4-0.6-0.6-0.8s-0.5-0.4-0.7-0.5c-0.3-0.1-0.6-0.2-1-0.2c-0.5,0-1,0.1-1.4,0.4
	c-0.4,0.3-0.8,0.6-0.9,1.1c-0.2,0.4-0.2,1-0.2,1.7v16.7c0,0.8,0.2,1.4,0.6,1.9c0.4,0.4,0.9,0.6,1.5,0.6s1.1-0.2,1.5-0.6
	c0.4-0.4,0.6-1.1,0.6-1.9V80.5l8.2,12.6c0.2,0.3,0.5,0.7,0.7,1c0.2,0.3,0.5,0.6,0.8,0.9c0.3,0.2,0.6,0.4,0.9,0.5
	c0.3,0.1,0.7,0.2,1,0.2c1.6,0,2.4-0.9,2.4-2.9v-17c0-0.8-0.2-1.5-0.5-1.9c-0.4-0.4-0.9-0.6-1.5-0.6s-1.1,0.2-1.5,0.6
	c-0.4,0.4-0.5,1.1-0.5,1.9v12.9l-8.5-12.8C240.1,75.5,239.9,75.2,239.7,74.8L239.7,74.8L239.7,74.8z M262.7,74
	c-1.3,0.5-2.4,1.3-3.3,2.2c-0.9,1-1.6,2.2-2.1,3.5c-0.5,1.4-0.7,2.9-0.7,4.6s0.2,3.1,0.7,4.5c0.5,1.4,1.1,2.6,2,3.6
	c0.9,1,2,1.8,3.4,2.3c1.3,0.6,2.9,0.8,4.6,0.8s3.2-0.3,4.5-0.8c1.3-0.5,2.4-1.3,3.3-2.3c0.9-1,1.6-2.2,2-3.6
	c0.5-1.4,0.7-2.9,0.7-4.6c0-2.3-0.4-4.2-1.2-5.9c-0.8-1.7-2-3-3.6-3.9c-1.6-0.9-3.5-1.4-5.8-1.4C265.5,73.2,264,73.5,262.7,74
	L262.7,74L262.7,74z M272.6,88.7c-0.6,1.2-1.3,2-2.2,2.6c-0.9,0.6-2,0.8-3.1,0.8c-0.9,0-1.7-0.2-2.4-0.5c-0.8-0.3-1.4-0.8-2-1.5
	c-0.6-0.6-1-1.5-1.3-2.5c-0.3-1-0.5-2.1-0.5-3.3s0.2-2.3,0.5-3.3c0.3-1,0.7-1.8,1.3-2.4c0.5-0.6,1.2-1.1,1.9-1.4
	c0.7-0.3,1.6-0.5,2.4-0.5c1.2,0,2.3,0.3,3.3,0.9c1,0.6,1.7,1.5,2.2,2.6c0.5,1.2,0.8,2.5,0.8,4.1C273.4,86.1,273.1,87.6,272.6,88.7
	L272.6,88.7L272.6,88.7z M289.4,86.3c0.5,0.2,1,0.6,1.5,1.2c0.5,0.6,1.1,1.4,1.7,2.4l1.8,2.9c0.4,0.7,0.7,1.2,1,1.6
	c0.2,0.4,0.5,0.6,0.9,0.9c0.3,0.2,0.8,0.4,1.2,0.4c0.4,0,0.8-0.1,1.1-0.2c0.3-0.2,0.6-0.4,0.8-0.7c0.2-0.3,0.3-0.6,0.3-0.8
	s-0.1-0.8-0.5-1.5c-0.3-0.7-0.7-1.6-1.3-2.5c-0.5-0.9-1.2-1.8-1.9-2.6c-0.7-0.8-1.5-1.4-2.2-1.8c1.9-0.4,3.2-1.1,4.1-2.1
	c0.9-1,1.4-2.3,1.4-3.9c0-0.8-0.1-1.5-0.4-2.2s-0.7-1.3-1.2-1.9c-0.5-0.5-1.1-0.9-1.8-1.2c-0.6-0.2-1.2-0.4-1.9-0.5
	c-0.7-0.1-1.5-0.1-2.5-0.1h-7.1c-0.9,0-1.6,0.2-2,0.6c-0.4,0.4-0.6,1.1-0.6,2.1V93c0,0.9,0.2,1.5,0.6,2c0.4,0.4,0.9,0.7,1.6,0.7
	c0.6,0,1.2-0.2,1.6-0.6c0.4-0.4,0.6-1.1,0.6-2v-7h1.5C288.3,86.1,288.9,86.2,289.4,86.3L289.4,86.3L289.4,86.3z M293,77.3
	c0.5,0.2,1,0.6,1.3,1c0.3,0.5,0.5,1,0.5,1.6c0,0.8-0.2,1.4-0.6,1.8c-0.4,0.4-0.9,0.8-1.6,0.9c-0.7,0.2-1.6,0.3-2.7,0.3H286v-5.9h4
	C291.5,76.9,292.5,77.1,293,77.3L293,77.3L293,77.3z M311,93.3c0.1,0.4,0.3,0.8,0.5,1.1c0.2,0.3,0.5,0.6,0.8,0.9
	c0.4,0.2,0.8,0.3,1.3,0.3c0.7,0,1.2-0.2,1.6-0.5c0.4-0.3,0.6-0.7,0.8-1.1c0.1-0.4,0.3-1.1,0.6-2l3.5-13.8v15c0,0.8,0.2,1.4,0.6,1.9
	c0.4,0.4,0.9,0.6,1.4,0.6c0.6,0,1.1-0.2,1.5-0.6c0.4-0.4,0.5-1,0.5-1.9V76c0-0.9-0.2-1.6-0.7-1.9c-0.5-0.3-1.2-0.5-2-0.5H320
	c-0.8,0-1.4,0.1-1.8,0.2c-0.4,0.2-0.6,0.4-0.8,0.8c-0.2,0.4-0.4,1-0.6,1.9l-3.1,11.9l-3.1-11.9c-0.2-0.9-0.4-1.5-0.6-1.9
	c-0.2-0.4-0.5-0.7-0.8-0.8c-0.4-0.2-1-0.2-1.8-0.2h-1.4c-0.8,0-1.5,0.2-2,0.5c-0.5,0.3-0.7,1-0.7,1.9v17.1c0,0.8,0.2,1.4,0.6,1.9
	c0.4,0.4,0.9,0.6,1.5,0.6s1.1-0.2,1.5-0.6c0.4-0.4,0.5-1,0.5-1.9v-15l3.5,13.8C310.8,92.5,310.9,92.9,311,93.3L311,93.3L311,93.3z
	 M342.9,94c0.2,0.4,0.4,0.8,0.5,1c0.2,0.2,0.4,0.4,0.6,0.5c0.2,0.1,0.5,0.2,0.9,0.2c0.6,0,1.1-0.2,1.5-0.6c0.4-0.4,0.6-0.9,0.6-1.4
	s-0.2-1.3-0.7-2.3l-5.7-14c-0.3-0.7-0.5-1.3-0.7-1.7c-0.2-0.4-0.4-0.8-0.6-1.2c-0.3-0.4-0.6-0.7-1-0.9c-0.4-0.2-0.9-0.3-1.5-0.3
	s-1.1,0.1-1.5,0.3c-0.4,0.2-0.7,0.5-1,0.9c-0.3,0.4-0.5,0.8-0.7,1.4c-0.2,0.6-0.4,1.1-0.6,1.4l-5.5,14.1c-0.2,0.6-0.4,1-0.5,1.3
	c-0.1,0.3-0.2,0.6-0.2,0.9c0,0.5,0.2,1,0.6,1.4c0.4,0.4,0.9,0.6,1.5,0.6c0.6,0,1.1-0.2,1.4-0.6c0.3-0.4,0.6-1.1,1-2.2l1-2.8h8.8
	l1,2.7C342.6,93.2,342.7,93.6,342.9,94L342.9,94L342.9,94z M336.9,77.9l3.3,8.9h-6.5L336.9,77.9C336.9,77.9,336.9,77.9,336.9,77.9z
	 M355.4,74.8c-0.2-0.3-0.4-0.6-0.6-0.8c-0.2-0.2-0.5-0.4-0.7-0.5c-0.3-0.1-0.6-0.2-1-0.2c-0.5,0-1,0.1-1.4,0.4
	c-0.4,0.3-0.7,0.6-0.9,1.1c-0.2,0.4-0.2,1-0.2,1.7v16.7c0,0.8,0.2,1.4,0.6,1.9c0.4,0.4,0.9,0.6,1.5,0.6s1.1-0.2,1.5-0.6
	c0.4-0.4,0.6-1.1,0.6-1.9V80.5l8.2,12.6c0.2,0.3,0.5,0.7,0.7,1c0.2,0.3,0.5,0.6,0.8,0.9c0.3,0.2,0.6,0.4,0.9,0.5
	c0.3,0.1,0.7,0.2,1.1,0.2c1.6,0,2.4-0.9,2.4-2.9v-17c0-0.8-0.2-1.5-0.5-1.9c-0.4-0.4-0.9-0.6-1.5-0.6s-1.1,0.2-1.5,0.6
	c-0.4,0.4-0.5,1.1-0.5,1.9v12.9l-8.4-12.8C355.8,75.5,355.6,75.1,355.4,74.8L355.4,74.8L355.4,74.8z M374,74.3
	c-0.4,0.4-0.6,1.1-0.6,2.1v15.9c0,0.7,0,1.3,0.2,1.7c0.1,0.4,0.4,0.8,0.8,1c0.4,0.2,1,0.4,1.8,0.4h5.7c1,0,1.9-0.1,2.7-0.2
	c0.8-0.1,1.5-0.4,2.2-0.7c0.7-0.3,1.3-0.7,1.9-1.2c0.7-0.7,1.4-1.5,1.8-2.3c0.5-0.9,0.8-1.8,1-2.9c0.2-1.1,0.3-2.3,0.3-3.6
	c0-3.9-1.1-6.9-3.4-8.8c-0.9-0.8-1.8-1.3-2.9-1.5c-1.1-0.3-2.3-0.4-3.8-0.4H376C375.1,73.6,374.4,73.8,374,74.3L374,74.3L374,74.3z
	 M380.6,77.1c1.3,0,2.5,0.1,3.4,0.4c1,0.3,1.8,1,2.4,2c0.6,1.1,1,2.7,1,4.8c0,3-0.7,5.2-2.2,6.4c-0.3,0.3-0.7,0.5-1.2,0.7
	c-0.4,0.1-0.9,0.2-1.3,0.3c-0.4,0-1,0.1-1.7,0.1h-3.3V77.1C377.7,77.1,380.6,77.1,380.6,77.1z M396.5,95c0.4,0.4,0.9,0.7,1.6,0.7
	c0.7,0,1.2-0.2,1.6-0.7c0.4-0.4,0.6-1.1,0.6-2V75.9c0-0.9-0.2-1.6-0.6-2c-0.4-0.4-1-0.7-1.6-0.7s-1.2,0.2-1.6,0.7
	c-0.4,0.4-0.6,1.1-0.6,2V93C395.9,93.9,396.1,94.5,396.5,95L396.5,95L396.5,95z M421,76.5c0.4-0.3,0.5-0.7,0.5-1.2
	c0-0.5-0.2-0.9-0.5-1.2c-0.3-0.3-0.8-0.5-1.5-0.5h-11.6c-0.6,0-1.1,0.1-1.5,0.3c-0.4,0.2-0.7,0.5-0.9,0.9c-0.2,0.4-0.3,0.9-0.3,1.6
	v16.3c0,0.9,0.2,1.6,0.6,2.1c0.4,0.4,1.1,0.6,2.1,0.6h11.9c0.7,0,1.2-0.1,1.5-0.5c0.4-0.3,0.5-0.7,0.5-1.3s-0.2-0.9-0.5-1.3
	c-0.4-0.3-0.9-0.5-1.5-0.5h-10.2v-6.2h9.1c0.7,0,1.2-0.2,1.5-0.5c0.3-0.3,0.5-0.7,0.5-1.2s-0.2-0.9-0.5-1.2
	c-0.3-0.3-0.8-0.5-1.5-0.5h-9.1V77h9.9C420.2,77,420.7,76.9,421,76.5L421,76.5L421,76.5z"/>
<g>
	<path d="M202.1,85.4c0.8-0.4,1.2-1.3,1.2-2.6c0-1.5-0.4-2.9-1.1-4.3c-0.8-1.4-1.9-2.5-3.4-3.4c-1.5-0.9-3.3-1.3-5.4-1.3
		c-1.6,0-3.1,0.3-4.4,0.8c-1.3,0.5-2.4,1.2-3.4,2.2c-0.9,1-1.6,2.1-2.1,3.5c-0.5,1.4-0.7,2.8-0.7,4.4c0,3.4,1,6,2.9,8
		c1.9,2,4.6,2.9,8.1,2.9c1.5,0,2.9-0.2,4-0.6c1.2-0.4,2.1-0.9,2.9-1.5c0.8-0.6,1.3-1.2,1.7-1.9c0.4-0.6,0.6-1.2,0.6-1.7
		c0-0.6-0.2-1-0.5-1.3c-0.3-0.3-0.8-0.5-1.3-0.5c-0.5,0-0.9,0.1-1.2,0.4c-0.7,0.6-1.2,1.1-1.6,1.5c-0.4,0.4-0.9,0.7-1.4,1
		c-0.5,0.3-1,0.6-1.6,0.7c-0.5,0.1-1.1,0.2-1.8,0.2c-0.9,0-1.8-0.2-2.6-0.7c-0.8-0.5-1.4-1.2-1.9-2.1c-0.5-0.9-0.7-2-0.7-3.2h10.5
		C200.2,85.9,201.3,85.7,202.1,85.4L202.1,85.4L202.1,85.4z M189.8,78.8c0.9-0.9,1.9-1.4,3.3-1.4s2.5,0.4,3.4,1.4
		c0.9,0.9,1.4,2.3,1.5,4.1h-9.7C188.5,81.1,189,79.8,189.8,78.8L189.8,78.8L189.8,78.8z"/>
	<path d="M210.4,74.9c-0.2-0.4-0.5-0.8-0.9-1c-0.4-0.2-0.8-0.4-1.3-0.4c-0.8,0-1.4,0.3-1.8,0.8c-0.4,0.5-0.7,1.3-0.7,2.3v15.5
		c0,1.1,0.2,1.9,0.7,2.4c0.5,0.6,1.1,0.8,1.9,0.8s1.4-0.3,2-0.8c0.5-0.6,0.8-1.4,0.8-2.5v-6.7c0-2.2,0.1-3.7,0.4-4.5
		c0.4-1,0.9-1.8,1.7-2.4c0.8-0.6,1.7-0.9,2.6-0.9c1.5,0,2.4,0.5,2.9,1.4c0.5,0.9,0.7,2.3,0.7,4.1v8.9c0,1.1,0.2,1.9,0.8,2.4
		c0.5,0.6,1.1,0.8,1.9,0.8s1.4-0.3,1.9-0.8s0.7-1.4,0.7-2.4v-10c0-1.2-0.1-2.2-0.2-2.9c-0.1-0.8-0.3-1.5-0.7-2.1
		c-0.6-1.1-1.4-2-2.5-2.6c-1.1-0.6-2.4-0.9-3.8-0.9s-2.7,0.3-3.9,0.9c-1.1,0.6-2.1,1.5-3.1,2.7v-0.6
		C210.8,75.9,210.7,75.4,210.4,74.9L210.4,74.9L210.4,74.9z"/>
	<path d="M175.9,94.9c0.5,0.5,1.1,0.8,1.8,0.8s1.3-0.2,1.8-0.8c0.5-0.5,0.7-1.3,0.7-2.3V77.1c0-1.1-0.2-1.9-0.7-2.4
		c-0.5-0.5-1.1-0.8-1.9-0.8s-1.4,0.3-1.9,0.8c-0.5,0.5-0.8,1.4-0.8,2.4v6.5c0,2.6-0.1,4.2-0.5,5c-0.4,0.9-0.9,1.6-1.7,2.1
		c-0.8,0.5-1.7,0.8-2.6,0.8s-1.7-0.2-2.2-0.7c-0.5-0.5-0.9-1.1-1.1-2c-0.2-0.9-0.3-1.9-0.3-3.1v-8.6c0-1.1-0.2-1.9-0.8-2.4
		c-0.5-0.5-1.2-0.8-2-0.8s-1.4,0.3-1.9,0.8c-0.5,0.5-0.7,1.3-0.7,2.4v10.7c0,2.1,0.3,3.8,1,4.9c0.6,0.9,1.4,1.7,2.4,2.2
		c1,0.5,2.2,0.8,3.5,0.8c1.1,0,2-0.1,2.9-0.4c0.9-0.3,1.6-0.7,2.3-1.2c0.7-0.6,1.4-1.2,2-2.1v0.7C175.2,93.7,175.5,94.4,175.9,94.9
		L175.9,94.9L175.9,94.9z"/>
	<path d="M157.9,80.4c-0.5-1.3-1.2-2.5-2.1-3.5c-0.9-1-2.1-1.7-3.4-2.2c-1.3-0.5-2.8-0.8-4.4-0.8s-3.1,0.3-4.4,0.8
		c-1.3,0.5-2.5,1.3-3.4,2.2c-0.9,0.9-1.6,2.1-2.1,3.5c-0.5,1.3-0.8,2.9-0.8,4.5c0,1.6,0.2,3.1,0.7,4.4c0.5,1.3,1.2,2.5,2.2,3.5
		c0.9,1,2.1,1.7,3.4,2.2c1.3,0.5,2.8,0.8,4.4,0.8s3.1-0.3,4.4-0.8s2.4-1.3,3.4-2.2c0.9-1,1.7-2.1,2.2-3.5c0.5-1.4,0.8-2.8,0.8-4.4
		C158.6,83.2,158.3,81.8,157.9,80.4L157.9,80.4L157.9,80.4z M151.8,89.9c-0.9,1.2-2.3,1.8-3.9,1.8c-1.1,0-2-0.3-2.8-0.8
		c-0.8-0.6-1.4-1.4-1.8-2.4c-0.4-1.1-0.6-2.3-0.6-3.7s0.2-2.7,0.6-3.7c0.4-1.1,1.1-1.9,1.9-2.4c0.8-0.6,1.7-0.8,2.8-0.8
		c1.6,0,2.9,0.6,3.9,1.8c1,1.2,1.5,2.9,1.5,5.1C153.2,87,152.7,88.7,151.8,89.9L151.8,89.9L151.8,89.9z"/>
	<path d="M125.8,86.4c0.5,0.2,1,0.6,1.5,1.1c0.5,0.6,1.1,1.4,1.7,2.4l1.7,2.9c0.4,0.7,0.7,1.2,1,1.5c0.2,0.4,0.5,0.6,0.9,0.9
		c0.3,0.2,0.7,0.3,1.2,0.3c0.4,0,0.8-0.1,1.1-0.2c0.3-0.2,0.6-0.4,0.7-0.6c0.2-0.3,0.3-0.6,0.3-0.8s-0.1-0.8-0.5-1.5
		c-0.3-0.7-0.7-1.5-1.3-2.4c-0.6-0.9-1.2-1.7-1.9-2.5c-0.7-0.8-1.4-1.4-2.2-1.8c1.8-0.4,3.2-1.1,4.1-2c0.9-0.9,1.3-2.2,1.3-3.8
		c0-0.8-0.1-1.5-0.4-2.2c-0.3-0.7-0.6-1.3-1.2-1.8c-0.5-0.5-1.1-0.9-1.8-1.2c-0.6-0.2-1.2-0.4-1.9-0.5c-0.7-0.1-1.5-0.1-2.5-0.1h-7
		c-0.9,0-1.6,0.2-2,0.6c-0.4,0.4-0.6,1.1-0.6,2v16.3c0,0.9,0.2,1.5,0.6,2c0.4,0.4,0.9,0.7,1.6,0.7c0.6,0,1.2-0.2,1.5-0.6
		c0.4-0.4,0.6-1.1,0.6-2v-6.8h1.5C124.7,86.1,125.3,86.2,125.8,86.4L125.8,86.4L125.8,86.4z M129.3,77.5c0.5,0.2,0.9,0.6,1.2,1
		c0.3,0.4,0.4,1,0.4,1.6c0,0.8-0.2,1.3-0.6,1.8c-0.4,0.4-0.9,0.7-1.6,0.9c-0.7,0.2-1.6,0.3-2.6,0.3h-3.8v-5.8h4
		C127.9,77.2,128.9,77.3,129.3,77.5L129.3,77.5L129.3,77.5z"/>
	<path class="st1" d="M125.8,86.4c0.5,0.2,1,0.6,1.5,1.1c0.5,0.6,1.1,1.4,1.7,2.4l1.7,2.9c0.4,0.7,0.7,1.2,1,1.5
		c0.2,0.4,0.5,0.6,0.9,0.9c0.3,0.2,0.7,0.3,1.2,0.3c0.4,0,0.8-0.1,1.1-0.2c0.3-0.2,0.6-0.4,0.7-0.6c0.2-0.3,0.3-0.6,0.3-0.8
		s-0.1-0.8-0.5-1.5c-0.3-0.7-0.7-1.5-1.3-2.4c-0.6-0.9-1.2-1.7-1.9-2.5c-0.7-0.8-1.4-1.4-2.2-1.8c1.8-0.4,3.2-1.1,4.1-2
		c0.9-0.9,1.3-2.2,1.3-3.8c0-0.8-0.1-1.5-0.4-2.2c-0.3-0.7-0.6-1.3-1.2-1.8c-0.5-0.5-1.1-0.9-1.8-1.2c-0.6-0.2-1.2-0.4-1.9-0.5
		c-0.7-0.1-1.5-0.1-2.5-0.1h-7c-0.9,0-1.6,0.2-2,0.6c-0.4,0.4-0.6,1.1-0.6,2v16.3c0,0.9,0.2,1.5,0.6,2c0.4,0.4,0.9,0.7,1.6,0.7
		c0.6,0,1.2-0.2,1.5-0.6c0.4-0.4,0.6-1.1,0.6-2v-6.8h1.5C124.7,86.1,125.3,86.2,125.8,86.4L125.8,86.4L125.8,86.4z M129.3,77.5
		c0.5,0.2,0.9,0.6,1.2,1c0.3,0.4,0.4,1,0.4,1.6c0,0.8-0.2,1.3-0.6,1.8c-0.4,0.4-0.9,0.7-1.6,0.9c-0.7,0.2-1.6,0.3-2.6,0.3h-3.8v-5.8
		h4C127.9,77.2,128.9,77.3,129.3,77.5L129.3,77.5L129.3,77.5z"/>
</g>
</svg>
