<?xml version="1.0" encoding="iso-8859-1"?>
<!-- Generator: Adobe Illustrator 19.1.0, SVG Export Plug-In . SVG Version: 6.00 Build 0)  -->
<svg version="1.1" xmlns="http://www.w3.org/2000/svg" xmlns:xlink="http://www.w3.org/1999/xlink" x="0px" y="0px"
	 viewBox="0 0 76.583 62.615" style="enable-background:new 0 0 76.583 62.615;" xml:space="preserve">
<g id="logo_Q">
	<g>
		<g>
			<path style="fill:#FFFFFF;" d="M3.024,39.975c-0.467,3.186-0.667,6.393-0.889,9.581c-0.357-0.062-0.711-0.106-1.045-0.106
				c-0.355,0-0.689,0.044-1.045,0.106c0.933-4.854,1.667-9.709,2.29-14.562c0.31,0.062,0.6,0.105,0.911,0.105
				c0.289,0,0.6-0.043,0.889-0.105c1.622,3.354,3.511,7.112,5.133,10.088c1.755-3.145,3.579-6.733,5.178-10.088
				c0.311,0.062,0.645,0.105,0.956,0.105s0.622-0.043,0.934-0.105c0.578,4.854,1.355,11.587,1.912,14.562
				c-0.601-0.062-1.202-0.106-1.801-0.106c-0.6,0-1.221,0.044-1.844,0.106c-0.156-2.935-0.534-6.522-0.89-9.793H13.67
				c-1.668,3.271-3.313,6.521-4.912,9.793c-0.134-0.021-0.289-0.042-0.423-0.042c-0.132,0-0.288,0.021-0.421,0.042
				c-1.578-3.188-3.178-6.396-4.846-9.581H3.024z"/>
			<path style="fill:#FFFFFF;" d="M20.515,40.543c1.2-0.949,2.755-1.479,4.155-1.479c2.357,0,4.067,0.952,4.067,3.441
				c0,1.796-0.067,3.271-0.067,4.792c0,1.33,0.401,1.457,1.311,1.457v0.504c-0.843,0.423-1.356,0.572-2.043,0.572
				c-1.09,0-1.757-0.594-2.113-1.54c-0.688,0.885-1.533,1.54-2.889,1.54c-2.245,0-3.178-1.417-3.178-2.767
				c0-1.837,1.289-2.616,3.289-3.079c2.489-0.572,2.712-0.739,2.712-1.5c0-1.015-0.8-1.836-2.133-1.836
				c-1.022,0-2.222,0.569-2.667,1.161h-0.156L20.515,40.543z M25.804,44.067c-1.267,0.676-2.934,0.57-2.934,2.702
				c0,1.033,0.489,1.604,1.267,1.604c0.979,0,1.645-0.717,1.645-2.09C25.781,45.061,25.804,44.552,25.804,44.067z"/>
			<path style="fill:#FFFFFF;" d="M37.561,39.445c-0.046,0.211-0.068,0.381-0.068,0.571c0,0.169,0.021,0.358,0.068,0.526
				l-1.956-0.042c-0.088,1.266-0.156,3.566-0.156,4.706c0,2.934,0.222,3.421,1.245,3.421c0.556,0,0.755-0.063,1.021-0.214v0.867
				c-0.578,0.337-1.579,0.55-2.422,0.55c-1.845,0-2.823-1.14-2.823-3.272c0-1.625,0.156-4.264,0.156-6.037l-1.557,0.021
				c0.045-0.168,0.067-0.358,0.067-0.526c0-0.19-0.022-0.36-0.067-0.571l1.557,0.063c0-0.887-0.022-1.519-0.089-2.595
				c1.022-0.401,2.045-0.845,3.045-1.31l0.223,0.148c-0.112,0.907-0.201,2.47-0.201,3.736L37.561,39.445z"/>
			<path style="fill:#FFFFFF;" d="M42.359,40.922h0.046c0.821-1.14,1.953-1.857,3.354-1.857c1.334,0,2.31,0.718,2.842,2.007
				c0.891-1.289,2.138-2.007,3.446-2.007c2.222,0,3.47,1.184,3.47,3.885c0,1.437-0.091,2.449-0.091,3.545
				c0,0.889,0.066,1.982,0.112,3.062c-0.379-0.062-1.024-0.106-1.668-0.106c-0.645,0-1.289,0.044-1.666,0.106
				c0.199-1.521,0.244-3.546,0.244-6.058c0-1.751-0.668-2.576-1.821-2.576c-1.446,0-1.755,1.415-1.755,2.428v1.521
				c0,1.71,0.044,3.207,0.177,4.686c-0.38-0.042-0.979-0.106-1.666-0.106c-0.69,0-1.269,0.064-1.668,0.106
				c0.133-1.479,0.179-2.976,0.179-4.686v-1.286c0-1.691-0.377-2.662-1.559-2.662c-1.333,0-1.931,1.162-1.931,3.103v0.846
				c0,1.71,0.044,3.207,0.176,4.686c-0.375-0.042-0.976-0.106-1.665-0.106c-0.689,0-1.268,0.064-1.669,0.106
				c0.135-1.479,0.18-2.976,0.18-4.686v-0.846c0-1.707-0.045-3.207-0.18-4.685c0.534,0.044,1.047,0.105,1.579,0.105
				c0.532,0,1.044-0.062,1.623-0.105L42.359,40.922z"/>
			<path style="fill:#FFFFFF;" d="M64.917,47.972h-0.044c-0.822,1.14-1.957,1.859-3.357,1.859c-2.221,0-3.467-1.182-3.467-3.886
				c0-1.434,0.089-2.447,0.089-3.546c0-0.885-0.066-1.984-0.109-3.06c0.377,0.064,1.021,0.105,1.666,0.105
				c0.642,0,1.288-0.041,1.669-0.105c-0.202,1.52-0.247,3.547-0.247,6.059c0,1.751,0.667,2.573,1.824,2.573
				c1.332,0,1.933-1.16,1.933-3.102v-0.846c0-1.707-0.046-3.207-0.179-4.685c0.377,0.044,0.978,0.105,1.666,0.105
				c0.69,0,1.266-0.062,1.666-0.105c-0.133,1.478-0.175,2.978-0.175,4.685v0.846c0,1.71,0.042,3.207,0.175,4.686
				c-0.532-0.042-1.043-0.106-1.575-0.106c-0.536,0-1.046,0.064-1.624,0.106L64.917,47.972z"/>
			<path style="fill:#FFFFFF;" d="M76.428,39.445c-0.045,0.211-0.067,0.381-0.067,0.571c0,0.169,0.022,0.358,0.067,0.526
				l-1.956-0.042c-0.091,1.266-0.154,3.566-0.154,4.706c0,2.934,0.22,3.421,1.244,3.421c0.556,0,0.755-0.063,1.021-0.214v0.867
				c-0.577,0.337-1.578,0.55-2.423,0.55c-1.842,0-2.82-1.14-2.82-3.272c0-1.625,0.154-4.264,0.154-6.037l-1.556,0.021
				c0.045-0.168,0.066-0.358,0.066-0.526c0-0.19-0.021-0.36-0.066-0.571l1.556,0.063c0-0.887-0.022-1.519-0.089-2.595
				c1.021-0.401,2.047-0.845,3.045-1.31l0.223,0.148c-0.11,0.907-0.2,2.47-0.2,3.736L76.428,39.445z"/>
		</g>
		<rect x="0.071" y="52.731" style="fill:#FFFFFF;" width="76.494" height="0.66"/>
		<path style="fill:#FFFFFF;" d="M69.28,20.513C69.319,20.536,69.243,20.489,69.28,20.513L69.28,20.513
			C69.221,20.474,69.342,20.552,69.28,20.513c-6.495-4.057-14.478-6.046-22.933-6.392c0.016-0.269,0.034-0.538,0.066-0.81
			C54.84,13.662,62.745,16.52,69.28,20.513L69.28,20.513z"/>
		<path style="fill:#FFFFFF;" d="M7.492,26.046c5.696-4.381,13.001-7.72,20.541-9.782v-0.84
			C19.993,17.592,13.254,21.287,7.492,26.046"/>
		<path style="fill:#FFFFFF;" d="M36.91,15.799c-0.063-0.424-0.061-0.855-0.011-1.284c-1.78,0.217-3.568,0.517-5.36,0.899
			c0.06,0.54,0.093,1.083,0.093,1.623c0,1.736-0.314,3.448-0.924,5.035l5.54,3.993c0.422-0.386,0.88-0.768,1.373-1.134
			c2.577-1.909,5.871-3.187,7-1.864l1.756-1.265C41.353,21.507,37.4,19.158,36.91,15.799z"/>
		<path style="fill:#FFFFFF;" d="M30.541,5.631c0.646-0.198,1.303-0.43,1.958-0.705c3.186-1.331,5.406-3.079,6.379-4.549L38.355,0
			L30.541,5.631z"/>
		<path style="fill:#FFFFFF;" d="M43.953,23.55c-0.675-0.611-3.226,0.091-5.846,2.035c-0.419,0.31-0.814,0.636-1.182,0.969
			l1.43,1.03L43.953,23.55z"/>
		<path style="fill:#FFFFFF;" d="M39.527,0.844c-1.144,1.708-3.579,3.524-6.714,4.833c-1.334,0.558-2.666,0.963-3.91,1.211
			c-0.04,0.007-0.077,0.014-0.117,0.021c-0.237,0.045-0.467,0.084-0.697,0.118c-0.143,0.021-0.29,0.042-0.432,0.059
			c0.149,0.155,0.291,0.318,0.432,0.48c0.242,0.275,0.477,0.558,0.697,0.854c0.04,0.053,0.078,0.108,0.117,0.162
			c1.06,1.462,1.869,3.165,2.324,5.054c0.078,0.322,0.142,0.645,0.197,0.971c1.885-0.399,3.767-0.71,5.639-0.931
			c0.208-0.732,0.574-1.457,1.094-2.153c1.829-2.443,5.28-4.274,9.304-4.961L39.527,0.844z"/>
		<path style="fill:#FFFFFF;" d="M30.739,15.589c-0.029-0.27-0.067-0.539-0.111-0.808c-0.053-0.319-0.114-0.638-0.191-0.955l0,0
			c-0.33-1.368-0.855-2.634-1.533-3.772c-0.039-0.065-0.077-0.129-0.117-0.192v3.929v1.432v0.841v4.625l0.117,0.083l1.12,0.807
			C30.71,19.699,30.958,17.639,30.739,15.589z"/>
		<path style="fill:#FFFFFF;" d="M47.056,20.757c-0.284-0.486-0.531-0.999-0.738-1.534c-0.021-0.062-0.045-0.125-0.067-0.188
			c-0.025-0.066-0.049-0.135-0.071-0.202c-0.486-1.449-0.709-3.06-0.621-4.737c-0.008,0-0.015,0-0.023-0.001
			c-2.562-0.067-5.171,0.04-7.803,0.325c-0.07,0.423-0.078,0.845-0.018,1.26c0.459,3.149,4.472,5.283,9.483,5.342
			c0.008,0,0.014,0,0.021,0C47.163,20.936,47.11,20.849,47.056,20.757z"/>
		<path style="fill:#FFFFFF;" d="M47.658,7.353c-3.798,0.64-7.162,2.399-8.851,4.657c-0.383,0.513-0.666,1.04-0.856,1.571
			c2.577-0.267,5.135-0.364,7.646-0.296c0.013,0,0.021,0,0.032,0c0.077-0.683,0.202-1.373,0.385-2.065
			c0.372-1.421,0.946-2.723,1.667-3.872C47.672,7.351,47.665,7.352,47.658,7.353z"/>
	</g>
</g>
</svg>
