<?xml version="1.0" encoding="utf-8"?>
<!-- Generator: Adobe Illustrator 17.1.0, SVG Export Plug-In . SVG Version: 6.00 Build 0)  -->
<!DOCTYPE svg PUBLIC "-//W3C//DTD SVG 1.1//EN" "http://www.w3.org/Graphics/SVG/1.1/DTD/svg11.dtd">
<svg version="1.1" id="Calque_1" xmlns="http://www.w3.org/2000/svg" xmlns:xlink="http://www.w3.org/1999/xlink" x="0px" y="0px"
	 viewBox="0 0 24 24" enable-background="new 0 0 24 24" xml:space="preserve">
<path fill="none" d="M0,0h24v24H0V0z"/>
<path fill="#FFFFFF" d="M5.3,6.7l1.4-1.4L5,3.5L3.5,4.9L5.3,6.7z M11,1h2v3h-2V1z M1,11h3v2H1V11z M13,20h-2v-4l-1-0.6
	c-1.2-0.7-2-2-2-3.5c0-2.2,1.8-4,4-4s4,1.8,4,4c0,1.4-0.8,2.7-2,3.5L13,16V20 M15,17.1c1.8-1,3-3,3-5.2c0-3.3-2.7-6-6-6s-6,2.7-6,6
	c0,2.2,1.2,4.2,3,5.2V22h6C15,22,15,17.1,15,17.1z M20,11h3v2h-3V11z M18.6,6.7l1.8-1.8L19,3.5l-1.8,1.8L18.6,6.7z"/>
</svg>
