<?xml version="1.0" encoding="utf-8"?>
<!-- Generator: Adobe Illustrator 19.1.0, SVG Export Plug-In . SVG Version: 6.00 Build 0)  -->
<svg version="1.1" id="Calque_1" xmlns="http://www.w3.org/2000/svg" xmlns:xlink="http://www.w3.org/1999/xlink" x="0px" y="0px"
	 viewBox="-589 338 100 125" style="enable-background:new -589 338 100 125;" xml:space="preserve">
<metadata><?xpacket begin="﻿" id="W5M0MpCehiHzreSzNTczkc9d"?>
<x:xmpmeta xmlns:x="adobe:ns:meta/" x:xmptk="Adobe XMP Core 5.6-c067 79.157747, 2015/03/30-23:40:42        ">
   <rdf:RDF xmlns:rdf="http://www.w3.org/1999/02/22-rdf-syntax-ns#">
      <rdf:Description rdf:about=""
            xmlns:ExtensisFontSense="http://www.extensis.com/meta/FontSense/">
         <ExtensisFontSense:slug>
            <rdf:Bag>
               <rdf:li>
                  <rdf:Description>
                     <ExtensisFontSense:Family>Helvetica Neue</ExtensisFontSense:Family>
                     <ExtensisFontSense:Version>10.0</ExtensisFontSense:Version>
                     <ExtensisFontSense:OutlineFileSize>0</ExtensisFontSense:OutlineFileSize>
                     <ExtensisFontSense:KerningChecksum>54840</ExtensisFontSense:KerningChecksum>
                     <ExtensisFontSense:Foundry>Linotype AG</ExtensisFontSense:Foundry>
                     <ExtensisFontSense:FontKind>TrueType</ExtensisFontSense:FontKind>
                     <ExtensisFontSense:Checksum>2285979886</ExtensisFontSense:Checksum>
                     <ExtensisFontSense:PostScriptName>HelveticaNeue-Bold</ExtensisFontSense:PostScriptName>
                     <ExtensisFontSense:FontSense_1.2_Checksum>2285979886</ExtensisFontSense:FontSense_1.2_Checksum>
                  </rdf:Description>
               </rdf:li>
            </rdf:Bag>
         </ExtensisFontSense:slug>
      </rdf:Description>
   </rdf:RDF>
</x:xmpmeta>
                                                                                                    
                                                                                                    
                                                                                                    
                                                                                                    
                                                                                                    
                                                                                                    
                                                                                                    
                                                                                                    
                                                                                                    
                                                                                                    
                                                                                                    
                                                                                                    
                                                                                                    
                                                                                                    
                                                                                                    
                                                                                                    
                                                                                                    
                                                                                                    
                                                                                                    
                                                                                                    
                           
<?xpacket end="w"?></metadata>
<style type="text/css">
	.st0{fill:#FFFFFF;}
	.st1{display:none;enable-background:new    ;}
	.st2{font-family:'HelveticaNeue-Bold';}
	.st3{font-size:5px;}
</style>
<path class="st0" d="M-540.9,362C-540.9,362-540.9,362-540.9,362c-2.4,0-4.7,1.1-6.4,2.8c-1.7,1.7-2.6,4-2.6,6.5
	c0,1.9,0.6,3.2,0.6,3.2c0,0,0,0.1,0,0.1c0.6,1.4,1.2,2.7,1.7,3.8c1.1,2.4,1.9,4.3,2.4,6c0.3,1.1,0.9,4.7,0.9,4.8
	c0.1,0.3,0.4,0.8,0.7,0.8c0,0,0,0,0,0h5.3c0.4,0,0.7-0.4,0.7-0.7c0-0.1,0.5-3.7,0.9-4.8c0.5-1.8,1.4-3.7,2.4-6.1
	c0.5-1.2,1.1-2.4,1.7-3.8c0,0,0,0,0,0c0.3-0.6,0.6-1.6,0.6-3.2c0-2.4-1-4.8-2.7-6.5C-536.3,363.1-538.5,362-540.9,362z
	 M-540.9,366.2c-1.3,0-2.4,0.5-3.3,1.4c-0.9,0.9-1.4,2.1-1.4,3.3c0,1,0.3,1.6,0.3,1.6c0.2,0.5,0,1.1-0.5,1.3
	c-0.1,0.1-0.3,0.1-0.4,0.1c-0.4,0-0.7-0.2-0.9-0.6c0-0.1-0.5-1-0.5-2.5c0-1.8,0.7-3.6,1.9-4.9c1.3-1.3,2.9-2.1,4.7-2.1c0,0,0,0,0,0
	c0.6,0,1,0.6,1,1.1C-539.9,365.7-540.4,366.2-540.9,366.2z"/>
<path class="st0" d="M-505.9,381.8c-0.7-0.9-1.3-1.8-1.6-2.4c-1.4-2.4-1.5-2.7-1-5.4c0.5-2.5-0.2-4.9-0.9-7.4
	c-0.2-0.8-0.4-1.5-0.6-2.3l-0.1-0.4c-4-16.9-19-20.6-30.9-20.8c-26.3-0.4-33.1,21.9-33.4,29.7c-0.2,7.2,3.6,16.4,6.3,20.3
	c2.6,3.7,4.5,11.3,4.8,18.5c0.2,6.4-7.1,18.8-8.2,20.7c-0.4,0.6-0.1,1.8,1,1.8h42.6c1.2,0,1.4-1.1,1.4-1.5c0-2.6,0.5-4.3,0.9-5.8
	c0.4-1.5,0.8-2.8,0.5-4.4c-0.6-3.2,0.2-6.2,2-7.7c0.8-0.7,4-1.1,6.5-1.4c2.6-0.3,4.9-0.6,6.1-1.3c2.8-1.5,2.4-6.1,2-7.2
	c0-0.1-0.1-0.2-0.1-0.3c-0.2-0.6-0.4-1,0.3-1.7c1.4-1.4,1.3-2.7,0.8-3.8c0.4-0.4,0.8-0.8,1-1.3c0.2-0.6,0.4-1.5-0.1-2.7
	c-0.2-0.5-0.3-0.9-0.1-1.1c0.2-0.4,0.8-0.7,1.2-0.9c1.7-0.6,3.5-1.4,3.4-4.3C-502.3,387-503.8,384.8-505.9,381.8z M-534.2,358.3
	l2-3.5c0.3-0.5,0.9-0.6,1.4-0.4c0.5,0.3,0.6,0.9,0.4,1.4l-2,3.5c-0.2,0.3-0.5,0.5-0.9,0.5c-0.2,0-0.3,0-0.5-0.1
	C-534.3,359.4-534.5,358.8-534.2,358.3z M-542,353c0-0.6,0.4-1,1-1s1,0.4,1,1v4c0,0.6-0.4,1-1,1s-1-0.4-1-1V353z M-550.9,354.6
	c0.5-0.3,1.1-0.1,1.4,0.4l2,3.5c0.3,0.5,0.1,1.1-0.4,1.4c-0.2,0.1-0.3,0.1-0.5,0.1c-0.3,0-0.7-0.2-0.9-0.5l-2-3.5
	C-551.5,355.5-551.4,354.9-550.9,354.6z M-561,372c0-0.6,0.4-1,1-1h4c0.6,0,1,0.4,1,1s-0.4,1-1,1h-4C-560.6,373-561,372.6-561,372z
	 M-553.4,380.3l-3.5,2c-0.2,0.1-0.3,0.1-0.5,0.1c-0.3,0-0.7-0.2-0.9-0.5c-0.3-0.5-0.1-1.1,0.4-1.4l3.5-2c0.5-0.3,1.1-0.1,1.4,0.4
	C-552.7,379.4-552.9,380-553.4,380.3z M-553,364.8c-0.2,0.3-0.5,0.5-0.9,0.5c-0.2,0-0.3,0-0.5-0.1l-3.5-2c-0.5-0.3-0.6-0.9-0.4-1.4
	c0.3-0.5,0.9-0.6,1.4-0.4l3.5,2C-552.9,363.7-552.7,364.3-553,364.8z M-538.2,396.9l-1.2,1.7c-0.2,0.2-0.5,0.5-0.8,0.5h-1.5
	c-0.3,0-0.5-0.2-0.8-0.5l-1.1-1.7c-0.2-0.4,0-0.8,0.5-0.8h4.6C-538.2,396-538,396.5-538.2,396.9z M-538,395h-6c-0.6,0-1-0.4-1-1
	s0.4-1,1-1h6c0.6,0,1,0.4,1,1S-537.4,395-538,395z M-530.6,375.2C-530.6,375.2-530.6,375.3-530.6,375.2c-0.6,1.5-1.2,2.8-1.7,4
	c-1,2.3-1.8,4.2-2.3,5.8c-0.3,0.8-0.7,3.6-0.8,4.6c-0.3,1.3-1.4,2.5-2.7,2.5h-5.3c0,0,0,0,0,0c-1.3,0-2.4-1.1-2.7-2.4
	c-0.2-1-0.6-3.6-0.9-4.5c-0.5-1.6-1.3-3.5-2.4-5.8c-0.5-1.2-1.1-2.5-1.7-3.9c0,0,0,0,0,0c-0.1-0.3-0.7-1.8-0.8-4
	c0-2.9,1.1-5.9,3.2-8c2.1-2.1,4.8-3.4,7.8-3.4c0,0,0,0,0,0c2.9,0,5.7,1.3,7.8,3.4c2.1,2.1,3.2,4.9,3.2,7.8
	C-529.9,373.1-530.3,374.4-530.6,375.2z M-528.4,363.5l3.5-2c0.5-0.3,1.1-0.1,1.4,0.4c0.3,0.5,0.1,1.1-0.4,1.4l-3.5,2
	c-0.2,0.1-0.3,0.1-0.5,0.1c-0.3,0-0.7-0.2-0.9-0.5C-529,364.4-528.9,363.8-528.4,363.5z M-523.5,381.8c-0.2,0.3-0.5,0.5-0.9,0.5
	c-0.2,0-0.3,0-0.5-0.1l-3.5-2c-0.5-0.3-0.6-0.9-0.4-1.4c0.3-0.5,0.9-0.6,1.4-0.4l3.5,2C-523.4,380.7-523.2,381.3-523.5,381.8z
	 M-522,373h-4c-0.6,0-1-0.4-1-1s0.4-1,1-1h4c0.6,0,1,0.4,1,1S-521.4,373-522,373z"/>
<text transform="matrix(1 0 0 1 -589 453)" class="st1 st2 st3">Created by  Laymik</text>
<text transform="matrix(1 0 0 1 -589 458)" class="st1 st2 st3">from the Noun Project</text>
</svg>
